Russolo-72ptRegular.ufo
<glyph name="exclam" format="2">
  <advance width="489.54651162790697"/>
  <unicode hex="0021"/>
  <note>
exclam
</note>
  <outline>
    <contour>
      <point x="229.32558139534882" y="318.4496124031008" type="curve"/>
      <point x="261.6085271317829" y="318.4496124031008" type="line"/>
      <point x="266.13953488372096" y="987.2868217054263"/>
      <point x="334.97286821705427" y="1133.4302325581396"/>
      <point x="334.97286821705427" y="1219.593023255814" type="curve" smooth="yes"/>
      <point x="334.97286821705427" y="1322.5697674418604"/>
      <point x="266.5077519379845" y="1249.3100775193798"/>
      <point x="269.015503875969" y="1463.3875968992247" type="curve"/>
      <point x="221.2248062015504" y="1463.3875968992247" type="line"/>
      <point x="223.7325581395349" y="1249.3100775193798"/>
      <point x="155.2674418604651" y="1322.5697674418604"/>
      <point x="155.2674418604651" y="1219.593023255814" type="curve" smooth="yes"/>
      <point x="155.2674418604651" y="1133.4302325581396"/>
      <point x="224.10077519379846" y="987.2868217054263"/>
    </contour>
    <contour>
      <point x="245.1201550387597" y="-17.468992248062015" type="curve" smooth="yes"/>
      <point x="287.52713178294573" y="-17.468992248062015"/>
      <point x="320.54651162790697" y="22.48837209302326"/>
      <point x="320.54651162790697" y="71.44573643410853" type="curve" smooth="yes"/>
      <point x="320.54651162790697" y="119.7093023255814"/>
      <point x="286.52713178294573" y="158.36046511627907"/>
      <point x="245.1201550387597" y="158.36046511627907" type="curve" smooth="yes"/>
      <point x="203.71317829457365" y="158.36046511627907"/>
      <point x="169.69379844961242" y="119.7093023255814"/>
      <point x="169.69379844961242" y="71.44573643410853" type="curve" smooth="yes"/>
      <point x="169.69379844961242" y="22.48837209302326"/>
      <point x="202.71317829457365" y="-17.468992248062015"/>
    </contour>
  </outline>
</glyph>
<glyph name="quotedbl" format="2">
  <advance width="537.8875968992248"/>
  <unicode hex="0022"/>
  <note>
quotedbl
</note>
  <outline>
    <contour>
      <point x="321.1782945736434" y="833.8798449612403" type="line"/>
      <point x="382.1937984496124" y="833.8798449612403" type="line"/>
      <point x="402.2751937984496" y="1357.468992248062" type="line"/>
      <point x="305.1782945736434" y="1357.468992248062" type="line"/>
    </contour>
    <contour>
      <point x="153.30620155038758" y="833.8798449612403" type="line"/>
      <point x="212.9341085271318" y="833.8798449612403" type="line"/>
      <point x="233.015503875969" y="1357.468992248062" type="line"/>
      <point x="136.6124031007752" y="1357.468992248062" type="line"/>
    </contour>
  </outline>
</glyph>
<glyph name="numbersign" format="2">
  <advance width="1203.8100775193798"/>
  <unicode hex="0023"/>
  <note>
numbersign
</note>
  <outline>
    <contour>
      <point x="664.062015503876" y="0.0" type="line"/>
      <point x="765.4031007751938" y="0.0" type="line"/>
      <point x="1040.6666666666667" y="1432.0813953488373" type="line"/>
      <point x="939.3255813953489" y="1432.0813953488373" type="line"/>
    </contour>
    <contour>
      <point x="65.3062015503876" y="482.2674418604651" type="line"/>
      <point x="1072.891472868217" y="482.2674418604651" type="line"/>
      <point x="1072.891472868217" y="529.0387596899225" type="line"/>
      <point x="65.3062015503876" y="529.0387596899225" type="line"/>
    </contour>
    <contour>
      <point x="172.2674418604651" y="0.0" type="line"/>
      <point x="274.30232558139534" y="0.0" type="line"/>
      <point x="550.2596899224807" y="1432.0813953488373" type="line"/>
      <point x="448.9186046511628" y="1432.0813953488373" type="line"/>
    </contour>
    <contour>
      <point x="123.2248062015504" y="908.4302325581396" type="line"/>
      <point x="1131.5038759689924" y="908.4302325581396" type="line"/>
      <point x="1131.5038759689924" y="955.8953488372093" type="line"/>
      <point x="123.2248062015504" y="955.8953488372093" type="line"/>
    </contour>
  </outline>
</glyph>
<glyph name="percent" format="2">
  <advance width="1697.3255813953488"/>
  <unicode hex="0025"/>
  <note>
percent
</note>
  <outline>
    <contour>
      <point x="287.31007751937983" y="-34.75581395348837" type="line"/>
      <point x="399.8333333333333" y="-34.75581395348837" type="line"/>
      <point x="1341.953488372093" y="1447.531007751938" type="line"/>
      <point x="1229.4302325581396" y="1447.531007751938" type="line"/>
    </contour>
    <contour>
      <point x="1259.2868217054263" y="-23.856589147286822" type="curve" smooth="yes"/>
      <point x="1474.1627906976744" y="-23.856589147286822"/>
      <point x="1602.406976744186" y="136.75581395348837"/>
      <point x="1602.406976744186" y="349.531007751938" type="curve" smooth="yes"/>
      <point x="1602.406976744186" y="563.6124031007752"/>
      <point x="1468.7751937984497" y="724.3062015503876"/>
      <point x="1259.2868217054263" y="724.3062015503876" type="curve" smooth="yes"/>
      <point x="1050.1860465116279" y="724.3062015503876"/>
      <point x="917.1666666666666" y="562.9186046511628"/>
      <point x="917.1666666666666" y="349.531007751938" type="curve" smooth="yes"/>
      <point x="917.1666666666666" y="138.75581395348837"/>
      <point x="1043.4108527131782" y="-23.856589147286822"/>
    </contour>
    <contour>
      <point x="1259.2868217054263" y="27.914728682170544" type="curve" smooth="yes"/>
      <point x="1129.7325581395348" y="27.914728682170544"/>
      <point x="1054.3023255813953" y="154.34496124031008"/>
      <point x="1054.3023255813953" y="349.531007751938" type="curve" smooth="yes"/>
      <point x="1054.3023255813953" y="546.1046511627907"/>
      <point x="1129.7325581395348" y="673.8410852713179"/>
      <point x="1259.2868217054263" y="673.8410852713179" type="curve" smooth="yes"/>
      <point x="1388.5348837209303" y="673.8410852713179"/>
      <point x="1464.9651162790697" y="545.7170542635658"/>
      <point x="1464.9651162790697" y="349.531007751938" type="curve" smooth="yes"/>
      <point x="1464.9651162790697" y="154.34496124031008"/>
      <point x="1389.5348837209303" y="27.914728682170544"/>
    </contour>
    <contour>
      <point x="437.7325581395349" y="717.9806201550388" type="curve" smooth="yes"/>
      <point x="652.6085271317829" y="717.9806201550388"/>
      <point x="781.546511627907" y="879.5930232558139"/>
      <point x="781.546511627907" y="1092.7558139534883" type="curve" smooth="yes"/>
      <point x="781.546511627907" y="1306.4496124031007"/>
      <point x="646.5271317829457" y="1466.8372093023256"/>
      <point x="437.7325581395349" y="1466.8372093023256" type="curve" smooth="yes"/>
      <point x="227.93798449612405" y="1466.8372093023256"/>
      <point x="94.91860465116278" y="1305.7558139534883"/>
      <point x="94.91860465116278" y="1092.7558139534883" type="curve" smooth="yes"/>
      <point x="94.91860465116278" y="880.5930232558139"/>
      <point x="221.1627906976744" y="717.9806201550388"/>
    </contour>
    <contour>
      <point x="437.7325581395349" y="769.4457364341085" type="curve" smooth="yes"/>
      <point x="308.1782945736434" y="769.4457364341085"/>
      <point x="232.74806201550388" y="897.1821705426356"/>
      <point x="232.74806201550388" y="1092.7558139534883" type="curve" smooth="yes"/>
      <point x="232.74806201550388" y="1289.3294573643411"/>
      <point x="308.1782945736434" y="1415.3720930232557"/>
      <point x="437.7325581395349" y="1415.3720930232557" type="curve" smooth="yes"/>
      <point x="566.2868217054264" y="1415.3720930232557"/>
      <point x="643.7170542635658" y="1288.2480620155038"/>
      <point x="643.7170542635658" y="1092.7558139534883" type="curve" smooth="yes"/>
      <point x="643.7170542635658" y="899.2635658914728"/>
      <point x="567.2868217054264" y="769.4457364341085"/>
    </contour>
  </outline>
</glyph>
<glyph name="ampersand" format="2">
  <advance width="1259.3139534883721"/>
  <unicode hex="0026"/>
  <note>
ampersand
</note>
  <outline>
    <contour>
      <point x="569.8720930232558" y="-30.08139534883721" type="curve" smooth="yes"/>
      <point x="731.2170542635658" y="-30.08139534883721"/>
      <point x="811.953488372093" y="-0.612403100775194"/>
      <point x="903.0542635658915" y="58.406976744186046" type="curve"/>
      <point x="862.2829457364342" y="106.54651162790698" type="line"/>
      <point x="769.6085271317829" y="37.85271317829457"/>
      <point x="670.8333333333334" y="16.60852713178295"/>
      <point x="563.8720930232558" y="16.60852713178295" type="curve" smooth="yes"/>
      <point x="372.3178294573643" y="16.60852713178295"/>
      <point x="286.7248062015504" y="194.5891472868217"/>
      <point x="286.7248062015504" y="391.63178294573646" type="curve" smooth="yes"/>
      <point x="286.7248062015504" y="611.6550387596899"/>
      <point x="397.4612403100775" y="758.8798449612403"/>
      <point x="584.7286821705426" y="757.4922480620155" type="curve"/>
      <point x="588.0348837209302" y="802.8759689922481" type="line"/>
      <point x="422.15503875968994" y="800.1007751937984"/>
      <point x="364.7248062015504" y="950.6937984496124"/>
      <point x="364.7248062015504" y="1091.6744186046512" type="curve" smooth="yes"/>
      <point x="364.7248062015504" y="1259.4108527131782"/>
      <point x="452.6860465116279" y="1416.6976744186047"/>
      <point x="594.3217054263566" y="1416.6976744186047" type="curve" smooth="yes"/>
      <point x="762.6860465116279" y="1416.6976744186047" type="line"/>
      <point x="762.6860465116279" y="1461.3875968992247" type="line"/>
      <point x="590.3217054263566" y="1461.3875968992247" type="line" smooth="yes"/>
      <point x="352.8565891472868" y="1461.3875968992247"/>
      <point x="202.0" y="1302.406976744186"/>
      <point x="202.0" y="1091.6744186046512" type="curve" smooth="yes"/>
      <point x="202.0" y="955.0"/>
      <point x="284.98062015503876" y="830.7751937984497"/>
      <point x="441.1046511627907" y="786.0" type="curve"/>
      <point x="270.1240310077519" y="749.6744186046511"/>
      <point x="111.2248062015504" y="605.8178294573644"/>
      <point x="111.2248062015504" y="385.63178294573646" type="curve" smooth="yes"/>
      <point x="111.2248062015504" y="136.30620155038758"/>
      <point x="308.68992248062017" y="-30.08139534883721"/>
    </contour>
    <contour>
      <point x="1006.4612403100775" y="-20.08139534883721" type="curve" smooth="yes"/>
      <point x="1081.8255813953488" y="-20.08139534883721"/>
      <point x="1150.2945736434108" y="-1.0"/>
      <point x="1176.0077519379845" y="11.550387596899224" type="curve"/>
      <point x="1176.0077519379845" y="87.11627906976744" type="line"/>
      <point x="1105.6860465116279" y="50.52713178294574"/>
      <point x="1061.093023255814" y="28.30232558139535"/>
      <point x="1027.6434108527133" y="28.30232558139535" type="curve" smooth="yes"/>
      <point x="988.2131782945737" y="28.30232558139535"/>
      <point x="1000.2325581395348" y="168.18992248062017"/>
      <point x="1000.2325581395348" y="329.86434108527135" type="curve" smooth="yes"/>
      <point x="1000.2325581395348" y="757.4922480620155" type="line"/>
      <point x="1140.9263565891472" y="757.4922480620155" type="line"/>
      <point x="1140.9263565891472" y="802.1821705426356" type="line"/>
      <point x="1000.2325581395348" y="802.1821705426356" type="line"/>
      <point x="1000.2325581395348" y="1136.8139534883721" type="line"/>
      <point x="924.0348837209302" y="1136.8139534883721" type="line"/>
      <point x="935.8294573643411" y="854.9341085271318"/>
      <point x="862.5271317829457" y="801.1821705426356"/>
      <point x="698.5697674418604" y="802.1821705426356" type="curve" smooth="yes"/>
      <point x="579.0968992248062" y="802.1821705426356" type="line"/>
      <point x="574.7093023255813" y="757.4922480620155" type="line"/>
      <point x="836.6511627906976" y="757.4922480620155" type="line"/>
      <point x="836.6511627906976" y="251.10077519379846" type="line" smooth="yes"/>
      <point x="836.6511627906976" y="71.6124031007752"/>
      <point x="877.1162790697674" y="-20.08139534883721"/>
    </contour>
  </outline>
</glyph>
<glyph name="quotesingle" format="2">
  <advance width="367.9341085271318"/>
  <unicode hex="0027"/>
  <note>
quotesingle
</note>
  <outline>
    <contour>
      <point x="153.30620155038758" y="833.8798449612403" type="line"/>
      <point x="212.9341085271318" y="833.8798449612403" type="line"/>
      <point x="233.015503875969" y="1357.468992248062" type="line"/>
      <point x="136.6124031007752" y="1357.468992248062" type="line"/>
    </contour>
  </outline>
</glyph>
<glyph name="parenleft" format="2">
  <advance width="515.4031007751938"/>
  <unicode hex="0028"/>
  <note>
parenleft
</note>
  <outline>
    <contour>
      <point x="415.40697674418607" y="-390.83720930232556" type="curve"/>
      <point x="470.5658914728682" y="-367.9186046511628" type="line"/>
      <point x="336.0968992248062" y="-139.08527131782944"/>
      <point x="199.72868217054264" y="212.01937984496124"/>
      <point x="199.72868217054264" y="563.8759689922481" type="curve" smooth="yes"/>
      <point x="199.72868217054264" y="916.2635658914728"/>
      <point x="337.3217054263566" y="1279.2674418604652"/>
      <point x="472.484496124031" y="1510.7519379844962" type="curve"/>
      <point x="414.79457364341084" y="1527.9767441860465" type="line"/>
      <point x="179.32558139534885" y="1186.015503875969"/>
      <point x="78.9186046511628" y="913.3643410852713"/>
      <point x="78.9186046511628" y="567.3449612403101" type="curve" smooth="yes"/>
      <point x="78.9186046511628" y="221.56976744186048"/>
      <point x="178.85658914728683" y="-61.531007751937985"/>
    </contour>
  </outline>
</glyph>
<glyph name="parenright" format="2">
  <advance width="516.0968992248062"/>
  <unicode hex="0029"/>
  <note>
parenright
</note>
  <outline>
    <contour>
      <point x="100.68992248062015" y="-390.83720930232556" type="line"/>
      <point x="338.62790697674416" y="-60.83720930232558"/>
      <point x="437.1782945736434" y="221.56976744186048"/>
      <point x="437.1782945736434" y="567.3449612403101" type="curve" smooth="yes"/>
      <point x="437.1782945736434" y="912.6705426356589"/>
      <point x="337.4651162790698" y="1186.015503875969"/>
      <point x="101.30232558139535" y="1527.9767441860465" type="curve"/>
      <point x="42.91860465116279" y="1510.7519379844962" type="line"/>
      <point x="178.7751937984496" y="1280.65503875969"/>
      <point x="317.06201550387595" y="914.8759689922481"/>
      <point x="317.06201550387595" y="563.8759689922481" type="curve" smooth="yes"/>
      <point x="317.06201550387595" y="211.32558139534882"/>
      <point x="179.30620155038758" y="-141.16666666666669"/>
      <point x="44.83720930232558" y="-367.9186046511628" type="curve"/>
    </contour>
  </outline>
</glyph>
<glyph name="asterisk" format="2">
  <advance width="735.8527131782946"/>
  <unicode hex="002A"/>
  <note>
asterisk
</note>
  <outline>
    <contour>
      <point x="373.5891472868217" y="1121.65503875969" type="line"/>
      <point x="482.2403100775194" y="1189.2248062015503"/>
      <point x="579.6899224806201" y="1204.124031007752"/>
      <point x="586.546511627907" y="1207.8992248062016" type="curve" smooth="yes"/>
      <point x="615.8720930232558" y="1225.7558139534883"/>
      <point x="571.9147286821706" y="1238.7558139534883"/>
      <point x="629.9341085271318" y="1272.6124031007753" type="curve"/>
      <point x="621.4651162790698" y="1287.8565891472867" type="line"/>
      <point x="564.1395348837209" y="1255.0"/>
      <point x="574.4651162790698" y="1299.1821705426357"/>
      <point x="543.4457364341085" y="1282.3255813953488" type="curve" smooth="yes"/>
      <point x="536.5891472868217" y="1278.5503875968993"/>
      <point x="476.07751937984494" y="1202.5503875968993"/>
      <point x="362.26356589147287" y="1140.9186046511627" type="curve"/>
    </contour>
    <contour>
      <point x="114.3875968992248" y="974.7170542635658" type="line"/>
      <point x="171.71317829457365" y="1007.5736434108527"/>
      <point x="162.0813953488372" y="963.3914728682171"/>
      <point x="192.40697674418604" y="980.2480620155038" type="curve" smooth="yes"/>
      <point x="199.26356589147287" y="984.0232558139535"/>
      <point x="260.468992248062" y="1060.7170542635658"/>
      <point x="373.5891472868217" y="1121.65503875969" type="curve"/>
      <point x="362.26356589147287" y="1140.9186046511627" type="line"/>
      <point x="252.91860465116278" y="1073.3488372093022"/>
      <point x="156.16279069767444" y="1057.7558139534883"/>
      <point x="149.30620155038758" y="1054.6744186046512" type="curve" smooth="yes"/>
      <point x="119.28682170542635" y="1036.124031007752"/>
      <point x="163.24418604651163" y="1023.8178294573644"/>
      <point x="105.9186046511628" y="989.9612403100775" type="curve"/>
    </contour>
    <contour>
      <point x="358.9573643410853" y="833.3914728682171" type="curve"/>
      <point x="376.8953488372093" y="833.3914728682171" type="line"/>
      <point x="376.8953488372093" y="900.1046511627907"/>
      <point x="410.52713178294573" y="880.922480620155"/>
      <point x="410.52713178294573" y="903.6356589147287" type="curve" smooth="yes"/>
      <point x="410.52713178294573" y="921.7984496124031"/>
      <point x="375.2829457364341" y="1002.7790697674419"/>
      <point x="379.44573643410854" y="1131.2868217054263" type="curve"/>
      <point x="356.40697674418607" y="1131.2868217054263" type="line"/>
      <point x="360.56976744186045" y="1002.0852713178294"/>
      <point x="325.3255813953488" y="922.4922480620155"/>
      <point x="325.3255813953488" y="903.6356589147287" type="curve" smooth="yes"/>
      <point x="325.3255813953488" y="880.922480620155"/>
      <point x="358.9573643410853" y="899.4108527131783"/>
    </contour>
    <contour>
      <point x="361.56976744186045" y="1121.65503875969" type="curve"/>
      <point x="373.5891472868217" y="1140.9186046511627" type="line"/>
      <point x="259.7751937984496" y="1202.5503875968993"/>
      <point x="199.26356589147287" y="1278.5503875968993"/>
      <point x="192.40697674418604" y="1282.3255813953488" type="curve" smooth="yes"/>
      <point x="161.3875968992248" y="1299.1821705426357"/>
      <point x="171.01937984496124" y="1255.0"/>
      <point x="113.6937984496124" y="1287.1627906976744" type="curve"/>
      <point x="105.9186046511628" y="1272.6124031007753" type="line"/>
      <point x="163.24418604651163" y="1238.7558139534883"/>
      <point x="119.98062015503876" y="1225.7558139534883"/>
      <point x="149.30620155038758" y="1207.8992248062016" type="curve" smooth="yes"/>
      <point x="156.1627906976744" y="1204.124031007752"/>
      <point x="252.91860465116278" y="1188.531007751938"/>
    </contour>
    <contour>
      <point x="543.4457364341085" y="980.2480620155038" type="curve" smooth="yes"/>
      <point x="573.7713178294574" y="963.3914728682171"/>
      <point x="564.1395348837209" y="1007.5736434108527"/>
      <point x="621.4651162790698" y="974.7170542635658" type="curve"/>
      <point x="629.9341085271318" y="989.2674418604652" type="line"/>
      <point x="572.6085271317829" y="1023.1240310077519"/>
      <point x="616.5658914728682" y="1036.124031007752"/>
      <point x="586.546511627907" y="1054.6744186046512" type="curve" smooth="yes"/>
      <point x="579.6899224806201" y="1057.7558139534883"/>
      <point x="482.9341085271318" y="1073.3488372093022"/>
      <point x="373.5891472868217" y="1140.9186046511627" type="curve"/>
      <point x="361.56976744186045" y="1121.65503875969" type="line"/>
      <point x="475.3837209302326" y="1060.0232558139535"/>
      <point x="536.5891472868217" y="984.0232558139535"/>
    </contour>
    <contour>
      <point x="356.40697674418607" y="1131.2868217054263" type="curve"/>
      <point x="379.44573643410854" y="1131.2868217054263" type="line"/>
      <point x="375.2829457364341" y="1259.7945736434108"/>
      <point x="410.52713178294573" y="1340.0813953488373"/>
      <point x="410.52713178294573" y="1358.937984496124" type="curve" smooth="yes"/>
      <point x="410.52713178294573" y="1381.6511627906978"/>
      <point x="376.8953488372093" y="1362.468992248062"/>
      <point x="376.8953488372093" y="1429.1821705426357" type="curve"/>
      <point x="358.9573643410853" y="1429.1821705426357" type="line"/>
      <point x="358.9573643410853" y="1362.468992248062"/>
      <point x="325.3255813953488" y="1380.9573643410852"/>
      <point x="325.3255813953488" y="1358.937984496124" type="curve" smooth="yes"/>
      <point x="325.3255813953488" y="1340.0813953488373"/>
      <point x="360.56976744186045" y="1260.4883720930231"/>
    </contour>
  </outline>
</glyph>
<glyph name="plus" format="2">
  <advance width="967.9147286821706"/>
  <unicode hex="002B"/>
  <note>
plus
</note>
  <outline>
    <contour>
      <point x="81.3875968992248" y="617.0658914728682" type="line"/>
      <point x="886.5271317829457" y="617.0658914728682" type="line"/>
      <point x="886.5271317829457" y="717.546511627907" type="line"/>
      <point x="81.3875968992248" y="717.546511627907" type="line"/>
    </contour>
    <contour>
      <point x="448.98062015503876" y="264.73643410852713" type="line"/>
      <point x="518.9341085271318" y="264.73643410852713" type="line"/>
      <point x="518.9341085271318" y="1069.875968992248" type="line"/>
      <point x="448.98062015503876" y="1069.875968992248" type="line"/>
    </contour>
  </outline>
</glyph>
<glyph name="comma" format="2">
  <advance width="451.0736434108527"/>
  <unicode hex="002C"/>
  <note>
comma
</note>
  <outline>
    <contour>
      <point x="139.2248062015504" y="-168.1201550387597" type="curve"/>
      <point x="214.87209302325581" y="-168.1201550387597" type="line"/>
      <point x="258.8914728682171" y="-68.40697674418604"/>
      <point x="306.4612403100775" y="50.42635658914729"/>
      <point x="325.84883720930236" y="157.36434108527132" type="curve"/>
      <point x="207.95736434108528" y="157.36434108527132" type="line"/>
      <point x="171.32558139534885" y="72.40697674418604"/>
      <point x="149.46899224806202" y="-73.06201550387597"/>
    </contour>
  </outline>
</glyph>
<glyph name="hyphen" format="2">
  <advance width="584.5193798449612"/>
  <unicode hex="002D"/>
  <note>
hyphen
</note>
  <outline>
    <contour>
      <point x="61.83720930232558" y="444.1046511627907" type="line"/>
      <point x="466.9922480620155" y="444.1046511627907" type="line"/>
      <point x="523.3759689922481" y="569.3217054263566" type="line"/>
      <point x="116.83333333333333" y="569.3217054263566" type="line"/>
    </contour>
  </outline>
</glyph>
<glyph name="period" format="2">
  <advance width="403.84883720930236"/>
  <unicode hex="002E"/>
  <note>
period
</note>
  <outline>
    <contour>
      <point x="201.07751937984497" y="-8.449612403100776" type="curve" smooth="yes"/>
      <point x="244.11627906976744" y="-8.449612403100776"/>
      <point x="283.23643410852713" y="24.426356589147286"/>
      <point x="283.23643410852713" y="74.01550387596899" type="curve" smooth="yes"/>
      <point x="283.23643410852713" y="124.2984496124031"/>
      <point x="244.11627906976744" y="156.86821705426357"/>
      <point x="201.07751937984497" y="156.86821705426357" type="curve" smooth="yes"/>
      <point x="158.7325581395349" y="156.86821705426357"/>
      <point x="119.6124031007752" y="123.6046511627907"/>
      <point x="119.6124031007752" y="74.01550387596899" type="curve" smooth="yes"/>
      <point x="119.6124031007752" y="24.426356589147286"/>
      <point x="158.03875968992247" y="-8.449612403100776"/>
    </contour>
  </outline>
</glyph>
<glyph name="slash" format="2">
  <advance width="563.0968992248062"/>
  <unicode hex="002F"/>
  <note>
slash
</note>
  <outline>
    <contour>
      <point x="6.612403100775197" y="-403.9186046511628" type="line"/>
      <point x="75.07751937984497" y="-403.9186046511628" type="line"/>
      <point x="556.484496124031" y="1498.0" type="line"/>
      <point x="488.01937984496124" y="1498.0" type="line"/>
    </contour>
  </outline>
</glyph>
<glyph name="zero" format="2">
  <advance width="1318.7248062015503"/>
  <unicode hex="0030"/>
  <note>
zero
</note>
  <anchor x="652.077519379845" y="716.0" name="center"/>
  <outline>
    <contour>
      <point x="659.015503875969" y="-26.08139534883721" type="curve" smooth="yes"/>
      <point x="991.5232558139535" y="-26.08139534883721"/>
      <point x="1236.8062015503876" y="271.8565891472868"/>
      <point x="1236.8062015503876" y="716.0" type="curve" smooth="yes"/>
      <point x="1236.8062015503876" y="1151.8178294573643"/>
      <point x="983.8914728682171" y="1457.7751937984497"/>
      <point x="659.015503875969" y="1457.7751937984497" type="curve" smooth="yes"/>
      <point x="333.44573643410854" y="1457.7751937984497"/>
      <point x="81.9186046511628" y="1152.5116279069769"/>
      <point x="81.9186046511628" y="716.0" type="curve" smooth="yes"/>
      <point x="81.9186046511628" y="274.63178294573646"/>
      <point x="329.2829457364341" y="-26.08139534883721"/>
    </contour>
    <contour>
      <point x="659.015503875969" y="37.30232558139535" type="curve" smooth="yes"/>
      <point x="416.4612403100775" y="37.30232558139535"/>
      <point x="231.56201550387595" y="312.44573643410854"/>
      <point x="231.56201550387595" y="716.0" type="curve" smooth="yes"/>
      <point x="231.56201550387595" y="1118.860465116279"/>
      <point x="416.4612403100775" y="1394.391472868217"/>
      <point x="659.015503875969" y="1394.391472868217" type="curve" smooth="yes"/>
      <point x="902.2635658914729" y="1394.391472868217"/>
      <point x="1087.8565891472867" y="1118.1666666666667"/>
      <point x="1087.8565891472867" y="716.0" type="curve" smooth="yes"/>
      <point x="1087.8565891472867" y="313.8333333333333"/>
      <point x="902.9573643410853" y="37.30232558139535"/>
    </contour>
  </outline>
</glyph>
<glyph name="one" format="2">
  <advance width="564.2751937984497"/>
  <unicode hex="0031"/>
  <note>
one
</note>
  <outline>
    <contour>
      <point x="246.40697674418604" y="0.0" type="line"/>
      <point x="399.66279069767444" y="0.0" type="line"/>
      <point x="399.66279069767444" y="1457.2248062015503" type="line"/>
      <point x="349.95348837209303" y="1457.2248062015503" type="line"/>
      <point x="23.612403100775197" y="981.4341085271318" type="line"/>
      <point x="44.79457364341086" y="962.5581395348837" type="line"/>
      <point x="274.6317829457364" y="1287.3178294573643" type="line"/>
      <point x="246.40697674418604" y="1264.968992248062" type="line"/>
    </contour>
  </outline>
</glyph>
<glyph name="two" format="2">
  <advance width="1055.3178294573643"/>
  <unicode hex="0032"/>
  <note>
two
</note>
  <outline>
    <contour>
      <point x="43.6124031007752" y="0.0" type="line"/>
      <point x="985.7054263565891" y="0.0" type="line"/>
      <point x="985.7054263565891" y="128.97286821705427" type="line"/>
      <point x="182.52325581395348" y="129.97286821705427" type="line"/>
      <point x="147.52325581395348" y="68.15891472868216" type="line"/>
      <point x="316.984496124031" y="201.31782945736433"/>
      <point x="575.031007751938" y="439.16279069767444"/>
      <point x="712.7054263565891" y="591.6744186046511" type="curve" smooth="yes"/>
      <point x="826.1201550387597" y="716.6821705426357"/>
      <point x="965.7674418604652" y="840.2131782945737"/>
      <point x="965.7674418604652" y="1041.1666666666667" type="curve" smooth="yes"/>
      <point x="965.7674418604652" y="1263.5736434108528"/>
      <point x="819.5426356589147" y="1461.3875968992247"/>
      <point x="545.9341085271318" y="1461.3875968992247" type="curve" smooth="yes"/>
      <point x="297.4263565891473" y="1461.3875968992247"/>
      <point x="93.85658914728683" y="1272.8372093023256"/>
      <point x="93.85658914728683" y="1027.8372093023256" type="curve" smooth="yes"/>
      <point x="93.85658914728683" y="1011.4496124031008"/>
      <point x="95.55038759689923" y="1006.6937984496124"/>
      <point x="97.93798449612403" y="987.6744186046511" type="curve"/>
      <point x="234.84883720930233" y="992.7558139534884" type="line"/>
      <point x="234.84883720930233" y="1005.1434108527131" type="line" smooth="yes"/>
      <point x="234.84883720930233" y="1233.922480620155"/>
      <point x="337.87209302325584" y="1418.2480620155038"/>
      <point x="533.6899224806201" y="1418.2480620155038" type="curve" smooth="yes"/>
      <point x="670.6937984496124" y="1418.2480620155038"/>
      <point x="805.8372093023256" y="1349.9186046511627"/>
      <point x="805.8372093023256" y="1064.0" type="curve" smooth="yes"/>
      <point x="805.8372093023256" y="854.546511627907"/>
      <point x="668.0968992248062" y="611.9573643410853"/>
      <point x="405.85271317829455" y="353.5077519379845" type="curve" smooth="yes"/>
    </contour>
  </outline>
</glyph>
<glyph name="three" format="2">
  <advance width="1059.7054263565892"/>
  <unicode hex="0033"/>
  <note>
three
</note>
  <outline>
    <contour>
      <point x="496.3837209302326" y="-29.531007751937985" type="curve" smooth="yes"/>
      <point x="788.6046511627907" y="-29.531007751937985"/>
      <point x="978.4806201550388" y="156.3875968992248"/>
      <point x="978.4806201550388" y="383.5503875968992" type="curve" smooth="yes"/>
      <point x="978.4806201550388" y="611.3875968992248"/>
      <point x="808.9496124031008" y="741.0"/>
      <point x="610.7674418604652" y="779.2635658914729" type="curve"/>
      <point x="665.4341085271318" y="749.6744186046511" type="line"/>
      <point x="771.7248062015503" y="773.1627906976744"/>
      <point x="941.5426356589147" y="873.0813953488372"/>
      <point x="941.5426356589147" y="1093.7558139534883" type="curve" smooth="yes"/>
      <point x="941.5426356589147" y="1288.531007751938"/>
      <point x="790.5232558139535" y="1457.7751937984497"/>
      <point x="530.3837209302326" y="1457.7751937984497" type="curve" smooth="yes"/>
      <point x="289.468992248062" y="1457.7751937984497"/>
      <point x="100.0" y="1315.062015503876"/>
      <point x="85.3062015503876" y="1084.5503875968993" type="curve"/>
      <point x="223.91085271317831" y="1087.8565891472867" type="line"/>
      <point x="226.68604651162792" y="1274.2713178294573"/>
      <point x="340.68992248062017" y="1413.9418604651162"/>
      <point x="526.3837209302326" y="1413.9418604651162" type="curve" smooth="yes"/>
      <point x="733.8139534883721" y="1413.9418604651162"/>
      <point x="792.1627906976744" y="1248.9418604651162"/>
      <point x="792.1627906976744" y="1092.9806201550387" type="curve" smooth="yes"/>
      <point x="792.1627906976744" y="882.3062015503876"/>
      <point x="703.5697674418604" y="776.7131782945736"/>
      <point x="501.68992248062017" y="776.7131782945736" type="curve" smooth="yes"/>
      <point x="311.63178294573646" y="776.7131782945736" type="line"/>
      <point x="311.63178294573646" y="748.6744186046511" type="line"/>
      <point x="505.68992248062017" y="748.6744186046511" type="line" smooth="yes"/>
      <point x="703.1007751937984" y="748.6744186046511"/>
      <point x="808.7751937984497" y="600.7558139534884"/>
      <point x="808.7751937984497" y="381.63178294573646" type="curve" smooth="yes"/>
      <point x="808.7751937984497" y="162.75193798449612"/>
      <point x="684.1201550387597" y="10.220930232558139"/>
      <point x="502.3837209302326" y="10.220930232558139" type="curve" smooth="yes"/>
      <point x="319.42248062015506" y="10.220930232558139"/>
      <point x="209.46124031007753" y="162.5077519379845"/>
      <point x="209.46124031007753" y="350.16279069767444" type="curve" smooth="yes"/>
      <point x="209.46124031007753" y="357.6937984496124" type="line"/>
      <point x="57.91860465116279" y="361.6937984496124" type="line"/>
      <point x="57.91860465116279" y="342.24418604651163" type="line" smooth="yes"/>
      <point x="57.91860465116279" y="105.0813953488372"/>
      <point x="245.24418604651163" y="-29.531007751937985"/>
    </contour>
  </outline>
</glyph>
<glyph name="four" format="2">
  <advance width="1032.8875968992247"/>
  <unicode hex="0034"/>
  <note>
four
</note>
  <outline>
    <contour>
      <point x="665.8953488372093" y="0.0" type="line"/>
      <point x="817.031007751938" y="0.0" type="line"/>
      <point x="817.031007751938" y="396.16279069767444" type="line"/>
      <point x="721.2984496124031" y="334.9612403100775" type="line"/>
      <point x="1011.8875968992248" y="334.9612403100775" type="line"/>
      <point x="1011.8875968992248" y="392.1395348837209" type="line"/>
      <point x="721.2984496124031" y="392.1395348837209" type="line"/>
      <point x="817.031007751938" y="318.4922480620155" type="line"/>
      <point x="817.031007751938" y="865.2906976744187" type="line"/>
      <point x="665.8953488372093" y="865.2906976744187" type="line"/>
      <point x="665.8953488372093" y="318.4922480620155" type="line"/>
      <point x="725.7093023255813" y="392.1395348837209" type="line"/>
      <point x="74.93410852713178" y="392.1395348837209" type="line"/>
      <point x="107.44186046511628" y="360.0" type="line"/>
      <point x="314.0348837209302" y="637.0193798449612"/>
      <point x="584.6046511627907" y="1092.2403100775193"/>
      <point x="722.8682170542636" y="1436.406976744186" type="curve"/>
      <point x="573.2829457364342" y="1449.406976744186" type="line"/>
      <point x="460.0813953488372" y="1053.7519379844962"/>
      <point x="203.2674418604651" y="614.4302325581396"/>
      <point x="21.918604651162795" y="334.9612403100775" type="curve"/>
      <point x="725.7093023255813" y="334.9612403100775" type="line"/>
      <point x="665.8953488372093" y="396.16279069767444" type="line"/>
    </contour>
  </outline>
</glyph>
<glyph name="five" format="2">
  <advance width="956.5232558139535"/>
  <unicode hex="0035"/>
  <note>
five
</note>
  <outline>
    <contour>
      <point x="436.19767441860466" y="-30.468992248062015" type="curve" smooth="yes"/>
      <point x="722.6240310077519" y="-30.468992248062015"/>
      <point x="888.6046511627907" y="167.32558139534885"/>
      <point x="888.6046511627907" y="436.0" type="curve" smooth="yes"/>
      <point x="888.6046511627907" y="755.5503875968992"/>
      <point x="634.546511627907" y="889.2441860465117"/>
      <point x="450.2403100775194" y="889.2441860465117" type="curve" smooth="yes"/>
      <point x="333.5077519379845" y="889.2441860465117"/>
      <point x="228.75193798449612" y="837.6744186046511"/>
      <point x="154.75193798449612" y="787.4922480620155" type="curve"/>
      <point x="172.9341085271318" y="794.0426356589147" type="line"/>
      <point x="290.22093023255815" y="1347.391472868217" type="line"/>
      <point x="226.43023255813955" y="1279.8837209302326" type="line"/>
      <point x="805.7286821705426" y="1279.8837209302326" type="line"/>
      <point x="805.7286821705426" y="1430.0" type="line"/>
      <point x="244.36821705426357" y="1430.0" type="line"/>
      <point x="108.91860465116278" y="786.2054263565891" type="line"/>
      <point x="148.77131782945736" y="761.2286821705426" type="line"/>
      <point x="233.46511627906978" y="804.7790697674419"/>
      <point x="340.015503875969" y="839.0038759689922"/>
      <point x="415.7519379844961" y="839.0038759689922" type="curve" smooth="yes"/>
      <point x="598.2015503875969" y="839.0038759689922"/>
      <point x="732.1434108527131" y="702.1860465116279"/>
      <point x="732.1434108527131" y="426.28682170542635" type="curve" smooth="yes"/>
      <point x="732.1434108527131" y="201.3875968992248"/>
      <point x="673.0581395348837" y="20.077519379844965"/>
      <point x="435.3410852713178" y="20.077519379844965" type="curve" smooth="yes"/>
      <point x="287.54651162790697" y="20.077519379844965"/>
      <point x="144.18217054263567" y="87.09689922480621"/>
      <point x="55.55038759689923" y="227.7906976744186" type="curve"/>
      <point x="41.6124031007752" y="197.95736434108528" type="line"/>
      <point x="134.30620155038758" y="31.344961240310077"/>
      <point x="276.8953488372093" y="-30.468992248062015"/>
    </contour>
  </outline>
</glyph>
<glyph name="six" format="2">
  <advance width="1051.3410852713178"/>
  <unicode hex="0036"/>
  <note>
six
</note>
  <outline>
    <contour>
      <point x="529.3837209302326" y="-33.0" type="curve" smooth="yes"/>
      <point x="814.8720930232558" y="-36.6124031007752"/>
      <point x="997.7286821705426" y="163.8372093023256"/>
      <point x="997.7286821705426" y="427.38759689922483" type="curve" smooth="yes"/>
      <point x="997.7286821705426" y="691.0193798449612"/>
      <point x="814.1162790697674" y="890.1821705426356"/>
      <point x="553.6085271317829" y="890.1821705426356" type="curve" smooth="yes"/>
      <point x="365.13565891472865" y="890.1821705426356"/>
      <point x="226.36046511627907" y="749.7713178294574"/>
      <point x="157.75193798449612" y="575.484496124031" type="curve"/>
      <point x="207.05426356589146" y="512.5658914728682" type="line"/>
      <point x="212.2170542635659" y="691.6705426356589"/>
      <point x="217.05426356589146" y="732.7984496124031"/>
      <point x="229.22093023255815" y="825.0658914728682" type="curve" smooth="yes"/>
      <point x="330.30232558139534" y="1112.9612403100775"/>
      <point x="461.9767441860465" y="1292.0232558139535"/>
      <point x="754.3449612403101" y="1387.6162790697674" type="curve"/>
      <point x="752.9573643410853" y="1449.2635658914728" type="line"/>
      <point x="481.3914728682171" y="1392.7325581395348"/>
      <point x="315.08527131782944" y="1244.6744186046512"/>
      <point x="185.69767441860466" y="1010.0852713178294" type="curve" smooth="yes"/>
      <point x="140.1627906976744" y="876.5542635658915"/>
      <point x="75.91860465116278" y="741.9186046511628"/>
      <point x="75.91860465116278" y="517.4496124031008" type="curve" smooth="yes"/>
      <point x="75.91860465116278" y="186.87596899224806"/>
      <point x="232.16279069767444" y="-29.6937984496124"/>
    </contour>
    <contour>
      <point x="543.2209302325581" y="24.015503875968996" type="curve" smooth="yes"/>
      <point x="316.13565891472865" y="27.321705426356587"/>
      <point x="222.15503875968994" y="238.79457364341084"/>
      <point x="224.7674418604651" y="460.61240310077517" type="curve" smooth="yes"/>
      <point x="226.3798449612403" y="615.5736434108527"/>
      <point x="344.64728682170545" y="829.6976744186046"/>
      <point x="558.0581395348837" y="829.6976744186046" type="curve" smooth="yes"/>
      <point x="771.7364341085272" y="829.6976744186046"/>
      <point x="851.6550387596899" y="610.1007751937984"/>
      <point x="851.6550387596899" y="433.63178294573646" type="curve" smooth="yes"/>
      <point x="851.6550387596899" y="256.5891472868217"/>
      <point x="785.1627906976744" y="20.4031007751938"/>
    </contour>
  </outline>
</glyph>
<glyph name="seven" format="2">
  <advance width="945.6434108527131"/>
  <unicode hex="0037"/>
  <note>
seven
</note>
  <outline>
    <contour>
      <point x="254.5077519379845" y="0.0" type="curve"/>
      <point x="413.5813953488372" y="0.0" type="line"/>
      <point x="480.1511627906977" y="543.6937984496124"/>
      <point x="687.4767441860465" y="1065.4263565891472"/>
      <point x="922.031007751938" y="1418.0813953488373" type="curve"/>
      <point x="30.0" y="1418.0813953488373" type="line"/>
      <point x="30.0" y="1266.577519379845" type="line"/>
      <point x="799.077519379845" y="1266.577519379845" type="line"/>
      <point x="807.0387596899225" y="1345.1860465116279" type="line"/>
      <point x="570.1782945736434" y="1043.3023255813953"/>
      <point x="374.484496124031" y="539.3449612403101"/>
    </contour>
  </outline>
</glyph>
<glyph name="eight" format="2">
  <advance width="1016.9922480620155"/>
  <unicode hex="0038"/>
  <note>
eight
</note>
  <outline>
    <contour>
      <point x="482.8953488372093" y="-31.6937984496124" type="curve" smooth="yes"/>
      <point x="752.7286821705426" y="-31.6937984496124"/>
      <point x="946.3798449612403" y="145.08139534883722"/>
      <point x="946.3798449612403" y="385.1007751937984" type="curve" smooth="yes"/>
      <point x="946.3798449612403" y="597.2635658914729"/>
      <point x="805.7480620155038" y="720.5697674418604"/>
      <point x="570.8527131782946" y="807.4263565891473" type="curve" smooth="yes"/>
      <point x="313.78682170542635" y="908.5503875968992"/>
      <point x="271.6046511627907" y="1019.3062015503876"/>
      <point x="271.6046511627907" y="1114.3062015503876" type="curve" smooth="yes"/>
      <point x="271.6046511627907" y="1286.3488372093022"/>
      <point x="356.8914728682171" y="1396.7170542635658"/>
      <point x="507.87209302325584" y="1401.7170542635658" type="curve" smooth="yes"/>
      <point x="667.3217054263566" y="1406.7170542635658"/>
      <point x="787.7325581395348" y="1297.4922480620155"/>
      <point x="787.7325581395348" y="1115.2248062015503" type="curve" smooth="yes"/>
      <point x="787.7325581395348" y="996.2441860465116"/>
      <point x="748.6279069767442" y="869.937984496124"/>
      <point x="483.84108527131787" y="823.937984496124" type="curve"/>
      <point x="566.484496124031" y="798.8992248062016" type="line"/>
      <point x="787.0542635658915" y="846.6550387596899"/>
      <point x="878.9728682170543" y="963.1046511627907"/>
      <point x="872.9728682170543" y="1122.8992248062016" type="curve" smooth="yes"/>
      <point x="866.9728682170543" y="1296.6744186046512"/>
      <point x="730.8914728682171" y="1443.7751937984497"/>
      <point x="510.4651162790698" y="1443.7751937984497" type="curve" smooth="yes"/>
      <point x="302.8759689922481" y="1443.0813953488373"/>
      <point x="134.6124031007752" y="1323.1434108527133"/>
      <point x="134.6124031007752" y="1102.8178294573643" type="curve" smooth="yes"/>
      <point x="134.6124031007752" y="943.0232558139535"/>
      <point x="206.0" y="828.8410852713179"/>
      <point x="397.12015503875966" y="753.6782945736434" type="curve" smooth="yes"/>
      <point x="743.7558139534883" y="610.7790697674419"/>
      <point x="800.3062015503876" y="499.59302325581393"/>
      <point x="800.3062015503876" y="358.0" type="curve" smooth="yes"/>
      <point x="800.3062015503876" y="137.79457364341084"/>
      <point x="649.8565891472869" y="11.751937984496124"/>
      <point x="470.34496124031006" y="11.751937984496124" type="curve" smooth="yes"/>
      <point x="251.36434108527132" y="11.751937984496124"/>
      <point x="166.4031007751938" y="197.81395348837208"/>
      <point x="166.4031007751938" y="368.83720930232556" type="curve" smooth="yes"/>
      <point x="165.7093023255814" y="541.6550387596899"/>
      <point x="237.2015503875969" y="717.4922480620155"/>
      <point x="430.0968992248062" y="766.9806201550388" type="curve"/>
      <point x="389.38759689922483" y="784.3875968992248" type="line"/>
      <point x="197.6124031007752" y="747.3255813953489"/>
      <point x="75.6124031007752" y="564.7131782945736"/>
      <point x="75.6124031007752" y="374.24418604651163" type="curve" smooth="yes"/>
      <point x="75.6124031007752" y="164.2248062015504"/>
      <point x="198.14341085271317" y="-31.6937984496124"/>
    </contour>
  </outline>
</glyph>
<glyph name="nine" format="2">
  <advance width="1051.0348837209303"/>
  <unicode hex="0039"/>
  <note>
nine
</note>
  <outline>
    <contour>
      <point x="262.3062015503876" y="-38.55038759689923" type="line"/>
      <point x="444.7519379844961" y="-2.4069767441860463"/>
      <point x="559.5697674418604" y="38.065891472868216"/>
      <point x="675.9767441860465" y="152.92248062015503" type="curve" smooth="yes"/>
      <point x="732.6899224806201" y="205.77906976744185"/>
      <point x="783.6279069767442" y="275.2674418604651"/>
      <point x="824.7093023255813" y="342.3488372093023" type="curve" smooth="yes"/>
      <point x="915.3410852713179" y="486.28682170542635"/>
      <point x="975.422480620155" y="662.5503875968992"/>
      <point x="975.422480620155" y="893.2635658914729" type="curve" smooth="yes"/>
      <point x="975.422480620155" y="1223.8372093023256"/>
      <point x="818.484496124031" y="1440.406976744186"/>
      <point x="521.9573643410853" y="1443.7131782945737" type="curve" smooth="yes"/>
      <point x="246.18217054263567" y="1447.3255813953488"/>
      <point x="53.6124031007752" y="1246.875968992248"/>
      <point x="53.6124031007752" y="980.5503875968992" type="curve" smooth="yes"/>
      <point x="53.6124031007752" y="710.6744186046511"/>
      <point x="243.46899224806202" y="511.51162790697674"/>
      <point x="497.0387596899225" y="511.51162790697674" type="curve" smooth="yes"/>
      <point x="686.2054263565891" y="511.51162790697674"/>
      <point x="815.9612403100775" y="656.7790697674419"/>
      <point x="893.5891472868217" y="835.922480620155" type="curve"/>
      <point x="840.8178294573644" y="898.1472868217054" type="line"/>
      <point x="839.1240310077519" y="732.2248062015503"/>
      <point x="845.3875968992248" y="688.3217054263566"/>
      <point x="833.2209302325582" y="596.7480620155038" type="curve" smooth="yes"/>
      <point x="732.1395348837209" y="308.8527131782946"/>
      <point x="602.546511627907" y="129.7906976744186"/>
      <point x="274.1007751937984" y="37.666666666666664" type="curve"/>
    </contour>
    <contour>
      <point x="493.2829457364341" y="576.8527131782946" type="curve" smooth="yes"/>
      <point x="280.2984496124031" y="576.8527131782946"/>
      <point x="202.46124031007753" y="800.6124031007752"/>
      <point x="202.46124031007753" y="974.3062015503876" type="curve" smooth="yes"/>
      <point x="202.46124031007753" y="1152.7364341085272"/>
      <point x="267.5658914728682" y="1388.922480620155"/>
      <point x="508.12015503875966" y="1384.6162790697674" type="curve" smooth="yes"/>
      <point x="733.8178294573644" y="1382.0038759689924"/>
      <point x="825.7170542635658" y="1165.6744186046512"/>
      <point x="823.1046511627907" y="947.3255813953489" type="curve" smooth="yes"/>
      <point x="821.4922480620155" y="790.9767441860465"/>
      <point x="703.9186046511628" y="576.8527131782946"/>
    </contour>
  </outline>
</glyph>
<glyph name="greater" format="2">
  <advance width="967.9147286821706"/>
  <unicode hex="003E"/>
  <note>
greater
</note>
  <outline>
    <contour>
      <point x="81.3875968992248" y="318.86434108527135" type="line"/>
      <point x="852.6860465116279" y="653.8604651162791" type="line"/>
      <point x="852.6860465116279" y="712.0581395348837" type="line"/>
      <point x="81.3875968992248" y="1045.0542635658915" type="line"/>
      <point x="81.3875968992248" y="952.6937984496124" type="line"/>
      <point x="708.9186046511628" y="682.3062015503876" type="line"/>
      <point x="81.3875968992248" y="411.2248062015504" type="line"/>
    </contour>
  </outline>
</glyph>
<glyph name="question" format="2">
  <advance width="910.7480620155038"/>
  <unicode hex="003F"/>
  <note>
question
</note>
  <outline>
    <contour>
      <point x="395.79457364341084" y="398.2751937984496" type="curve"/>
      <point x="463.07751937984494" y="398.2751937984496" type="line"/>
      <point x="440.8527131782946" y="394.91472868217056"/>
      <point x="410.8333333333333" y="539.484496124031"/>
      <point x="410.8333333333333" y="598.5891472868217" type="curve" smooth="yes"/>
      <point x="410.8333333333333" y="972.546511627907"/>
      <point x="843.6046511627907" y="874.531007751938"/>
      <point x="843.6046511627907" y="1177.5116279069769" type="curve" smooth="yes"/>
      <point x="843.6046511627907" y="1394.8372093023256"/>
      <point x="643.0968992248062" y="1462.0"/>
      <point x="428.7325581395349" y="1462.0" type="curve" smooth="yes"/>
      <point x="161.6124031007752" y="1462.0"/>
      <point x="62.83720930232558" y="1354.0"/>
      <point x="62.83720930232558" y="1174.7558139534883" type="curve" smooth="yes"/>
      <point x="62.83720930232558" y="1156.062015503876"/>
      <point x="63.83720930232558" y="1138.1434108527133"/>
      <point x="65.83720930232559" y="1111.5736434108528" type="curve"/>
      <point x="210.42248062015506" y="1111.5736434108528" type="line"/>
      <point x="199.5658914728682" y="1160.8565891472867"/>
      <point x="196.17829457364343" y="1198.5697674418604"/>
      <point x="196.17829457364343" y="1205.0" type="curve" smooth="yes"/>
      <point x="196.17829457364343" y="1331.124031007752"/>
      <point x="271.85271317829455" y="1412.6162790697674"/>
      <point x="426.4263565891473" y="1412.6162790697674" type="curve" smooth="yes"/>
      <point x="553.3062015503876" y="1412.6162790697674"/>
      <point x="676.7558139534883" y="1341.6976744186047"/>
      <point x="676.7558139534883" y="1177.4496124031007" type="curve" smooth="yes"/>
      <point x="676.7558139534883" y="902.6705426356589"/>
      <point x="361.6317829457364" y="1025.3798449612402"/>
      <point x="361.6317829457364" y="594.5891472868217" type="curve" smooth="yes"/>
      <point x="361.6317829457364" y="544.3023255813954"/>
      <point x="366.8565891472868" y="422.42248062015506"/>
    </contour>
    <contour>
      <point x="431.12015503875966" y="-17.468992248062015" type="curve" smooth="yes"/>
      <point x="473.52713178294573" y="-17.468992248062015"/>
      <point x="506.54651162790697" y="22.48837209302326"/>
      <point x="506.54651162790697" y="71.44573643410853" type="curve" smooth="yes"/>
      <point x="506.54651162790697" y="119.7093023255814"/>
      <point x="472.52713178294573" y="158.36046511627907"/>
      <point x="431.12015503875966" y="158.36046511627907" type="curve" smooth="yes"/>
      <point x="389.71317829457365" y="158.36046511627907"/>
      <point x="355.6937984496124" y="119.7093023255814"/>
      <point x="355.6937984496124" y="71.44573643410853" type="curve" smooth="yes"/>
      <point x="355.6937984496124" y="22.48837209302326"/>
      <point x="388.71317829457365" y="-17.468992248062015"/>
    </contour>
  </outline>
</glyph>
<glyph name="at" format="2">
  <advance width="1704.5426356589148"/>
  <unicode hex="0040"/>
  <note>
at
</note>
  <outline>
    <contour>
      <point x="889.8333333333334" y="-34.16279069767442" type="curve" smooth="yes"/>
      <point x="1185.3410852713178" y="-34.16279069767442"/>
      <point x="1448.8488372093022" y="127.63178294573643"/>
      <point x="1583.093023255814" y="376.68992248062017" type="curve"/>
      <point x="1502.5271317829458" y="369.7519379844961" type="line"/>
      <point x="1377.9147286821706" y="157.75193798449612"/>
      <point x="1145.2209302325582" y="17.914728682170544"/>
      <point x="890.5271317829457" y="17.914728682170544" type="curve" smooth="yes"/>
      <point x="504.07751937984494" y="17.914728682170544"/>
      <point x="188.85271317829458" y="341.34496124031006"/>
      <point x="188.85271317829458" y="713.9186046511628" type="curve" smooth="yes"/>
      <point x="188.85271317829458" y="1085.8798449612402"/>
      <point x="504.07751937984494" y="1409.3100775193798"/>
      <point x="890.5271317829457" y="1409.3100775193798" type="curve" smooth="yes"/>
      <point x="1239.6705426356589" y="1409.3100775193798"/>
      <point x="1483.4263565891472" y="1192.7984496124031"/>
      <point x="1483.4263565891472" y="888.531007751938" type="curve" smooth="yes"/>
      <point x="1483.4263565891472" y="783.8372093023256"/>
      <point x="1464.1201550387598" y="689.6937984496124"/>
      <point x="1427.0387596899225" y="611.1627906976744" type="curve" smooth="yes"/>
      <point x="1380.4457364341085" y="495.2829457364341"/>
      <point x="1292.4651162790697" y="400.8139534883721"/>
      <point x="1204.891472868217" y="380.0" type="curve" smooth="yes"/>
      <point x="1169.5232558139535" y="383.468992248062"/>
      <point x="1103.7054263565892" y="446.9186046511628"/>
      <point x="1109.4612403100775" y="510.55426356589146" type="curve"/>
      <point x="1257.4186046511627" y="1088.5697674418604" type="line"/>
      <point x="1119.468992248062" y="1088.5697674418604" type="line"/>
      <point x="1094.1821705426357" y="994.4418604651163" type="line"/>
      <point x="1059.8565891472867" y="1077.0581395348838"/>
      <point x="1015.468992248062" y="1108.5697674418604"/>
      <point x="904.4883720930233" y="1108.5697674418604" type="curve" smooth="yes"/>
      <point x="655.8372093023256" y="1108.5697674418604"/>
      <point x="452.77906976744185" y="836.5697674418604"/>
      <point x="452.77906976744185" y="591.3488372093024" type="curve" smooth="yes"/>
      <point x="452.77906976744185" y="420.00387596899225"/>
      <point x="558.3488372093024" y="309.6782945736434"/>
      <point x="735.8565891472869" y="309.6782945736434" type="curve" smooth="yes"/>
      <point x="841.5503875968992" y="309.6782945736434"/>
      <point x="911.6744186046511" y="348.04651162790697"/>
      <point x="993.8565891472869" y="478.17054263565893" type="curve"/>
      <point x="1015.4263565891473" y="369.1085271317829"/>
      <point x="1075.4263565891472" y="322.6782945736434"/>
      <point x="1155.5697674418604" y="322.6782945736434" type="curve" smooth="yes"/>
      <point x="1225.7325581395348" y="322.6782945736434"/>
      <point x="1291.9767441860465" y="348.7596899224806"/>
      <point x="1351.6899224806202" y="396.00387596899225" type="curve" smooth="yes"/>
      <point x="1412.0968992248063" y="443.2480620155039"/>
      <point x="1454.484496124031" y="497.1666666666667"/>
      <point x="1492.422480620155" y="569.4108527131783" type="curve" smooth="yes"/>
      <point x="1536.9728682170542" y="660.6550387596899"/>
      <point x="1561.0542635658915" y="769.4302325581396"/>
      <point x="1561.0542635658915" y="882.4496124031008" type="curve" smooth="yes"/>
      <point x="1561.0542635658915" y="1213.2248062015503"/>
      <point x="1289.6472868217054" y="1460.6937984496124"/>
      <point x="889.8333333333334" y="1460.6937984496124" type="curve" smooth="yes"/>
      <point x="459.1007751937984" y="1460.6937984496124"/>
      <point x="111.9186046511628" y="1127.3875968992247"/>
      <point x="111.9186046511628" y="713.9186046511628" type="curve" smooth="yes"/>
      <point x="111.9186046511628" y="299.1434108527132"/>
      <point x="458.40697674418607" y="-34.16279069767442"/>
    </contour>
    <contour>
      <point x="750.5503875968992" y="367.61240310077517" type="curve" smooth="yes"/>
      <point x="650.2209302325581" y="367.61240310077517"/>
      <point x="586.8100775193799" y="437.43023255813955"/>
      <point x="586.8100775193799" y="572.5736434108527" type="curve" smooth="yes"/>
      <point x="586.8100775193799" y="816.6162790697674"/>
      <point x="745.6279069767442" y="1056.7170542635658"/>
      <point x="916.9573643410853" y="1056.7170542635658" type="curve" smooth="yes"/>
      <point x="1012.8565891472869" y="1056.7170542635658"/>
      <point x="1048.6124031007753" y="988.6744186046511"/>
      <point x="1048.6124031007753" y="867.7558139534884" type="curve" smooth="yes"/>
      <point x="1048.6124031007753" y="694.4108527131783"/>
      <point x="937.8992248062016" y="367.61240310077517"/>
    </contour>
  </outline>
</glyph>
<glyph name="A" format="2">
  <advance width="1377.1356589147288"/>
  <unicode hex="0041"/>
  <note>
A
</note>
  <anchor x="657.2209302325582" y="20.813953488372093" name="bottom"/>
  <anchor x="1170.1046511627908" y="0.0" name="ogonek"/>
  <anchor x="657.2209302325582" y="1430.0" name="top"/>
  <outline>
    <contour>
      <point x="38.918604651162795" y="0.0" type="line"/>
      <point x="96.91472868217055" y="0.0" type="line"/>
      <point x="634.0" y="1262.9108527131782" type="line"/>
      <point x="629.4069767441861" y="1247.7480620155038" type="line"/>
      <point x="1149.7790697674418" y="0.0" type="line"/>
      <point x="1338.2170542635658" y="0.0" type="line"/>
      <point x="687.2209302325581" y="1481.1627906976744" type="line"/>
    </contour>
    <contour>
      <point x="242.75581395348837" y="415.02713178294573" type="line"/>
      <point x="1022.6317829457364" y="415.02713178294573" type="line"/>
      <point x="1004.062015503876" y="463.87984496124034" type="line"/>
      <point x="264.1007751937984" y="463.87984496124034" type="line"/>
    </contour>
  </outline>
</glyph>
<glyph name="B" format="2">
  <advance width="1258.1744186046512"/>
  <unicode hex="0042"/>
  <note>
B
</note>
  <anchor x="646.9147286821706" y="20.813953488372093" name="bottom"/>
  <anchor x="646.9147286821706" y="1430.0" name="top"/>
  <outline>
    <contour>
      <point x="172.6124031007752" y="0.0" type="line"/>
      <point x="569.5077519379845" y="0.0" type="line" smooth="yes"/>
      <point x="980.8488372093024" y="0.0"/>
      <point x="1170.562015503876" y="106.14341085271317"/>
      <point x="1170.562015503876" y="398.48837209302326" type="curve" smooth="yes"/>
      <point x="1170.562015503876" y="640.4883720930233"/>
      <point x="1035.4186046511627" y="770.3875968992248"/>
      <point x="703.4806201550388" y="768.7131782945736" type="curve"/>
      <point x="695.1550387596899" y="750.3682170542636" type="line"/>
      <point x="972.4806201550388" y="755.0"/>
      <point x="1120.9302325581396" y="874.9806201550388"/>
      <point x="1120.9302325581396" y="1062.2054263565892" type="curve" smooth="yes"/>
      <point x="1120.9302325581396" y="1284.8565891472867"/>
      <point x="928.4418604651163" y="1432.0813953488373"/>
      <point x="613.9573643410853" y="1432.0813953488373" type="curve" smooth="yes"/>
      <point x="172.6124031007752" y="1432.0813953488373" type="line"/>
    </contour>
    <contour>
      <point x="335.5" y="9.306201550387597" type="line"/>
      <point x="335.5" y="765.4069767441861" type="line"/>
      <point x="263.4418604651163" y="734.9612403100775" type="line"/>
      <point x="614.3643410852713" y="734.9612403100775" type="line" smooth="yes"/>
      <point x="841.3875968992248" y="734.9612403100775"/>
      <point x="980.7364341085271" y="695.6744186046511"/>
      <point x="980.7364341085271" y="406.01937984496124" type="curve" smooth="yes"/>
      <point x="980.7364341085271" y="175.75193798449612"/>
      <point x="893.3062015503876" y="44.689922480620154"/>
      <point x="570.6085271317829" y="44.689922480620154" type="curve" smooth="yes"/>
      <point x="227.69379844961242" y="44.689922480620154" type="line"/>
    </contour>
    <contour>
      <point x="335.5" y="749.8992248062016" type="line"/>
      <point x="335.5" y="1417.9186046511627" type="line"/>
      <point x="229.48837209302326" y="1387.391472868217" type="line"/>
      <point x="599.5077519379845" y="1387.391472868217" type="line" smooth="yes"/>
      <point x="888.4069767441861" y="1387.391472868217"/>
      <point x="933.1860465116279" y="1201.9031007751937"/>
      <point x="933.1860465116279" y="1054.4302325581396" type="curve" smooth="yes"/>
      <point x="933.1860465116279" y="822.937984496124"/>
      <point x="805.2441860465117" y="781.0387596899225"/>
      <point x="593.9573643410853" y="781.0387596899225" type="curve" smooth="yes"/>
      <point x="279.3992248062016" y="781.0387596899225" type="line"/>
    </contour>
  </outline>
</glyph>
<glyph name="C" format="2">
  <advance width="1485.7054263565892"/>
  <unicode hex="0043"/>
  <note>
C
</note>
  <anchor x="776.7519379844962" y="20.813953488372093" name="bottom"/>
  <anchor x="756.745" y="1430.0" name="top"/>
  <outline>
    <contour>
      <point x="832.7519379844962" y="-16.406976744186046" type="curve" smooth="yes"/>
      <point x="1097.3410852713178" y="-16.406976744186046"/>
      <point x="1285.2558139534883" y="107.71317829457364"/>
      <point x="1439.093023255814" y="335.7519379844961" type="curve"/>
      <point x="1293.7558139534883" y="335.7519379844961" type="line"/>
      <point x="1143.6937984496124" y="115.67054263565892"/>
      <point x="989.4883720930233" y="29.67054263565892"/>
      <point x="835.9767441860465" y="29.67054263565892" type="curve" smooth="yes"/>
      <point x="517.5038759689922" y="29.67054263565892"/>
      <point x="251.78682170542635" y="326.1007751937984"/>
      <point x="251.78682170542635" y="715.9186046511628" type="curve" smooth="yes"/>
      <point x="251.78682170542635" y="1115.0426356589148"/>
      <point x="523.8914728682171" y="1401.5542635658915"/>
      <point x="831.0581395348837" y="1401.5542635658915" type="curve" smooth="yes"/>
      <point x="982.1821705426356" y="1401.5542635658915"/>
      <point x="1149.4496124031007" y="1315.9418604651162"/>
      <point x="1282.9806201550387" y="1096.0852713178294" type="curve"/>
      <point x="1420.5426356589148" y="1096.0852713178294" type="line"/>
      <point x="1295.6434108527133" y="1331.2674418604652"/>
      <point x="1076.1782945736434" y="1446.937984496124"/>
      <point x="831.6705426356589" y="1446.937984496124" type="curve" smooth="yes"/>
      <point x="428.26356589147287" y="1446.937984496124"/>
      <point x="77.91860465116278" y="1149.1434108527133"/>
      <point x="77.91860465116278" y="713.6124031007752" type="curve" smooth="yes"/>
      <point x="77.91860465116278" y="258.16279069767444"/>
      <point x="441.0387596899225" y="-16.406976744186046"/>
    </contour>
  </outline>
</glyph>
<glyph name="D" format="2">
  <advance width="1425.7674418604652"/>
  <unicode hex="0044"/>
  <note>
D
</note>
  <anchor x="720.546511627907" y="6.244186046511629" name="bottom"/>
  <anchor x="262.015503875969" y="715.0" name="center"/>
  <anchor x="720.546511627907" y="1430.0" name="top"/>
  <outline>
    <contour>
      <point x="172.6124031007752" y="0.0" type="line"/>
      <point x="554.2403100775193" y="0.0" type="line" smooth="yes"/>
      <point x="809.2364341085272" y="0.0"/>
      <point x="962.1976744186046" y="33.14341085271318"/>
      <point x="1100.15503875969" y="135.10077519379846" type="curve" smooth="yes"/>
      <point x="1244.5852713178294" y="243.32558139534882"/>
      <point x="1337.8488372093022" y="429.8565891472868"/>
      <point x="1337.8488372093022" y="716.3875968992248" type="curve" smooth="yes"/>
      <point x="1337.8488372093022" y="984.6744186046511"/>
      <point x="1257.8294573643411" y="1172.531007751938"/>
      <point x="1110.2170542635658" y="1285.2248062015503" type="curve" smooth="yes"/>
      <point x="964.3410852713179" y="1398.406976744186"/>
      <point x="791.0116279069767" y="1432.0813953488373"/>
      <point x="492.2403100775194" y="1432.0813953488373" type="curve" smooth="yes"/>
      <point x="172.6124031007752" y="1432.0813953488373" type="line"/>
    </contour>
    <contour>
      <point x="348.8062015503876" y="0.14341085271317766" type="line"/>
      <point x="348.8062015503876" y="1431.937984496124" type="line"/>
      <point x="240.1627906976744" y="1387.391472868217" type="line"/>
      <point x="509.34496124031006" y="1387.391472868217" type="line" smooth="yes"/>
      <point x="952.8372093023256" y="1387.391472868217"/>
      <point x="1157.5116279069769" y="1185.4302325581396"/>
      <point x="1157.5116279069769" y="721.0813953488372" type="curve" smooth="yes"/>
      <point x="1157.5116279069769" y="252.42635658914728"/>
      <point x="948.4496124031008" y="44.689922480620154"/>
      <point x="504.12015503875966" y="44.689922480620154" type="curve" smooth="yes"/>
      <point x="240.1627906976744" y="44.689922480620154" type="line"/>
    </contour>
  </outline>
</glyph>
<glyph name="E" format="2">
  <advance width="1162.0736434108528"/>
  <unicode hex="0045"/>
  <note>
E
</note>
  <anchor x="559.0581395348837" y="20.813953488372093" name="bottom"/>
  <anchor x="1014.6007751937984" y="0.0" name="ogonek"/>
  <anchor x="661.8333333333334" y="1430.0" name="top"/>
  <anchor x="-3.9806201550387588" y="1430.0" name="topleft"/>
  <outline>
    <contour>
      <point x="172.6124031007752" y="0.0" type="line"/>
      <point x="1093.3798449612402" y="0.0" type="line"/>
      <point x="1093.3798449612402" y="44.689922480620154" type="line"/>
      <point x="283.484496124031" y="44.689922480620154" type="line"/>
      <point x="349.5" y="5.224806201550388" type="line"/>
      <point x="349.5" y="755.1201550387597" type="line"/>
      <point x="238.26356589147287" y="707.0426356589147" type="line"/>
      <point x="1093.3798449612402" y="707.0426356589147" type="line"/>
      <point x="1093.3798449612402" y="751.7325581395348" type="line"/>
      <point x="283.484496124031" y="751.7325581395348" type="line"/>
      <point x="349.5" y="712.2674418604652" type="line"/>
      <point x="349.5" y="1424.0813953488373" type="line"/>
      <point x="239.1627906976744" y="1387.391472868217" type="line"/>
      <point x="1093.3798449612402" y="1387.391472868217" type="line"/>
      <point x="1093.3798449612402" y="1432.0813953488373" type="line"/>
      <point x="172.6124031007752" y="1432.0813953488373" type="line"/>
    </contour>
  </outline>
</glyph>
<glyph name="F" format="2">
  <advance width="1128.891472868217"/>
  <unicode hex="0046"/>
  <note>
F
</note>
  <anchor x="554.7325581395348" y="20.813953488372093" name="bottom"/>
  <anchor x="554.7325581395348" y="1430.0" name="top"/>
  <outline>
    <contour>
      <point x="172.6124031007752" y="0.0" type="line"/>
      <point x="349.5" y="0.0" type="line"/>
      <point x="349.5" y="696.7945736434109" type="line"/>
      <point x="223.0" y="651.4922480620155" type="line"/>
      <point x="1080.1976744186047" y="651.4922480620155" type="line"/>
      <point x="1080.1976744186047" y="695.4883720930233" type="line"/>
      <point x="243.93798449612405" y="695.4883720930233" type="line"/>
      <point x="349.5" y="655.3294573643411" type="line"/>
      <point x="349.5" y="1419.9186046511627" type="line"/>
      <point x="239.1627906976744" y="1387.391472868217" type="line"/>
      <point x="1080.1976744186047" y="1387.391472868217" type="line"/>
      <point x="1080.1976744186047" y="1432.0813953488373" type="line"/>
      <point x="172.6124031007752" y="1432.0813953488373" type="line"/>
    </contour>
  </outline>
</glyph>
<glyph name="G" format="2">
  <advance width="1599.9922480620155"/>
  <unicode hex="0047"/>
  <note>
G
</note>
  <anchor x="792.2209302325581" y="20.813953488372093" name="bottom"/>
  <anchor x="792.2209302325581" y="1430.0" name="top"/>
  <outline>
    <contour>
      <point x="818.6899224806201" y="-36.406976744186046" type="curve" smooth="yes"/>
      <point x="1212.953488372093" y="-36.406976744186046"/>
      <point x="1510.6860465116279" y="256.9186046511628"/>
      <point x="1551.3798449612402" y="626.0813953488372" type="curve"/>
      <point x="1374.0426356589148" y="626.0813953488372" type="line"/>
      <point x="1338.5116279069766" y="274.71317829457365"/>
      <point x="1097.2441860465117" y="7.426356589147289"/>
      <point x="817.9961240310078" y="10.201550387596896" type="curve"/>
      <point x="514.1356589147287" y="7.426356589147289"/>
      <point x="256.25581395348837" y="322.3255813953488"/>
      <point x="256.25581395348837" y="715.2248062015503" type="curve" smooth="yes"/>
      <point x="256.25581395348837" y="1113.8178294573643"/>
      <point x="521.4418604651163" y="1422.4108527131782"/>
      <point x="817.9961240310078" y="1420.3294573643411" type="curve"/>
      <point x="1008.1201550387597" y="1421.7170542635658"/>
      <point x="1183.2441860465117" y="1297.1046511627908"/>
      <point x="1285.531007751938" y="1098.2480620155038" type="curve"/>
      <point x="1452.7054263565892" y="1098.2480620155038" type="line"/>
      <point x="1335.1744186046512" y="1315.8992248062016"/>
      <point x="1090.5658914728683" y="1466.937984496124"/>
      <point x="817.9961240310078" y="1466.937984496124" type="curve" smooth="yes"/>
      <point x="396.8139534883721" y="1466.937984496124"/>
      <point x="78.91860465116278" y="1120.1434108527133"/>
      <point x="78.91860465116278" y="715.0" type="curve" smooth="yes"/>
      <point x="78.91860465116278" y="304.9186046511628"/>
      <point x="390.6511627906977" y="-36.406976744186046"/>
    </contour>
    <contour>
      <point x="857.3875968992248" y="581.3914728682171" type="line"/>
      <point x="1459.139534883721" y="581.3914728682171" type="line"/>
      <point x="1459.139534883721" y="626.0813953488372" type="line"/>
      <point x="857.3875968992248" y="626.0813953488372" type="line"/>
    </contour>
  </outline>
</glyph>
<glyph name="H" format="2">
  <advance width="1575.1782945736434"/>
  <unicode hex="0048"/>
  <note>
H
</note>
  <anchor x="782.5891472868217" y="20.813953488372093" name="bottom"/>
  <anchor x="782.5891472868217" y="715.0" name="center"/>
  <anchor x="782.5891472868217" y="1430.0" name="top"/>
  <anchor x="83.01937984496124" y="1430.0" name="topleft"/>
  <outline>
    <contour>
      <point x="172.6124031007752" y="0.0" type="line"/>
      <point x="343.9496124031008" y="0.0" type="line"/>
      <point x="343.9496124031008" y="762.8333333333334" type="line"/>
      <point x="259.24418604651163" y="711.0426356589147" type="line"/>
      <point x="1320.0968992248063" y="711.0426356589147" type="line"/>
      <point x="1230.5348837209303" y="762.8333333333334" type="line"/>
      <point x="1230.5348837209303" y="0.0" type="line"/>
      <point x="1402.5658914728683" y="0.0" type="line"/>
      <point x="1402.5658914728683" y="1432.0813953488373" type="line"/>
      <point x="1230.5348837209303" y="1432.0813953488373" type="line"/>
      <point x="1230.5348837209303" y="704.6356589147287" type="line"/>
      <point x="1320.0968992248063" y="756.4263565891473" type="line"/>
      <point x="259.24418604651163" y="756.4263565891473" type="line"/>
      <point x="343.9496124031008" y="704.6356589147287" type="line"/>
      <point x="343.9496124031008" y="1432.0813953488373" type="line"/>
      <point x="172.6124031007752" y="1432.0813953488373" type="line"/>
    </contour>
  </outline>
</glyph>
<glyph name="J" format="2">
  <advance width="765.7209302325582"/>
  <unicode hex="004A"/>
  <note>
J
</note>
  <anchor x="397.15503875968994" y="20.813953488372093" name="bottom"/>
  <anchor x="517.1550387596899" y="1430.0" name="top"/>
  <outline>
    <contour>
      <point x="29.3062015503876" y="-53.41085271317829" type="line"/>
      <point x="119.24418604651163" y="-120.28682170542636"/>
      <point x="196.015503875969" y="-155.08139534883722"/>
      <point x="280.9108527131783" y="-155.08139534883722" type="curve" smooth="yes"/>
      <point x="472.5387596899225" y="-155.08139534883722"/>
      <point x="599.4961240310078" y="14.689922480620154"/>
      <point x="599.4961240310078" y="338.7248062015504" type="curve" smooth="yes"/>
      <point x="599.4961240310078" y="1432.0813953488373" type="line"/>
      <point x="423.30232558139534" y="1432.0813953488373" type="line"/>
      <point x="423.30232558139534" y="216.03488372093022" type="line" smooth="yes"/>
      <point x="423.30232558139534" y="-75.47286821705427"/>
      <point x="310.72868217054264" y="-106.92248062015503"/>
      <point x="257.3410852713178" y="-106.92248062015503" type="curve" smooth="yes"/>
      <point x="183.99612403100775" y="-106.92248062015503"/>
      <point x="99.56976744186046" y="-52.127906976744185"/>
      <point x="29.3062015503876" y="19.441860465116278" type="curve"/>
    </contour>
  </outline>
</glyph>
<glyph name="K" format="2">
  <advance width="1430.906976744186"/>
  <unicode hex="004B"/>
  <note>
K
</note>
  <anchor x="657.6705426356589" y="20.813953488372093" name="bottom"/>
  <anchor x="657.6705426356589" y="1430.0" name="top"/>
  <outline>
    <contour>
      <point x="172.6124031007752" y="0.0" type="line"/>
      <point x="349.5" y="0.0" type="line"/>
      <point x="349.5" y="1432.0813953488373" type="line"/>
      <point x="172.6124031007752" y="1432.0813953488373" type="line"/>
    </contour>
    <contour>
      <point x="312.66279069767444" y="345.73643410852713" type="line"/>
      <point x="1304.8062015503876" y="1432.0813953488373" type="line"/>
      <point x="1215.8139534883721" y="1432.0813953488373" type="line"/>
      <point x="270.1395348837209" y="395.43023255813955" type="line"/>
    </contour>
    <contour>
      <point x="1213.7945736434108" y="0.0" type="line"/>
      <point x="1396.9883720930234" y="0.0" type="line"/>
      <point x="722.0077519379845" y="819.6705426356589" type="line"/>
      <point x="614.2596899224807" y="731.1240310077519" type="line"/>
    </contour>
  </outline>
</glyph>
<glyph name="L" format="2">
  <advance width="1066.6627906976744"/>
  <unicode hex="004C"/>
  <note>
L
</note>
  <anchor x="552.1782945736434" y="20.813953488372093" name="bottom"/>
  <anchor x="254.9341085271318" y="715.0" name="center"/>
  <anchor x="709.5813953488372" y="725.1007751937984" name="dot"/>
  <anchor x="991.7248062015503" y="10.0" name="ogonek"/>
  <anchor x="358.72868217054264" y="1430.0" name="top"/>
  <anchor x="8.918604651162788" y="1430.0" name="topleft"/>
  <anchor x="917.5232558139535" y="1430.0" name="topright"/>
  <outline>
    <contour>
      <point x="172.6124031007752" y="0.0" type="line"/>
      <point x="1038.3565891472867" y="0.0" type="line"/>
      <point x="1038.3565891472867" y="37.751937984496124" type="line"/>
      <point x="236.85658914728683" y="37.751937984496124" type="line"/>
      <point x="348.8062015503876" y="6.081395348837209" type="line"/>
      <point x="348.8062015503876" y="1430.0" type="line"/>
      <point x="172.6124031007752" y="1430.0" type="line"/>
    </contour>
  </outline>
</glyph>
<glyph name="M" format="2">
  <advance width="1821.9922480620155"/>
  <unicode hex="004D"/>
  <note>
M
</note>
  <anchor x="910.9961240310078" y="20.813953488372093" name="bottom"/>
  <anchor x="910.9961240310078" y="1430.0" name="top"/>
  <outline>
    <contour>
      <point x="171.6124031007752" y="0.0" type="line"/>
      <point x="246.13565891472868" y="0.0" type="line"/>
      <point x="246.13565891472868" y="1335.8255813953488" type="line"/>
      <point x="199.7325581395349" y="1317.9496124031007" type="line"/>
      <point x="890.8953488372093" y="-30.751937984496124" type="line"/>
      <point x="1524.0387596899225" y="1336.7015503875969" type="line"/>
      <point x="1469.9612403100775" y="1284.3178294573643" type="line"/>
      <point x="1469.9612403100775" y="0.0" type="line"/>
      <point x="1650.3798449612402" y="0.0" type="line"/>
      <point x="1650.3798449612402" y="1432.0813953488373" type="line"/>
      <point x="1480.124031007752" y="1432.0813953488373" type="line"/>
      <point x="898.7558139534883" y="179.17829457364343" type="line"/>
      <point x="974.5852713178294" y="209.74806201550388" type="line"/>
      <point x="349.1162790697674" y="1432.0813953488373" type="line"/>
      <point x="171.6124031007752" y="1432.0813953488373" type="line"/>
    </contour>
  </outline>
</glyph>
<glyph name="N" format="2">
  <advance width="1503.9767441860465"/>
  <unicode hex="004E"/>
  <note>
N
</note>
  <anchor x="752.4883720930233" y="20.813953488372093" name="bottom"/>
  <anchor x="752.4883720930233" y="1430.0" name="top"/>
  <outline>
    <contour>
      <point x="176.08139534883722" y="0.0" type="line"/>
      <point x="249.91085271317831" y="0.0" type="line"/>
      <point x="249.91085271317831" y="1279.422480620155" type="line"/>
      <point x="191.87596899224806" y="1238.1124031007753" type="line"/>
      <point x="1272.1666666666667" y="-24.0" type="line"/>
      <point x="1331.3643410852712" y="-24.0" type="line"/>
      <point x="1331.3643410852712" y="1432.0813953488373" type="line"/>
      <point x="1256.8410852713178" y="1432.0813953488373" type="line"/>
      <point x="1256.8410852713178" y="193.1124031007752" type="line"/>
      <point x="1307.7131782945737" y="193.25581395348837" type="line"/>
      <point x="226.64728682170542" y="1462.0813953488373" type="line"/>
      <point x="172.6124031007752" y="1462.0813953488373" type="line"/>
    </contour>
  </outline>
</glyph>
<glyph name="O" format="2">
  <advance width="1633.9108527131782"/>
  <unicode hex="004F"/>
  <note>
O
</note>
  <anchor x="817.3023255813954" y="6.244186046511629" name="bottom"/>
  <anchor x="817.3023255813954" y="715.0" name="center"/>
  <anchor x="1021.9108527131783" y="0.0" name="ogonek"/>
  <anchor x="817.3023255813954" y="1430.0" name="top"/>
  <anchor x="50.81395348837209" y="1430.0" name="topleft"/>
  <anchor x="1426.0387596899225" y="1430.0" name="topright"/>
  <outline>
    <contour>
      <point x="817.3023255813954" y="-36.406976744186046" type="curve" smooth="yes"/>
      <point x="1243.2596899224807" y="-36.406976744186046"/>
      <point x="1554.9922480620155" y="306.3062015503876"/>
      <point x="1554.9922480620155" y="712.9186046511628" type="curve" smooth="yes"/>
      <point x="1554.9922480620155" y="1120.531007751938"/>
      <point x="1241.5658914728683" y="1466.937984496124"/>
      <point x="817.3023255813954" y="1466.937984496124" type="curve" smooth="yes"/>
      <point x="394.7325581395349" y="1466.937984496124"/>
      <point x="78.91860465116278" y="1121.531007751938"/>
      <point x="78.91860465116278" y="712.9186046511628" type="curve" smooth="yes"/>
      <point x="78.91860465116278" y="306.3062015503876"/>
      <point x="392.0387596899225" y="-36.406976744186046"/>
    </contour>
    <contour>
      <point x="817.3023255813954" y="10.895348837209298" type="curve"/>
      <point x="514.1356589147287" y="8.120155038759691"/>
      <point x="256.25581395348837" y="323.01937984496124"/>
      <point x="256.25581395348837" y="714.531007751938" type="curve" smooth="yes"/>
      <point x="256.25581395348837" y="1112.4302325581396"/>
      <point x="521.4418604651163" y="1421.7170542635658"/>
      <point x="817.3023255813954" y="1420.3294573643411" type="curve"/>
      <point x="1113.1627906976744" y="1421.7170542635658"/>
      <point x="1378.3488372093022" y="1112.4302325581396"/>
      <point x="1378.3488372093022" y="714.531007751938" type="curve" smooth="yes"/>
      <point x="1378.3488372093022" y="322.3255813953488"/>
      <point x="1121.1627906976744" y="8.120155038759691"/>
    </contour>
  </outline>
</glyph>
<glyph name="P" format="2">
  <advance width="1155.1124031007753"/>
  <unicode hex="0050"/>
  <note>
P
</note>
  <anchor x="582.3837209302326" y="-34.689922480620154" name="bottom"/>
  <anchor x="582.3837209302326" y="1430.0" name="top"/>
  <outline>
    <contour>
      <point x="172.6124031007752" y="0.0" type="line"/>
      <point x="346.031007751938" y="0.0" type="line"/>
      <point x="346.031007751938" y="565.5116279069767" type="line"/>
      <point x="275.81007751937983" y="542.0038759689922" type="line"/>
      <point x="653.7054263565892" y="542.0038759689922" type="line" smooth="yes"/>
      <point x="760.7674418604652" y="542.0038759689922"/>
      <point x="862.9108527131783" y="585.3100775193799"/>
      <point x="951.2364341085272" y="661.6976744186046" type="curve" smooth="yes"/>
      <point x="1036.093023255814" y="735.3100775193799"/>
      <point x="1097.5" y="858.9612403100775"/>
      <point x="1097.5" y="982.6550387596899" type="curve" smooth="yes"/>
      <point x="1097.5" y="1106.65503875969"/>
      <point x="1039.9496124031007" y="1222.2868217054263"/>
      <point x="954.4806201550388" y="1299.6744186046512" type="curve" smooth="yes"/>
      <point x="859.2984496124031" y="1384.3062015503876"/>
      <point x="745.2170542635658" y="1432.0813953488373"/>
      <point x="621.7480620155038" y="1432.0813953488373" type="curve" smooth="yes"/>
      <point x="172.6124031007752" y="1432.0813953488373" type="line"/>
    </contour>
    <contour>
      <point x="346.031007751938" y="552.7790697674419" type="line"/>
      <point x="346.031007751938" y="1424.6937984496124" type="line"/>
      <point x="223.7751937984496" y="1392.2480620155038" type="line"/>
      <point x="636.3178294573643" y="1392.2480620155038" type="line" smooth="yes"/>
      <point x="786.5077519379845" y="1392.2480620155038"/>
      <point x="944.1627906976744" y="1207.0852713178294"/>
      <point x="944.1627906976744" y="975.4108527131783" type="curve" smooth="yes"/>
      <point x="944.1627906976744" y="771.4263565891473"/>
      <point x="784.4457364341085" y="585.3062015503876"/>
      <point x="636.3178294573643" y="585.3062015503876" type="curve" smooth="yes"/>
      <point x="302.1744186046512" y="585.3062015503876" type="line"/>
    </contour>
  </outline>
</glyph>
<glyph name="Q" format="2">
  <advance width="1633.9108527131782"/>
  <unicode hex="0051"/>
  <note>
Q
</note>
  <anchor x="813.3837209302326" y="31.914728682170544" name="bottom"/>
  <anchor x="813.3837209302326" y="1415.4302325581396" name="top"/>
  <anchor x="817.3023255813954" y="726.3064153100775" name="center"/>
  <anchor x="1021.9108527131783" y="7.794573643410853" name="ogonek"/>
  <anchor x="50.81395348837209" y="1444.8182569767441" name="topleft"/>
  <anchor x="1426.0387596899225" y="1444.8182569767441" name="topright"/>
  <outline>
    <contour>
      <point x="1113.7906976744187" y="-385.24418604651163" type="curve" smooth="yes"/>
      <point x="1185.3992248062016" y="-385.24418604651163"/>
      <point x="1215.3372093023256" y="-372.6937984496124"/>
      <point x="1229.1744186046512" y="-332.00387596899225" type="curve"/>
      <point x="1203.2984496124031" y="-332.00387596899225"/>
      <point x="1177.1162790697674" y="-332.00387596899225"/>
      <point x="1151.2403100775193" y="-332.00387596899225" type="curve" smooth="yes"/>
      <point x="901.6046511627907" y="-332.00387596899225"/>
      <point x="893.4806201550388" y="-301.4108527131783"/>
      <point x="893.4806201550388" y="-156.14341085271317" type="curve" smooth="yes"/>
      <point x="893.4806201550388" y="4.282945736434108" type="line"/>
      <point x="735.5930232558139" y="4.282945736434108" type="line"/>
      <point x="735.5930232558139" y="-174.51162790697674" type="line" smooth="yes"/>
      <point x="735.5930232558139" y="-261.6744186046512"/>
      <point x="790.531007751938" y="-316.38759689922483"/>
      <point x="855.5077519379845" y="-345.63178294573646" type="curve" smooth="yes"/>
      <point x="911.2209302325581" y="-371.93798449612405"/>
      <point x="976.9961240310078" y="-385.24418604651163"/>
    </contour>
    <component base="O" yScale="1.0049116666666666" yOffset="7.794573643410853"/>
  </outline>
</glyph>
<glyph name="R" format="2">
  <advance width="1210.8062015503876"/>
  <unicode hex="0052"/>
  <note>
R
</note>
  <anchor x="608.8527131782946" y="20.813953488372093" name="bottom"/>
  <anchor x="608.8527131782946" y="1430.0" name="top"/>
  <outline>
    <contour>
      <point x="172.6124031007752" y="0.0" type="line"/>
      <point x="346.031007751938" y="0.0" type="line"/>
      <point x="346.031007751938" y="642.1821705426356" type="line"/>
      <point x="266.0968992248062" y="611.4302325581396" type="line"/>
      <point x="566.3604651162791" y="611.4302325581396" type="line"/>
      <point x="594.9341085271318" y="610.4302325581396" type="line"/>
      <point x="864.2596899224807" y="603.1666666666666"/>
      <point x="1097.5" y="744.6356589147287"/>
      <point x="1097.5" y="998.2054263565891" type="curve" smooth="yes"/>
      <point x="1097.5" y="1247.8992248062016"/>
      <point x="871.1550387596899" y="1432.0813953488373"/>
      <point x="621.7480620155038" y="1432.0813953488373" type="curve" smooth="yes"/>
      <point x="172.6124031007752" y="1432.0813953488373" type="line"/>
    </contour>
    <contour>
      <point x="291.7674418604651" y="651.2635658914728" type="line"/>
      <point x="346.031007751938" y="613.6550387596899" type="line"/>
      <point x="346.031007751938" y="1433.6317829457364" type="line"/>
      <point x="219.6124031007752" y="1392.2480620155038" type="line"/>
      <point x="636.3178294573643" y="1392.2480620155038" type="line" smooth="yes"/>
      <point x="786.5077519379845" y="1392.2480620155038"/>
      <point x="944.1627906976744" y="1223.3294573643411"/>
      <point x="944.1627906976744" y="1000.6744186046511" type="curve" smooth="yes"/>
      <point x="944.1627906976744" y="781.4263565891473"/>
      <point x="784.4457364341085" y="651.2635658914728"/>
      <point x="636.3178294573643" y="651.2635658914728" type="curve" smooth="yes"/>
    </contour>
    <contour>
      <point x="497.26356589147287" y="614.4302325581396" type="line"/>
      <point x="551.2635658914729" y="604.4302325581396"/>
      <point x="617.7751937984497" y="643.7558139534883"/>
      <point x="747.2635658914728" y="518.4302325581396" type="curve" smooth="yes"/>
      <point x="796.7751937984497" y="464.75581395348837"/>
      <point x="861.5697674418604" y="381.20542635658916"/>
      <point x="940.2635658914728" y="190.98062015503876" type="curve" smooth="yes"/>
      <point x="954.8759689922481" y="157.2248062015504"/>
      <point x="991.8759689922481" y="59.224806201550386"/>
      <point x="1010.1821705426356" y="0.0" type="curve"/>
      <point x="1136.1937984496124" y="0.0" type="line"/>
      <point x="1109.8875968992247" y="67.6124031007752"/>
      <point x="1069.8875968992247" y="175.91860465116278"/>
      <point x="1039.2751937984497" y="237.98062015503876" type="curve" smooth="yes"/>
      <point x="1000.5813953488372" y="326.8372093023256"/>
      <point x="938.8682170542636" y="432.8372093023256"/>
      <point x="875.2751937984497" y="499.43023255813955" type="curve" smooth="yes"/>
      <point x="810.0116279069767" y="566.0"/>
      <point x="733.0116279069767" y="632.6744186046511"/>
      <point x="610.0736434108527" y="621.5930232558139" type="curve"/>
    </contour>
  </outline>
</glyph>
<glyph name="S" format="2">
  <advance width="1189.4418604651162"/>
  <unicode hex="0053"/>
  <note>
S
</note>
  <anchor x="593.2209302325581" y="20.813953488372093" name="bottom"/>
  <anchor x="593.2209302325581" y="1430.0" name="top"/>
  <outline>
    <contour>
      <point x="581.9147286821706" y="-30.856589147286822" type="curve" smooth="yes"/>
      <point x="944.6472868217054" y="-30.856589147286822"/>
      <point x="1113.8294573643411" y="148.30620155038758"/>
      <point x="1113.8294573643411" y="388.26356589147287" type="curve" smooth="yes"/>
      <point x="1113.8294573643411" y="662.2635658914729"/>
      <point x="897.1744186046511" y="740.7325581395348"/>
      <point x="607.7713178294574" y="832.8139534883721" type="curve" smooth="yes"/>
      <point x="375.23643410852713" y="913.7751937984497"/>
      <point x="281.4612403100775" y="1021.1821705426356"/>
      <point x="281.4612403100775" y="1160.124031007752" type="curve" smooth="yes"/>
      <point x="281.4612403100775" y="1332.2674418604652"/>
      <point x="387.87209302325584" y="1413.2286821705427"/>
      <point x="602.8333333333334" y="1413.2286821705427" type="curve" smooth="yes"/>
      <point x="799.6705426356589" y="1413.2286821705427"/>
      <point x="929.7364341085271" y="1288.6162790697674"/>
      <point x="944.9612403100775" y="1130.8178294573643" type="curve"/>
      <point x="1081.360465116279" y="1130.8178294573643" type="line"/>
      <point x="1050.6666666666667" y="1327.6744186046512"/>
      <point x="878.0542635658915" y="1464.6937984496124"/>
      <point x="613.6085271317829" y="1464.6937984496124" type="curve" smooth="yes"/>
      <point x="279.4496124031008" y="1464.6937984496124"/>
      <point x="121.75581395348837" y="1302.1627906976744"/>
      <point x="121.75581395348837" y="1114.2674418604652" type="curve" smooth="yes"/>
      <point x="121.75581395348837" y="923.2674418604652"/>
      <point x="289.93798449612405" y="793.1472868217054"/>
      <point x="553.4263565891473" y="705.922480620155" type="curve" smooth="yes"/>
      <point x="824.5077519379845" y="612.6976744186046"/>
      <point x="956.6744186046511" y="532.3294573643411"/>
      <point x="956.6744186046511" y="346.7751937984496" type="curve" smooth="yes"/>
      <point x="956.6744186046511" y="138.7325581395349"/>
      <point x="866.0" y="23.383720930232556"/>
      <point x="588.9961240310078" y="23.383720930232556" type="curve" smooth="yes"/>
      <point x="372.50387596899225" y="23.383720930232556"/>
      <point x="227.2984496124031" y="134.68992248062017"/>
      <point x="199.54263565891472" y="388.83720930232556" type="curve"/>
      <point x="63.6124031007752" y="388.83720930232556" type="line"/>
      <point x="87.36821705426357" y="108.32558139534883"/>
      <point x="264.9186046511628" y="-30.856589147286822"/>
    </contour>
  </outline>
</glyph>
<glyph name="T" format="2">
  <advance width="1137.1782945736434"/>
  <unicode hex="0054"/>
  <note>
T
</note>
  <anchor x="568.5891472868217" y="20.813953488372093" name="bottom"/>
  <anchor x="568.5891472868217" y="715.0" name="center"/>
  <anchor x="568.5891472868217" y="1430.0" name="top"/>
  <outline>
    <contour>
      <point x="480.4922480620155" y="0.0" type="line"/>
      <point x="656.6860465116279" y="0.0" type="line"/>
      <point x="656.6860465116279" y="1421.1434108527133" type="line"/>
      <point x="562.1007751937984" y="1357.5581395348838" type="line"/>
      <point x="1108.1782945736434" y="1357.5581395348838" type="line"/>
      <point x="1108.1782945736434" y="1432.0813953488373" type="line"/>
      <point x="29.0" y="1432.0813953488373" type="line"/>
      <point x="29.0" y="1357.5581395348838" type="line"/>
      <point x="575.077519379845" y="1357.5581395348838" type="line"/>
      <point x="480.4922480620155" y="1421.1434108527133" type="line"/>
    </contour>
  </outline>
</glyph>
<glyph name="U" format="2">
  <advance width="1441.8100775193798"/>
  <unicode hex="0055"/>
  <note>
U
</note>
  <anchor x="759.7519379844962" y="20.813953488372093" name="bottom"/>
  <anchor x="874.015503875969" y="0.0" name="ogonek"/>
  <anchor x="759.7519379844962" y="1430.0" name="top"/>
  <anchor x="1296.2829457364342" y="1430.0" name="topright"/>
  <outline>
    <contour>
      <point x="721.7519379844962" y="-29.550387596899224" type="curve" smooth="yes"/>
      <point x="1054.0348837209303" y="-29.550387596899224"/>
      <point x="1306.1976744186047" y="243.69379844961242"/>
      <point x="1306.1976744186047" y="560.8798449612403" type="curve" smooth="yes"/>
      <point x="1306.1976744186047" y="1432.0813953488373" type="line"/>
      <point x="1214.593023255814" y="1432.0813953488373" type="line"/>
      <point x="1211.8178294573643" y="536.1046511627907" type="line" smooth="yes"/>
      <point x="1211.124031007752" y="254.03875968992247"/>
      <point x="971.5271317829457" y="31.833333333333332"/>
      <point x="719.7519379844962" y="31.833333333333332" type="curve" smooth="yes"/>
      <point x="479.07751937984494" y="31.833333333333332"/>
      <point x="277.3992248062016" y="236.69379844961242"/>
      <point x="277.3992248062016" y="546.5116279069767" type="curve" smooth="yes"/>
      <point x="277.3992248062016" y="1432.0813953488373" type="line"/>
      <point x="137.6124031007752" y="1432.0813953488373" type="line"/>
      <point x="137.6124031007752" y="538.5116279069767" type="line" smooth="yes"/>
      <point x="137.6124031007752" y="187.7751937984496"/>
      <point x="423.38759689922483" y="-29.550387596899224"/>
    </contour>
  </outline>
</glyph>
<glyph name="V" format="2">
  <advance width="1304.3217054263566"/>
  <unicode hex="0056"/>
  <note>
V
</note>
  <anchor x="653.5077519379845" y="20.813953488372093" name="bottom"/>
  <anchor x="653.5077519379845" y="1430.0" name="top"/>
  <outline>
    <contour>
      <point x="659.5077519379845" y="-38.224806201550386" type="line"/>
      <point x="1263.7093023255813" y="1431.0813953488373" type="line"/>
      <point x="1202.7558139534883" y="1431.0813953488373" type="line"/>
      <point x="666.5891472868217" y="102.68217054263566" type="line"/>
      <point x="720.5658914728682" y="182.88372093023256" type="line"/>
      <point x="208.1124031007752" y="1432.0813953488373" type="line"/>
      <point x="40.6124031007752" y="1431.0813953488373" type="line"/>
    </contour>
  </outline>
</glyph>
<glyph name="X" format="2">
  <advance width="1277.6007751937984"/>
  <unicode hex="0058"/>
  <note>
X
</note>
  <anchor x="637.2596899224807" y="20.813953488372093" name="bottom"/>
  <anchor x="637.2596899224807" y="1430.0" name="top"/>
  <outline>
    <contour>
      <point x="1040.3682170542636" y="0.0" type="line"/>
      <point x="1228.9883720930234" y="0.0" type="line"/>
      <point x="258.1317829457364" y="1430.0" type="line"/>
      <point x="69.51162790697674" y="1430.0" type="line"/>
    </contour>
    <contour>
      <point x="50.16279069767442" y="0.0" type="line"/>
      <point x="128.58527131782947" y="0.0" type="line"/>
      <point x="663.9108527131783" y="728.2441860465116" type="line"/>
      <point x="624.4651162790698" y="790.0968992248062" type="line"/>
    </contour>
    <contour>
      <point x="650.4031007751938" y="691.4728682170543" type="line"/>
      <point x="1174.3798449612402" y="1432.0813953488373" type="line"/>
      <point x="1096.6511627906978" y="1432.0813953488373" type="line"/>
      <point x="610.2635658914728" y="753.3255813953489" type="line"/>
    </contour>
  </outline>
</glyph>
<glyph name="Y" format="2">
  <advance width="1119.5852713178294"/>
  <unicode hex="0059"/>
  <note>
Y
</note>
  <anchor x="572.9147286821706" y="6.937984496124031" name="bottom"/>
  <anchor x="559.4457364341085" y="1430.0" name="top"/>
  <anchor x="11.306201550387598" y="1430.0" name="topleft"/>
  <outline>
    <contour>
      <point x="486.59302325581393" y="0.0" type="line"/>
      <point x="663.4806201550388" y="0.0" type="line"/>
      <point x="663.4806201550388" y="685.3682170542636" type="line"/>
      <point x="1086.9728682170544" y="1432.0813953488373" type="line"/>
      <point x="1030.6511627906978" y="1432.0813953488373" type="line"/>
      <point x="565.4883720930233" y="601.7829457364342" type="line"/>
      <point x="644.9922480620155" y="724.6705426356589" type="line"/>
      <point x="234.51937984496124" y="1432.0813953488373" type="line"/>
      <point x="31.918604651162795" y="1432.0813953488373" type="line"/>
      <point x="486.59302325581393" y="655.1434108527131" type="line"/>
    </contour>
  </outline>
</glyph>
<glyph name="Z" format="2">
  <advance width="1156.2790697674418"/>
  <unicode hex="005A"/>
  <note>
Z
</note>
  <anchor x="580.1395348837209" y="20.813953488372093" name="bottom"/>
  <anchor x="580.1395348837209" y="715.0" name="center"/>
  <anchor x="580.1395348837209" y="1430.0" name="top"/>
  <outline>
    <contour>
      <point x="42.6124031007752" y="0.0" type="line"/>
      <point x="1107.6666666666667" y="0.0" type="line"/>
      <point x="1108.0542635658915" y="81.50387596899225" type="line"/>
      <point x="88.40697674418604" y="81.50387596899225" type="line"/>
      <point x="214.9496124031008" y="11.918604651162791" type="line"/>
      <point x="1087.6666666666667" y="1432.0813953488373" type="line"/>
      <point x="103.85658914728683" y="1432.0813953488373" type="line"/>
      <point x="103.85658914728683" y="1350.577519379845" type="line"/>
      <point x="1013.7325581395348" y="1350.577519379845" type="line"/>
      <point x="912.2480620155038" y="1416.7751937984497" type="line"/>
    </contour>
  </outline>
</glyph>
<glyph name="bracketleft" format="2">
  <advance width="561.4651162790698"/>
  <unicode hex="005B"/>
  <note>
bracketleft
</note>
  <outline>
    <contour>
      <point x="168.30620155038758" y="-400.61240310077517" type="line"/>
      <point x="522.4651162790698" y="-400.61240310077517" type="line"/>
      <point x="522.4651162790698" y="-309.6782945736434" type="line"/>
      <point x="254.7906976744186" y="-309.6782945736434" type="line"/>
      <point x="254.7906976744186" y="1373.1472868217054" type="line"/>
      <point x="522.4651162790698" y="1373.1472868217054" type="line"/>
      <point x="522.4651162790698" y="1463.3875968992247" type="line"/>
      <point x="168.30620155038758" y="1463.3875968992247" type="line"/>
    </contour>
  </outline>
</glyph>
<glyph name="bracketright" format="2">
  <advance width="561.4651162790698"/>
  <unicode hex="005D"/>
  <note>
bracketright
</note>
  <outline>
    <contour>
      <point x="39.0" y="-400.61240310077517" type="line"/>
      <point x="393.15891472868213" y="-400.61240310077517" type="line"/>
      <point x="393.15891472868213" y="1463.3875968992247" type="line"/>
      <point x="39.0" y="1463.3875968992247" type="line"/>
      <point x="39.0" y="1373.1472868217054" type="line"/>
      <point x="307.3682170542636" y="1373.1472868217054" type="line"/>
      <point x="307.3682170542636" y="-309.6782945736434" type="line"/>
      <point x="39.0" y="-309.6782945736434" type="line"/>
    </contour>
  </outline>
</glyph>
<glyph name="asciicircum" format="2">
  <advance width="983.0503875968992"/>
  <unicode hex="005E"/>
  <note>
asciicircum
</note>
  <outline>
    <contour>
      <point x="93.91860465116278" y="835.4108527131783" type="line"/>
      <point x="195.05426356589146" y="835.4108527131783" type="line"/>
      <point x="521.3798449612403" y="1402.2480620155038" type="line"/>
      <point x="458.8953488372093" y="1405.7170542635658" type="line"/>
      <point x="787.9961240310078" y="835.4108527131783" type="line"/>
      <point x="889.1317829457364" y="835.4108527131783" type="line"/>
      <point x="532.0116279069767" y="1453.7558139534883" type="line"/>
      <point x="449.0387596899225" y="1453.7558139534883" type="line"/>
    </contour>
  </outline>
</glyph>
<glyph name="underscore" format="2">
  <advance width="1331.9418604651164"/>
  <unicode hex="005F"/>
  <note>
underscore
</note>
  <outline>
    <contour>
      <point x="74.3875968992248" y="-355.3643410852713" type="line"/>
      <point x="1257.5542635658915" y="-355.3643410852713" type="line"/>
      <point x="1257.5542635658915" y="-272.3488372093023" type="line"/>
      <point x="74.3875968992248" y="-272.3488372093023" type="line"/>
    </contour>
  </outline>
</glyph>
<glyph name="a" format="2">
  <advance width="1189.5813953488373"/>
  <unicode hex="0061"/>
  <note>
a
</note>
  <anchor x="529.7519379844962" y="11.794573643410853" name="bottom"/>
  <anchor x="998.2170542635658" y="0.0" name="ogonek"/>
  <anchor x="529.7519379844962" y="918.8565891472869" name="top"/>
  <outline>
    <contour>
      <point x="516.1201550387597" y="-28.162790697674417" type="curve" smooth="yes"/>
      <point x="723.9961240310078" y="-28.162790697674417"/>
      <point x="870.8333333333334" y="83.53100775193798"/>
      <point x="933.4457364341085" y="273.48837209302326" type="curve"/>
      <point x="906.3255813953489" y="298.7519379844961" type="line"/>
      <point x="909.7945736434109" y="0.0" type="line"/>
      <point x="1062.2751937984497" y="0.0" type="line"/>
      <point x="1062.2751937984497" y="917.6317829457364" type="line"/>
      <point x="908.4069767441861" y="917.6317829457364" type="line"/>
      <point x="908.4069767441861" y="619.9612403100775" type="line"/>
      <point x="930.6705426356589" y="642.8372093023256" type="line"/>
      <point x="871.5271317829457" y="831.6317829457364"/>
      <point x="721.9147286821706" y="947.3255813953489"/>
      <point x="514.7325581395348" y="947.3255813953489" type="curve" smooth="yes"/>
      <point x="242.1627906976744" y="947.3255813953489"/>
      <point x="50.6124031007752" y="745.0193798449612"/>
      <point x="50.6124031007752" y="457.468992248062" type="curve" smooth="yes"/>
      <point x="50.6124031007752" y="170.91860465116278"/>
      <point x="244.24418604651163" y="-28.162790697674417"/>
    </contour>
    <contour>
      <point x="532.077519379845" y="21.60852713178295" type="curve" smooth="yes"/>
      <point x="333.6666666666667" y="21.60852713178295"/>
      <point x="207.31782945736433" y="207.18217054263565"/>
      <point x="207.31782945736433" y="465.0813953488372" type="curve" smooth="yes"/>
      <point x="207.31782945736433" y="732.2868217054264"/>
      <point x="343.97286821705427" y="896.8604651162791"/>
      <point x="530.6899224806201" y="896.8604651162791" type="curve" smooth="yes"/>
      <point x="728.7131782945736" y="896.8604651162791"/>
      <point x="858.8372093023256" y="698.4108527131783"/>
      <point x="858.8372093023256" y="455.0813953488372" type="curve" smooth="yes"/>
      <point x="858.8372093023256" y="203.13953488372093"/>
      <point x="716.7131782945736" y="21.60852713178295"/>
    </contour>
  </outline>
</glyph>
<glyph name="b" format="2">
  <advance width="1190.968992248062"/>
  <unicode hex="0062"/>
  <note>
b
</note>
  <anchor x="599.8720930232558" y="27.058139534883722" name="bottom"/>
  <anchor x="599.8720930232558" y="1516.7751937984497" name="top"/>
  <outline>
    <contour>
      <point x="667.8488372093024" y="-25.387596899224807" type="curve" smooth="yes"/>
      <point x="944.7248062015503" y="-25.387596899224807"/>
      <point x="1140.3565891472867" y="172.69379844961242"/>
      <point x="1140.3565891472867" y="458.8565891472868" type="curve" smooth="yes"/>
      <point x="1140.3565891472867" y="744.0193798449612"/>
      <point x="947.8062015503876" y="946.3255813953489"/>
      <point x="669.2364341085272" y="946.3255813953489" type="curve" smooth="yes"/>
      <point x="480.05426356589146" y="946.3255813953489"/>
      <point x="341.13565891472865" y="856.3255813953489"/>
      <point x="271.2984496124031" y="701.2248062015503" type="curve"/>
      <point x="295.56201550387595" y="674.9612403100775" type="line"/>
      <point x="295.56201550387595" y="1516.7751937984497" type="line"/>
      <point x="139.6124031007752" y="1516.7751937984497" type="line"/>
      <point x="139.6124031007752" y="0.0" type="line"/>
      <point x="294.1744186046512" y="0.0" type="line"/>
      <point x="294.1744186046512" y="244.75193798449612" type="line"/>
      <point x="269.2170542635659" y="219.18217054263567" type="line"/>
      <point x="341.8294573643411" y="62.3062015503876"/>
      <point x="479.3604651162791" y="-25.387596899224807"/>
    </contour>
    <contour>
      <point x="651.8914728682171" y="23.689922480620154" type="curve" smooth="yes"/>
      <point x="450.56201550387595" y="23.689922480620154"/>
      <point x="317.43798449612405" y="224.22093023255815"/>
      <point x="317.43798449612405" y="467.16279069767444" type="curve" smooth="yes"/>
      <point x="317.43798449612405" y="718.1046511627907"/>
      <point x="461.56201550387595" y="896.5542635658915"/>
      <point x="653.2790697674418" y="896.5542635658915" type="curve" smooth="yes"/>
      <point x="853.9961240310078" y="896.5542635658915"/>
      <point x="985.6511627906976" y="714.6744186046511"/>
      <point x="985.6511627906976" y="456.468992248062" type="curve" smooth="yes"/>
      <point x="985.6511627906976" y="190.26356589147287"/>
      <point x="844.3023255813954" y="23.689922480620154"/>
    </contour>
  </outline>
</glyph>
<glyph name="c" format="2">
  <advance width="930.2790697674419"/>
  <unicode hex="0063"/>
  <note>
c
</note>
  <anchor x="474.13953488372096" y="-21.24418604651163" name="bottom"/>
  <anchor x="534.1395348837209" y="928.8565891472869" name="top"/>
  <outline>
    <contour>
      <point x="533.2829457364342" y="-28.162790697674417" type="curve" smooth="yes"/>
      <point x="673.1589147286821" y="-28.162790697674417"/>
      <point x="795.6472868217054" y="20.0"/>
      <point x="882.5852713178294" y="107.48837209302326" type="curve"/>
      <point x="882.5852713178294" y="221.7093023255814" type="line"/>
      <point x="803.0968992248062" y="97.15891472868216"/>
      <point x="676.6085271317829" y="20.914728682170548"/>
      <point x="538.8333333333334" y="20.914728682170548" type="curve" smooth="yes"/>
      <point x="327.95348837209303" y="20.914728682170548"/>
      <point x="209.48062015503876" y="206.87596899224806"/>
      <point x="209.48062015503876" y="461.61240310077517" type="curve" smooth="yes"/>
      <point x="209.48062015503876" y="732.6744186046511"/>
      <point x="337.95348837209303" y="896.5542635658915"/>
      <point x="538.1395348837209" y="896.5542635658915" type="curve" smooth="yes"/>
      <point x="681.9961240310078" y="896.5542635658915"/>
      <point x="803.4031007751938" y="816.3100775193799"/>
      <point x="882.5852713178294" y="691.7596899224807" type="curve"/>
      <point x="882.5852713178294" y="806.9806201550388" type="line"/>
      <point x="796.3410852713179" y="896.468992248062"/>
      <point x="674.1589147286821" y="946.3255813953489"/>
      <point x="533.9767441860465" y="946.3255813953489" type="curve" smooth="yes"/>
      <point x="234.75581395348837" y="946.3255813953489"/>
      <point x="50.6124031007752" y="726.2868217054264"/>
      <point x="50.6124031007752" y="453.3062015503876" type="curve" smooth="yes"/>
      <point x="50.6124031007752" y="183.40697674418604"/>
      <point x="234.4496124031008" y="-28.162790697674417"/>
    </contour>
  </outline>
</glyph>
<glyph name="d" format="2">
  <advance width="1190.2751937984497"/>
  <unicode hex="0064"/>
  <note>
d
</note>
  <anchor x="552.3410852713179" y="27.058139534883722" name="bottom"/>
  <anchor x="973.3410852713179" y="1275.2441860465117" name="center"/>
  <anchor x="596.0968992248062" y="1516.7751937984497" name="top"/>
  <anchor x="1136.5852713178294" y="1516.7751937984497" name="topright"/>
  <outline>
    <contour>
      <point x="523.1201550387597" y="-25.387596899224807" type="curve" smooth="yes"/>
      <point x="711.6085271317829" y="-25.387596899224807"/>
      <point x="849.1395348837209" y="64.3875968992248"/>
      <point x="921.7519379844962" y="221.26356589147287" type="curve"/>
      <point x="896.1007751937984" y="246.83333333333331" type="line"/>
      <point x="896.1007751937984" y="0.0" type="line"/>
      <point x="1050.6627906976744" y="0.0" type="line"/>
      <point x="1050.6627906976744" y="1516.7751937984497" type="line"/>
      <point x="895.4069767441861" y="1516.7751937984497" type="line"/>
      <point x="895.4069767441861" y="675.6550387596899" type="line"/>
      <point x="919.6705426356589" y="701.9186046511628" type="line"/>
      <point x="849.8333333333334" y="856.3255813953489"/>
      <point x="710.9147286821706" y="944.937984496124"/>
      <point x="521.7325581395348" y="944.937984496124" type="curve" smooth="yes"/>
      <point x="243.1627906976744" y="944.937984496124"/>
      <point x="50.6124031007752" y="743.3255813953489"/>
      <point x="50.6124031007752" y="458.16279069767444" type="curve" smooth="yes"/>
      <point x="50.6124031007752" y="173.3875968992248"/>
      <point x="246.24418604651163" y="-25.387596899224807"/>
    </contour>
    <contour>
      <point x="539.077519379845" y="23.689922480620154" type="curve" smooth="yes"/>
      <point x="346.6666666666667" y="23.689922480620154"/>
      <point x="205.31782945736433" y="191.65116279069767"/>
      <point x="205.31782945736433" y="455.7751937984496" type="curve" smooth="yes"/>
      <point x="205.31782945736433" y="712.5930232558139"/>
      <point x="336.97286821705427" y="895.8604651162791"/>
      <point x="537.6899224806201" y="895.8604651162791" type="curve" smooth="yes"/>
      <point x="728.7131782945736" y="895.8604651162791"/>
      <point x="872.8372093023256" y="718.7984496124031"/>
      <point x="872.8372093023256" y="467.8565891472868" type="curve" smooth="yes"/>
      <point x="872.8372093023256" y="226.30232558139534"/>
      <point x="739.7131782945736" y="23.689922480620154"/>
    </contour>
  </outline>
</glyph>
<glyph name="e" format="2">
  <advance width="1073.2984496124031"/>
  <unicode hex="0065"/>
  <note>
e
</note>
  <anchor x="536.3023255813954" y="-14.775193798449612" name="bottom"/>
  <anchor x="691.2596899224807" y="0.0" name="ogonek"/>
  <anchor x="536.3023255813954" y="918.8565891472869" name="top"/>
  <outline>
    <contour>
      <point x="536.3837209302326" y="-28.162790697674417" type="curve" smooth="yes"/>
      <point x="751.422480620155" y="-28.162790697674417"/>
      <point x="951.3604651162791" y="82.14341085271317"/>
      <point x="1006.8294573643411" y="252.98062015503876" type="curve"/>
      <point x="868.3875968992248" y="252.98062015503876" type="line"/>
      <point x="806.1007751937984" y="117.36434108527132"/>
      <point x="686.5077519379845" y="20.914728682170548"/>
      <point x="538.4651162790698" y="20.914728682170548" type="curve" smooth="yes"/>
      <point x="338.1162790697674" y="20.914728682170548"/>
      <point x="208.78682170542635" y="208.85271317829458"/>
      <point x="208.78682170542635" y="456.0813953488372" type="curve" smooth="yes"/>
      <point x="208.78682170542635" y="730.1046511627907"/>
      <point x="353.4418604651163" y="895.8604651162791"/>
      <point x="536.3837209302326" y="895.8604651162791" type="curve" smooth="yes"/>
      <point x="698.937984496124" y="895.8604651162791"/>
      <point x="842.6550387596899" y="764.9612403100775"/>
      <point x="869.6550387596899" y="493.8178294573643" type="curve"/>
      <point x="1032.6860465116279" y="493.8178294573643" type="line"/>
      <point x="1005.4418604651163" y="789.3255813953489"/>
      <point x="778.8100775193799" y="946.3255813953489"/>
      <point x="534.3023255813954" y="946.3255813953489" type="curve" smooth="yes"/>
      <point x="243.63178294573643" y="946.3255813953489"/>
      <point x="50.6124031007752" y="724.4069767441861"/>
      <point x="50.6124031007752" y="450.24418604651163" type="curve" smooth="yes"/>
      <point x="50.6124031007752" y="157.30620155038758"/>
      <point x="255.93798449612405" y="-28.162790697674417"/>
    </contour>
    <contour>
      <point x="192.19379844961242" y="493.1240310077519" type="line"/>
      <point x="958.1162790697674" y="493.8178294573643" type="line"/>
      <point x="958.8100775193799" y="530.8759689922481" type="line"/>
      <point x="169.2984496124031" y="530.8759689922481" type="line"/>
    </contour>
  </outline>
</glyph>
<glyph name="f" format="2">
  <advance width="550.6162790697674"/>
  <unicode hex="0066"/>
  <note>
f
</note>
  <anchor x="276.15503875968994" y="27.058139534883722" name="bottom"/>
  <anchor x="276.15503875968994" y="1516.7751937984497" name="top"/>
  <outline>
    <contour>
      <point x="170.46899224806202" y="0.0" type="line"/>
      <point x="325.031007751938" y="0.0" type="line"/>
      <point x="325.031007751938" y="1114.0658914728683" type="line" smooth="yes"/>
      <point x="325.031007751938" y="1367.5387596899225"/>
      <point x="316.42248062015506" y="1488.860465116279"/>
      <point x="419.15503875968994" y="1488.860465116279" type="curve" smooth="yes"/>
      <point x="469.9922480620155" y="1480.860465116279"/>
      <point x="523.9496124031008" y="1441.4108527131782"/>
      <point x="523.9496124031008" y="1352.6162790697674" type="curve" smooth="yes"/>
      <point x="523.9496124031008" y="1327.2286821705427"/>
      <point x="519.6434108527131" y="1294.8410852713178"/>
      <point x="511.25581395348837" y="1267.515503875969" type="curve"/>
      <point x="602.8837209302326" y="1267.515503875969" type="line"/>
      <point x="612.6589147286821" y="1316.7596899224807"/>
      <point x="614.9651162790698" y="1360.1666666666667"/>
      <point x="614.9651162790698" y="1383.2480620155038" type="curve" smooth="yes"/>
      <point x="614.9651162790698" y="1493.0813953488373"/>
      <point x="525.6627906976744" y="1542.7945736434108"/>
      <point x="402.4418604651163" y="1542.7945736434108" type="curve" smooth="yes"/>
      <point x="232.7906976744186" y="1542.7945736434108"/>
      <point x="170.46899224806202" y="1399.7713178294573"/>
      <point x="170.46899224806202" y="1148.7558139534883" type="curve" smooth="yes"/>
    </contour>
    <contour>
      <point x="27.0" y="853.515503875969" type="line"/>
      <point x="488.4573643410853" y="853.515503875969" type="line"/>
      <point x="488.4573643410853" y="900.2868217054264" type="line"/>
      <point x="27.0" y="900.2868217054264" type="line"/>
    </contour>
  </outline>
</glyph>
<glyph name="g" format="2">
  <advance width="1205.1317829457364"/>
  <unicode hex="0067"/>
  <note>
g
</note>
  <anchor x="593.5658914728682" y="-498.9418604651163" name="bottom"/>
  <anchor x="545.9341085271318" y="918.8565891472869" name="top"/>
  <outline>
    <contour>
      <point x="558.5038759689922" y="-583.937984496124" type="curve" smooth="yes"/>
      <point x="968.4806201550388" y="-583.937984496124"/>
      <point x="1064.5193798449613" y="-265.6744186046512"/>
      <point x="1065.5193798449613" y="131.79457364341084" type="curve" smooth="yes"/>
      <point x="1068.5193798449613" y="917.6317829457364" type="line"/>
      <point x="914.6511627906976" y="917.6317829457364" type="line"/>
      <point x="914.6511627906976" y="657.4263565891473" type="line"/>
      <point x="929.9767441860465" y="673.3643410852713" type="line"/>
      <point x="864.5891472868217" y="840.6511627906976"/>
      <point x="715.6705426356589" y="946.3255813953489"/>
      <point x="517.5077519379845" y="946.3255813953489" type="curve" smooth="yes"/>
      <point x="243.5503875968992" y="946.3255813953489"/>
      <point x="50.6124031007752" y="745.0193798449612"/>
      <point x="50.6124031007752" y="457.468992248062" type="curve" smooth="yes"/>
      <point x="50.6124031007752" y="170.91860465116278"/>
      <point x="246.32558139534885" y="-28.856589147286822"/>
      <point x="519.5891472868217" y="-28.856589147286822" type="curve" smooth="yes"/>
      <point x="714.9767441860465" y="-28.856589147286822"/>
      <point x="861.8139534883721" y="66.18604651162791"/>
      <point x="929.2829457364342" y="237.4108527131783" type="curve"/>
      <point x="912.5697674418604" y="253.65503875968992" type="line"/>
      <point x="915.3449612403101" y="120.6937984496124" type="line"/>
      <point x="915.3449612403101" y="-329.08527131782944"/>
      <point x="823.7519379844962" y="-537.1666666666666"/>
      <point x="541.0348837209302" y="-537.1666666666666" type="curve" smooth="yes"/>
      <point x="323.97286821705427" y="-537.1666666666666"/>
      <point x="258.11240310077517" y="-438.9612403100775"/>
      <point x="222.56201550387595" y="-312.20542635658916" type="curve"/>
      <point x="79.24418604651163" y="-312.20542635658916" type="line"/>
      <point x="165.97674418604652" y="-562.6317829457364"/>
      <point x="418.5891472868217" y="-583.937984496124"/>
    </contour>
    <contour>
      <point x="531.3837209302326" y="20.914728682170548" type="curve" smooth="yes"/>
      <point x="333.6666666666667" y="20.914728682170548"/>
      <point x="208.01162790697674" y="207.87596899224806"/>
      <point x="208.01162790697674" y="465.0813953488372" type="curve" smooth="yes"/>
      <point x="208.01162790697674" y="732.2868217054264"/>
      <point x="343.97286821705427" y="895.8604651162791"/>
      <point x="529.9961240310078" y="895.8604651162791" type="curve" smooth="yes"/>
      <point x="727.3255813953489" y="895.8604651162791"/>
      <point x="857.4496124031008" y="698.4108527131783"/>
      <point x="857.4496124031008" y="455.0813953488372" type="curve" smooth="yes"/>
      <point x="857.4496124031008" y="203.13953488372093"/>
      <point x="716.0193798449612" y="20.914728682170548"/>
    </contour>
  </outline>
</glyph>
<glyph name="h" format="2">
  <advance width="1111.9496124031007"/>
  <unicode hex="0068"/>
  <note>
h
</note>
  <anchor x="564.2403100775193" y="0.0" name="bottom"/>
  <anchor x="224.484496124031" y="1256.2441860465117" name="center"/>
  <anchor x="564.2403100775193" y="1516.7751937984497" name="top"/>
  <outline>
    <contour>
      <point x="139.6124031007752" y="0.0" type="line"/>
      <point x="299.031007751938" y="0.0" type="line"/>
      <point x="299.031007751938" y="616.8565891472869" type="line" smooth="yes"/>
      <point x="299.031007751938" y="748.2480620155038"/>
      <point x="448.4612403100775" y="896.1666666666666"/>
      <point x="626.9341085271318" y="896.1666666666666" type="curve" smooth="yes"/>
      <point x="774.1627906976744" y="896.1666666666666"/>
      <point x="851.2248062015503" y="788.4922480620155"/>
      <point x="851.2248062015503" y="527.8992248062016" type="curve" smooth="yes"/>
      <point x="851.2248062015503" y="0.0" type="line"/>
      <point x="1010.6434108527131" y="0.0" type="line"/>
      <point x="1010.6434108527131" y="551.2635658914728" type="line" smooth="yes"/>
      <point x="1010.6434108527131" y="812.7751937984497"/>
      <point x="872.1550387596899" y="945.6317829457364"/>
      <point x="660.5232558139535" y="945.6317829457364" type="curve" smooth="yes"/>
      <point x="462.8294573643411" y="945.6317829457364"/>
      <point x="301.6240310077519" y="834.9573643410853"/>
      <point x="270.9108527131783" y="644.7131782945736" type="curve"/>
      <point x="297.64341085271315" y="578.4573643410853" type="line"/>
      <point x="299.031007751938" y="1516.7751937984497" type="line"/>
      <point x="139.6124031007752" y="1516.7751937984497" type="line"/>
    </contour>
  </outline>
</glyph>
<glyph name="k" format="2">
  <advance width="967.8643410852713"/>
  <unicode hex="006B"/>
  <note>
k
</note>
  <anchor x="518.2364341085272" y="0.0" name="bottom"/>
  <anchor x="502.97286821705427" y="1516.7751937984497" name="top"/>
  <outline>
    <contour>
      <point x="139.6124031007752" y="0.0" type="line"/>
      <point x="300.1744186046512" y="0.0" type="line"/>
      <point x="300.1744186046512" y="1516.7751937984497" type="line"/>
      <point x="139.6124031007752" y="1516.7751937984497" type="line"/>
    </contour>
    <contour>
      <point x="793.8527131782946" y="0.0" type="line"/>
      <point x="969.2519379844962" y="0.0" type="line"/>
      <point x="462.6782945736434" y="558.6317829457364" type="line"/>
      <point x="369.0503875968992" y="457.515503875969" type="line"/>
    </contour>
    <contour>
      <point x="253.05426356589146" y="365.18992248062017" type="line"/>
      <point x="835.7015503875969" y="917.6317829457364" type="line"/>
      <point x="747.953488372093" y="917.6317829457364" type="line"/>
      <point x="286.51937984496124" y="489.015503875969" type="line"/>
    </contour>
  </outline>
</glyph>
<glyph name="l" format="2">
  <advance width="434.48062015503876"/>
  <unicode hex="006C"/>
  <note>
l
</note>
  <anchor x="123.89147286821705" y="0.0" name="bottom"/>
  <anchor x="215.15891472868216" y="784.1627906976744" name="center"/>
  <anchor x="477.9651162790698" y="787.1627906976744" name="dot"/>
  <anchor x="222.7906976744186" y="1511.9186046511627" name="top"/>
  <anchor x="408.3178294573643" y="1479.8372093023256" name="topright"/>
  <outline>
    <contour>
      <point x="139.6124031007752" y="0.0" type="line"/>
      <point x="294.8682170542636" y="0.0" type="line"/>
      <point x="294.8682170542636" y="1516.7751937984497" type="line"/>
      <point x="139.6124031007752" y="1516.7751937984497" type="line"/>
    </contour>
  </outline>
</glyph>
<glyph name="m" format="2">
  <advance width="1731.2790697674418"/>
  <unicode hex="006D"/>
  <note>
m
</note>
  <anchor x="867.1395348837209" y="0.0" name="bottom"/>
  <anchor x="867.1395348837209" y="918.8565891472869" name="top"/>
  <outline>
    <contour>
      <point x="126.6124031007752" y="0.0" type="line"/>
      <point x="284.64341085271315" y="0.0" type="line"/>
      <point x="284.64341085271315" y="616.8565891472869" type="line" smooth="yes"/>
      <point x="284.64341085271315" y="746.8604651162791"/>
      <point x="424.6046511627907" y="896.1666666666666"/>
      <point x="586.7519379844962" y="896.1666666666666" type="curve" smooth="yes"/>
      <point x="728.062015503876" y="896.1666666666666"/>
      <point x="799.4302325581396" y="782.9418604651163"/>
      <point x="799.4302325581396" y="512.6356589147287" type="curve" smooth="yes"/>
      <point x="799.4302325581396" y="0.0" type="line"/>
      <point x="957.4612403100775" y="0.0" type="line"/>
      <point x="956.4612403100775" y="616.8565891472869" type="line" smooth="yes"/>
      <point x="956.4612403100775" y="736.8604651162791"/>
      <point x="1091.7286821705427" y="896.8604651162791"/>
      <point x="1254.5697674418604" y="896.8604651162791" type="curve" smooth="yes"/>
      <point x="1396.1860465116279" y="896.8604651162791"/>
      <point x="1471.6356589147288" y="783.6356589147287"/>
      <point x="1471.6356589147288" y="512.6356589147287" type="curve" smooth="yes"/>
      <point x="1471.6356589147288" y="0.0" type="line"/>
      <point x="1629.6666666666667" y="0.0" type="line"/>
      <point x="1629.6666666666667" y="529.7558139534883" type="line" smooth="yes"/>
      <point x="1629.6666666666667" y="807.2248062015503"/>
      <point x="1495.0968992248063" y="946.3255813953489"/>
      <point x="1286.077519379845" y="946.3255813953489" type="curve" smooth="yes"/>
      <point x="1110.1782945736434" y="946.3255813953489"/>
      <point x="953.8294573643411" y="834.3449612403101"/>
      <point x="927.1162790697674" y="646.937984496124" type="curve"/>
      <point x="945.9922480620155" y="655.4263565891473" type="line"/>
      <point x="910.6666666666666" y="849.6317829457364"/>
      <point x="792.953488372093" y="946.3255813953489"/>
      <point x="617.2596899224807" y="946.3255813953489" type="curve" smooth="yes"/>
      <point x="457.9108527131783" y="946.3255813953489"/>
      <point x="309.8682170542636" y="860.5077519379845"/>
      <point x="270.23643410852713" y="700.8333333333334" type="curve"/>
      <point x="283.9496124031008" y="689.7519379844962" type="line"/>
      <point x="284.64341085271315" y="917.6317829457364" type="line"/>
      <point x="126.6124031007752" y="917.6317829457364" type="line"/>
    </contour>
  </outline>
</glyph>
<glyph name="n" format="2">
  <advance width="1098.2558139534883"/>
  <unicode hex="006E"/>
  <note>
n
</note>
  <anchor x="531.546511627907" y="0.0" name="bottom"/>
  <anchor x="531.546511627907" y="918.8565891472869" name="top"/>
  <outline>
    <contour>
      <point x="127.3062015503876" y="0.0" type="line"/>
      <point x="286.031007751938" y="0.0" type="line"/>
      <point x="286.031007751938" y="616.8565891472869" type="line" smooth="yes"/>
      <point x="286.031007751938" y="748.2480620155038"/>
      <point x="435.4612403100775" y="897.5542635658915"/>
      <point x="613.9341085271318" y="897.5542635658915" type="curve" smooth="yes"/>
      <point x="761.1627906976744" y="897.5542635658915"/>
      <point x="838.2248062015503" y="788.4922480620155"/>
      <point x="838.2248062015503" y="527.8992248062016" type="curve" smooth="yes"/>
      <point x="838.2248062015503" y="0.0" type="line"/>
      <point x="996.9496124031008" y="0.0" type="line"/>
      <point x="996.9496124031008" y="550.5697674418604" type="line" smooth="yes"/>
      <point x="996.9496124031008" y="812.7751937984497"/>
      <point x="859.1550387596899" y="946.3255813953489"/>
      <point x="647.5232558139535" y="946.3255813953489" type="curve" smooth="yes"/>
      <point x="452.6046511627907" y="946.3255813953489"/>
      <point x="293.48062015503876" y="839.1201550387597"/>
      <point x="257.9108527131783" y="644.7131782945736" type="curve"/>
      <point x="284.64341085271315" y="579.1511627906976" type="line"/>
      <point x="286.031007751938" y="917.6317829457364" type="line"/>
      <point x="127.3062015503876" y="917.6317829457364" type="line"/>
    </contour>
  </outline>
</glyph>
<glyph name="o" format="2">
  <advance width="1090.0736434108528"/>
  <unicode hex="006F"/>
  <note>
o
</note>
  <anchor x="545.3837209302326" y="11.794573643410853" name="bottom"/>
  <anchor x="545.3837209302326" y="459.0813953488372" name="center"/>
  <anchor x="696.2596899224807" y="0.0" name="ogonek"/>
  <anchor x="545.3837209302326" y="918.8565891472869" name="top"/>
  <anchor x="1043.0736434108528" y="918.8565891472869" name="topright"/>
  <outline>
    <contour>
      <point x="544.3837209302326" y="-28.162790697674417" type="curve" smooth="yes"/>
      <point x="836.6666666666666" y="-28.162790697674417"/>
      <point x="1039.4612403100775" y="168.53100775193798"/>
      <point x="1039.4612403100775" y="458.16279069767444" type="curve" smooth="yes"/>
      <point x="1039.4612403100775" y="745.4069767441861"/>
      <point x="837.6666666666666" y="946.3255813953489"/>
      <point x="544.3837209302326" y="946.3255813953489" type="curve" smooth="yes"/>
      <point x="251.40697674418604" y="946.3255813953489"/>
      <point x="50.6124031007752" y="745.7131782945736"/>
      <point x="50.6124031007752" y="458.16279069767444" type="curve" smooth="yes"/>
      <point x="50.6124031007752" y="170.2248062015504"/>
      <point x="251.10077519379846" y="-28.162790697674417"/>
    </contour>
    <contour>
      <point x="544.3837209302326" y="20.914728682170548" type="curve" smooth="yes"/>
      <point x="345.2984496124031" y="20.914728682170548"/>
      <point x="212.9496124031008" y="217.97674418604652"/>
      <point x="212.9496124031008" y="464.38759689922483" type="curve" smooth="yes"/>
      <point x="212.9496124031008" y="720.1860465116279"/>
      <point x="353.9108527131783" y="897.2480620155038"/>
      <point x="544.3837209302326" y="897.2480620155038" type="curve" smooth="yes"/>
      <point x="744.5503875968992" y="897.2480620155038"/>
      <point x="878.5116279069767" y="701.4922480620155"/>
      <point x="878.5116279069767" y="457.16279069767444" type="curve" smooth="yes"/>
      <point x="878.5116279069767" y="202.75193798449612"/>
      <point x="731.7751937984497" y="20.914728682170548"/>
    </contour>
  </outline>
</glyph>
<glyph name="p" format="2">
  <advance width="1196.5193798449613"/>
  <unicode hex="0070"/>
  <note>
p
</note>
  <anchor x="600.3410852713179" y="27.058139534883722" name="bottom"/>
  <anchor x="600.3410852713179" y="918.8565891472869" name="top"/>
  <outline>
    <contour>
      <point x="139.6124031007752" y="-600.0" type="line"/>
      <point x="295.56201550387595" y="-600.0" type="line"/>
      <point x="295.56201550387595" y="243.2015503875969" type="line"/>
      <point x="270.6046511627907" y="216.93798449612405" type="line"/>
      <point x="341.13565891472865" y="61.83720930232558"/>
      <point x="481.4418604651163" y="-28.162790697674417"/>
      <point x="672.0116279069767" y="-28.162790697674417" type="curve" smooth="yes"/>
      <point x="951.968992248062" y="-28.162790697674417"/>
      <point x="1145.906976744186" y="174.14341085271317"/>
      <point x="1145.906976744186" y="459.3062015503876" type="curve" smooth="yes"/>
      <point x="1145.906976744186" y="746.8565891472869"/>
      <point x="948.8875968992248" y="946.3255813953489"/>
      <point x="670.6240310077519" y="946.3255813953489" type="curve" smooth="yes"/>
      <point x="480.7480620155039" y="946.3255813953489"/>
      <point x="341.8294573643411" y="857.2441860465117"/>
      <point x="268.5232558139535" y="699.6744186046511" type="curve"/>
      <point x="294.1744186046512" y="674.7984496124031" type="line"/>
      <point x="294.1744186046512" y="917.6317829457364" type="line"/>
      <point x="139.6124031007752" y="917.6317829457364" type="line"/>
    </contour>
    <contour>
      <point x="656.0542635658915" y="21.60852713178295" type="curve" smooth="yes"/>
      <point x="462.9496124031008" y="21.60852713178295"/>
      <point x="317.43798449612405" y="200.0581395348837"/>
      <point x="317.43798449612405" y="451.6937984496124" type="curve" smooth="yes"/>
      <point x="317.43798449612405" y="695.3294573643411"/>
      <point x="451.9496124031008" y="896.5542635658915"/>
      <point x="654.6666666666666" y="896.5542635658915" type="curve" smooth="yes"/>
      <point x="849.1589147286821" y="896.5542635658915"/>
      <point x="991.2015503875969" y="728.5930232558139"/>
      <point x="991.2015503875969" y="462.38759689922483" type="curve" smooth="yes"/>
      <point x="991.2015503875969" y="204.18217054263567"/>
      <point x="858.8527131782946" y="21.60852713178295"/>
    </contour>
  </outline>
</glyph>
<glyph name="q" format="2">
  <advance width="1184.2131782945737"/>
  <unicode hex="0071"/>
  <note>
q
</note>
  <anchor x="588.5658914728682" y="27.058139534883722" name="bottom"/>
  <anchor x="588.5658914728682" y="918.8565891472869" name="top"/>
  <outline>
    <contour>
      <point x="900.9573643410853" y="-600.0" type="line"/>
      <point x="1056.906976744186" y="-600.0" type="line"/>
      <point x="1056.906976744186" y="917.6317829457364" type="line"/>
      <point x="902.3449612403101" y="917.6317829457364" type="line"/>
      <point x="902.3449612403101" y="673.4108527131783" type="line"/>
      <point x="927.9961240310078" y="698.9806201550388" type="line"/>
      <point x="854.6899224806201" y="856.5503875968992"/>
      <point x="715.7713178294574" y="946.3255813953489"/>
      <point x="525.8953488372093" y="946.3255813953489" type="curve" smooth="yes"/>
      <point x="247.63178294573643" y="946.3255813953489"/>
      <point x="50.6124031007752" y="745.468992248062"/>
      <point x="50.6124031007752" y="459.3062015503876" type="curve" smooth="yes"/>
      <point x="50.6124031007752" y="174.14341085271317"/>
      <point x="244.5503875968992" y="-28.162790697674417"/>
      <point x="524.5077519379845" y="-28.162790697674417" type="curve" smooth="yes"/>
      <point x="715.077519379845" y="-28.162790697674417"/>
      <point x="855.3837209302326" y="61.83720930232558"/>
      <point x="925.9147286821706" y="217.63178294573643" type="curve"/>
      <point x="900.9573643410853" y="243.2015503875969" type="line"/>
    </contour>
    <contour>
      <point x="540.4651162790698" y="21.60852713178295" type="curve" smooth="yes"/>
      <point x="337.6666666666667" y="21.60852713178295"/>
      <point x="205.31782945736433" y="204.18217054263567"/>
      <point x="205.31782945736433" y="462.38759689922483" type="curve" smooth="yes"/>
      <point x="205.31782945736433" y="727.8992248062016"/>
      <point x="347.3604651162791" y="896.5542635658915"/>
      <point x="541.8527131782946" y="896.5542635658915" type="curve" smooth="yes"/>
      <point x="745.2635658914729" y="896.5542635658915"/>
      <point x="879.0813953488372" y="693.9418604651163"/>
      <point x="879.0813953488372" y="451.6937984496124" type="curve" smooth="yes"/>
      <point x="879.0813953488372" y="200.0581395348837"/>
      <point x="733.5697674418604" y="21.60852713178295"/>
    </contour>
  </outline>
</glyph>
<glyph name="r" format="2">
  <advance width="818.8255813953489"/>
  <unicode hex="0072"/>
  <note>
r
</note>
  <anchor x="184.03488372093022" y="0.0" name="bottom"/>
  <anchor x="526.6434108527131" y="918.8565891472869" name="top"/>
  <outline>
    <contour>
      <point x="126.6124031007752" y="0.0" type="line"/>
      <point x="286.031007751938" y="0.0" type="line"/>
      <point x="286.031007751938" y="555.7558139534883" type="line" smooth="yes"/>
      <point x="286.031007751938" y="742.4728682170543"/>
      <point x="377.84883720930236" y="895.1666666666666"/>
      <point x="509.64728682170545" y="895.1666666666666" type="curve" smooth="yes"/>
      <point x="587.3643410852713" y="895.1666666666666"/>
      <point x="683.5658914728682" y="847.6550387596899"/>
      <point x="671.077519379845" y="736.2286821705427" type="curve" smooth="yes"/>
      <point x="670.3837209302326" y="713.6162790697674"/>
      <point x="662.6085271317829" y="680.3914728682171"/>
      <point x="649.9147286821706" y="659.5542635658915" type="curve"/>
      <point x="762.968992248062" y="630.8410852713179" type="line"/>
      <point x="794.3759689922481" y="677.1860465116279"/>
      <point x="805.5193798449612" y="734.0"/>
      <point x="805.5193798449612" y="765.7558139534883" type="curve" smooth="yes"/>
      <point x="805.5193798449612" y="897.8139534883721"/>
      <point x="656.2984496124031" y="946.3255813953489"/>
      <point x="546.5426356589147" y="946.3255813953489" type="curve" smooth="yes"/>
      <point x="379.13565891472865" y="946.3255813953489"/>
      <point x="284.9496124031008" y="838.4883720930233"/>
      <point x="245.15503875968994" y="550.6124031007752" type="curve"/>
      <point x="284.64341085271315" y="554.2325581395348" type="line"/>
      <point x="286.031007751938" y="917.6317829457364" type="line"/>
      <point x="126.6124031007752" y="917.6317829457364" type="line"/>
    </contour>
  </outline>
</glyph>
<glyph name="s" format="2">
  <advance width="807.3798449612403"/>
  <unicode hex="0073"/>
  <note>
s
</note>
  <anchor x="385.72868217054264" y="-13.75581395348837" name="bottom"/>
  <anchor x="395.68992248062017" y="916.0813953488372" name="top"/>
  <outline>
    <contour>
      <point x="399.9341085271318" y="-26.08139534883721" type="curve" smooth="yes"/>
      <point x="627.2170542635658" y="-25.387596899224807"/>
      <point x="760.7674418604652" y="67.98062015503876"/>
      <point x="763.0736434108527" y="250.93798449612405" type="curve" smooth="yes"/>
      <point x="766.0736434108527" y="483.52713178294573"/>
      <point x="497.3217054263566" y="530.5077519379845"/>
      <point x="428.4031007751938" y="548.2015503875969" type="curve" smooth="yes"/>
      <point x="225.81007751937983" y="598.8139534883721"/>
      <point x="192.03488372093022" y="643.7751937984497"/>
      <point x="192.03488372093022" y="711.3682170542636" type="curve" smooth="yes"/>
      <point x="192.03488372093022" y="869.2480620155038"/>
      <point x="332.07751937984494" y="891.0038759689922"/>
      <point x="414.44573643410854" y="891.6976744186046" type="curve" smooth="yes"/>
      <point x="565.6705426356589" y="891.6976744186046"/>
      <point x="619.015503875969" y="816.4922480620155"/>
      <point x="703.2984496124031" y="731.8604651162791" type="curve"/>
      <point x="703.6046511627907" y="840.468992248062" type="line"/>
      <point x="637.2596899224807" y="902.2441860465117"/>
      <point x="562.1782945736434" y="946.3255813953489"/>
      <point x="416.13953488372096" y="946.3255813953489" type="curve" smooth="yes"/>
      <point x="257.8759689922481" y="945.6317829457364"/>
      <point x="74.9186046511628" y="906.8759689922481"/>
      <point x="75.6124031007752" y="694.2054263565891" type="curve" smooth="yes"/>
      <point x="76.3062015503876" y="589.4108527131783"/>
      <point x="141.01937984496124" y="503.0426356589147"/>
      <point x="361.40697674418607" y="436.9612403100775" type="curve" smooth="yes"/>
      <point x="461.7751937984496" y="405.9612403100775"/>
      <point x="631.6317829457364" y="405.6317829457364"/>
      <point x="628.6317829457364" y="232.01937984496124" type="curve" smooth="yes"/>
      <point x="626.6317829457364" y="112.81395348837209"/>
      <point x="514.2054263565891" y="33.627906976744185"/>
      <point x="393.77131782945736" y="33.627906976744185" type="curve" smooth="yes"/>
      <point x="242.77131782945736" y="32.934108527131784"/>
      <point x="146.13953488372093" y="96.83333333333333"/>
      <point x="48.0" y="212.015503875969" type="curve"/>
      <point x="48.3875968992248" y="82.55038759689923" type="line"/>
      <point x="115.48837209302326" y="14.449612403100776"/>
      <point x="242.26356589147287" y="-26.775193798449614"/>
    </contour>
  </outline>
</glyph>
<glyph name="t" format="2">
  <advance width="464.7093023255814"/>
  <unicode hex="0074"/>
  <note>
t
</note>
  <anchor x="250.5891472868217" y="-10.0" name="bottom"/>
  <anchor x="225.15891472868216" y="550.922480620155" name="center"/>
  <anchor x="240.5891472868217" y="918.8565891472869" name="top"/>
  <anchor x="439.9341085271318" y="1285.1007751937984" name="topright"/>
  <outline>
    <contour>
      <point x="282.9573643410853" y="-19.387596899224807" type="curve" smooth="yes"/>
      <point x="343.7519379844961" y="-19.387596899224807"/>
      <point x="426.7906976744186" y="0.3875968992248069"/>
      <point x="441.4031007751938" y="10.162790697674419" type="curve"/>
      <point x="441.4031007751938" y="72.54651162790698" type="line"/>
      <point x="388.4263565891473" y="48.445736434108525"/>
      <point x="339.6705426356589" y="30.383720930232556"/>
      <point x="313.15891472868213" y="30.383720930232556" type="curve" smooth="yes"/>
      <point x="268.87209302325584" y="30.383720930232556"/>
      <point x="278.81007751937983" y="75.91472868217055"/>
      <point x="278.81007751937983" y="309.0503875968992" type="curve" smooth="yes"/>
      <point x="278.81007751937983" y="874.3294573643411" type="line"/>
      <point x="391.0581395348837" y="874.3294573643411" type="line"/>
      <point x="391.0581395348837" y="919.7131782945736" type="line"/>
      <point x="278.81007751937983" y="919.7131782945736" type="line"/>
      <point x="278.81007751937983" y="1210.875968992248" type="line"/>
      <point x="226.2015503875969" y="1210.875968992248" type="line"/>
      <point x="240.77131782945736" y="977.3217054263566"/>
      <point x="151.51162790697674" y="918.0193798449612"/>
      <point x="36.0" y="919.7131782945736" type="curve"/>
      <point x="36.0" y="874.3294573643411" type="line"/>
      <point x="133.2674418604651" y="874.3294573643411" type="line"/>
      <point x="133.2674418604651" y="246.93798449612405" type="line" smooth="yes"/>
      <point x="133.2674418604651" y="54.961240310077514"/>
      <point x="161.24418604651163" y="-19.387596899224807"/>
    </contour>
  </outline>
</glyph>
<glyph name="u" format="2">
  <advance width="1076.1744186046512"/>
  <unicode hex="0075"/>
  <note>
u
</note>
  <anchor x="493.44573643410854" y="6.244186046511629" name="bottom"/>
  <anchor x="884.0348837209302" y="0.0" name="ogonek"/>
  <anchor x="532.4651162790698" y="922.3255813953489" name="top"/>
  <anchor x="1091.093023255814" y="922.3255813953489" name="topright"/>
  <outline>
    <contour>
      <point x="460.0581395348837" y="-17.3062015503876" type="curve" smooth="yes"/>
      <point x="669.4883720930233" y="-17.3062015503876"/>
      <point x="775.9186046511628" y="124.24418604651163"/>
      <point x="807.1627906976744" y="330.7170542635659" type="curve"/>
      <point x="791.8372093023256" y="393.4612403100775" type="line"/>
      <point x="791.1434108527131" y="0.0" type="line"/>
      <point x="949.1744186046511" y="0.0" type="line"/>
      <point x="949.1744186046511" y="917.6317829457364" type="line"/>
      <point x="791.1434108527131" y="917.6317829457364" type="line"/>
      <point x="791.1434108527131" y="461.55426356589146" type="line" smooth="yes"/>
      <point x="791.1434108527131" y="229.13953488372093"/>
      <point x="692.8565891472869" y="30.771317829457367"/>
      <point x="479.07751937984494" y="30.771317829457367" type="curve" smooth="yes"/>
      <point x="327.01162790697674" y="30.771317829457367"/>
      <point x="260.33720930232556" y="121.97674418604652"/>
      <point x="260.33720930232556" y="416.30232558139534" type="curve" smooth="yes"/>
      <point x="260.33720930232556" y="917.6317829457364" type="line"/>
      <point x="101.6124031007752" y="917.6317829457364" type="line"/>
      <point x="101.6124031007752" y="381.9573643410853" type="line" smooth="yes"/>
      <point x="101.6124031007752" y="99.01937984496124"/>
      <point x="224.81395348837208" y="-17.3062015503876"/>
    </contour>
  </outline>
</glyph>
<glyph name="v" format="2">
  <advance width="990.4806201550388"/>
  <unicode hex="0076"/>
  <note>
v
</note>
  <anchor x="495.2403100775194" y="27.058139534883722" name="bottom"/>
  <anchor x="495.2403100775194" y="918.8565891472869" name="top"/>
  <outline>
    <contour>
      <point x="481.2829457364341" y="-15.306201550387597" type="line"/>
      <point x="519.5038759689922" y="-15.306201550387597" type="line"/>
      <point x="975.7054263565891" y="917.6317829457364" type="line"/>
      <point x="918.9961240310078" y="917.6317829457364" type="line"/>
      <point x="529.7480620155038" y="112.5813953488372" type="line"/>
      <point x="561.2170542635658" y="141.01162790697674" type="line"/>
      <point x="175.33720930232556" y="917.6317829457364" type="line"/>
      <point x="14.775193798449614" y="917.6317829457364" type="line"/>
    </contour>
  </outline>
</glyph>
<glyph name="w" format="2">
  <advance width="1511.2906976744187"/>
  <unicode hex="0077"/>
  <note>
w
</note>
  <anchor x="756.9922480620155" y="0.0" name="bottom"/>
  <anchor x="756.9922480620155" y="922.3255813953489" name="top"/>
  <outline>
    <contour>
      <point x="1021.0736434108527" y="-18.08139534883721" type="line"/>
      <point x="1059.9883720930234" y="-18.08139534883721" type="line"/>
      <point x="1498.6782945736434" y="918.3255813953489" type="line"/>
      <point x="1440.5813953488373" y="918.3255813953489" type="line"/>
      <point x="1076.8643410852712" y="123.29457364341086" type="line"/>
      <point x="1108.639534883721" y="143.09302325581396" type="line"/>
      <point x="736.577519379845" y="917.6317829457364" type="line"/>
      <point x="577.6279069767442" y="918.3255813953489" type="line"/>
    </contour>
    <contour>
      <point x="456.0581395348837" y="-18.08139534883721" type="line"/>
      <point x="494.97286821705427" y="-18.08139534883721" type="line"/>
      <point x="793.8062015503876" y="646.0968992248062" type="line"/>
      <point x="764.9108527131783" y="704.031007751938" type="line"/>
      <point x="509.0736434108527" y="123.29457364341086" type="line"/>
      <point x="531.1356589147287" y="143.09302325581396" type="line"/>
      <point x="171.56201550387595" y="917.6317829457364" type="line"/>
      <point x="12.612403100775197" y="918.3255813953489" type="line"/>
    </contour>
    <contour>
      <point x="816.9069767441861" y="664.1356589147287" type="line"/>
      <point x="937.3372093023256" y="918.3255813953489" type="line"/>
      <point x="877.8527131782946" y="918.3255813953489" type="line"/>
      <point x="770.6666666666666" y="690.1550387596899" type="line"/>
    </contour>
  </outline>
</glyph>
<glyph name="x" format="2">
  <advance width="874.3565891472869"/>
  <unicode hex="0078"/>
  <note>
x
</note>
  <anchor x="436.1782945736434" y="27.058139534883722" name="bottom"/>
  <anchor x="436.1782945736434" y="918.8565891472869" name="top"/>
  <outline>
    <contour>
      <point x="665.8565891472869" y="0.0" type="line"/>
      <point x="839.7441860465117" y="0.0" type="line"/>
      <point x="226.7248062015504" y="917.6317829457364" type="line"/>
      <point x="52.83720930232558" y="917.6317829457364" type="line"/>
    </contour>
    <contour>
      <point x="35.79457364341086" y="0.0" type="line"/>
      <point x="112.2170542635659" y="0.0" type="line"/>
      <point x="445.81007751937983" y="434.7984496124031" type="line"/>
      <point x="421.2403100775194" y="502.2015503875969" type="line"/>
    </contour>
    <contour>
      <point x="457.7480620155039" y="438.65503875968994" type="line"/>
      <point x="838.968992248062" y="917.6317829457364" type="line"/>
      <point x="758.2403100775193" y="917.6317829457364" type="line"/>
      <point x="433.85271317829455" y="505.34496124031006" type="line"/>
    </contour>
  </outline>
</glyph>
<glyph name="y" format="2">
  <advance width="973.8294573643411"/>
  <unicode hex="0079"/>
  <note>
y
</note>
  <anchor x="613.2790697674418" y="0.0" name="bottom"/>
  <anchor x="504.2596899224806" y="922.3255813953489" name="top"/>
  <outline>
    <contour>
      <point x="223.52713178294573" y="-556.3255813953489" type="curve" smooth="yes"/>
      <point x="319.58527131782944" y="-556.3255813953489"/>
      <point x="359.9108527131783" y="-466.4108527131783"/>
      <point x="403.2984496124031" y="-344.47286821705427" type="curve" smooth="yes"/>
      <point x="488.2984496124031" y="-110.08527131782947"/>
      <point x="507.9108527131783" y="-48.47286821705427"/>
      <point x="531.9922480620155" y="13.833333333333329" type="curve"/>
      <point x="962.5232558139535" y="918.3255813953489" type="line"/>
      <point x="906.5077519379845" y="918.3255813953489" type="line"/>
      <point x="513.6085271317829" y="95.17829457364341" type="line"/>
      <point x="574.7054263565891" y="110.17829457364341" type="line"/>
      <point x="170.48062015503876" y="917.6317829457364" type="line"/>
      <point x="10.612403100775197" y="918.3255813953489" type="line"/>
      <point x="501.3217054263566" y="-54.689922480620154" type="line"/>
      <point x="492.8333333333333" y="54.54651162790698" type="line"/>
      <point x="363.8333333333333" y="-330.34883720930236" type="line" smooth="yes"/>
      <point x="344.484496124031" y="-390.1085271317829"/>
      <point x="304.99612403100775" y="-523.2054263565891"/>
      <point x="230.13953488372093" y="-523.2054263565891" type="curve" smooth="yes"/>
      <point x="177.18217054263567" y="-523.2054263565891"/>
      <point x="123.73255813953489" y="-496.65503875968994"/>
      <point x="131.34496124031008" y="-388.36821705426354" type="curve"/>
      <point x="69.0" y="-388.36821705426354" type="line"/>
      <point x="81.3875968992248" y="-520.8565891472869"/>
      <point x="146.46899224806202" y="-556.3255813953489"/>
    </contour>
  </outline>
</glyph>
<glyph name="z" format="2">
  <advance width="841.4806201550388"/>
  <unicode hex="007A"/>
  <note>
z
</note>
  <anchor x="420.2403100775194" y="0.0" name="bottom"/>
  <anchor x="420.2403100775194" y="461.16279069767444" name="center"/>
  <anchor x="420.2403100775194" y="922.3255813953489" name="top"/>
  <outline>
    <contour>
      <point x="20.612403100775197" y="0.0" type="line"/>
      <point x="799.3372093023256" y="0.0" type="line"/>
      <point x="799.3372093023256" y="46.077519379844965" type="line"/>
      <point x="186.2751937984496" y="46.077519379844965" type="line"/>
      <point x="175.93023255813955" y="17.100775193798448" type="line"/>
      <point x="815.4806201550388" y="917.6317829457364" type="line"/>
      <point x="54.6937984496124" y="917.6317829457364" type="line"/>
      <point x="54.6937984496124" y="872.2480620155038" type="line"/>
      <point x="660.1434108527131" y="872.2480620155038" type="line"/>
      <point x="660.1627906976744" y="900.2248062015503" type="line"/>
    </contour>
  </outline>
</glyph>
<glyph name="braceleft" format="2">
  <advance width="580.5852713178294"/>
  <unicode hex="007B"/>
  <note>
braceleft
</note>
  <outline>
    <contour>
      <point x="541.5852713178294" y="-398.531007751938" type="curve"/>
      <point x="541.5852713178294" y="-306.9031007751938" type="line"/>
      <point x="374.0736434108527" y="-321.47286821705427"/>
      <point x="273.9108527131783" y="-184.24806201550388"/>
      <point x="273.9108527131783" y="18.406976744186046" type="curve" smooth="yes"/>
      <point x="273.9108527131783" y="334.8565891472868" type="line" smooth="yes"/>
      <point x="273.9108527131783" y="406.24418604651163"/>
      <point x="216.68604651162792" y="455.5503875968992"/>
      <point x="182.93023255813955" y="480.0813953488372" type="curve"/>
      <point x="216.68604651162792" y="506.61240310077517"/>
      <point x="273.9108527131783" y="554.6124031007752"/>
      <point x="273.9108527131783" y="626.0" type="curve" smooth="yes"/>
      <point x="273.9108527131783" y="1045.062015503876" type="line" smooth="yes"/>
      <point x="273.9108527131783" y="1253.9612403100775"/>
      <point x="369.2170542635659" y="1384.9418604651162"/>
      <point x="541.5852713178294" y="1369.6782945736434" type="curve"/>
      <point x="541.5852713178294" y="1462.0" type="line"/>
      <point x="313.99612403100775" y="1470.3255813953488"/>
      <point x="187.4263565891473" y="1326.8565891472867"/>
      <point x="187.4263565891473" y="1113.6744186046512" type="curve" smooth="yes"/>
      <point x="187.4263565891473" y="626.0" type="line" smooth="yes"/>
      <point x="187.4263565891473" y="558.0813953488372"/>
      <point x="130.8953488372093" y="519.1007751937984"/>
      <point x="65.91860465116278" y="481.468992248062" type="curve"/>
      <point x="132.2829457364341" y="439.6744186046512"/>
      <point x="187.4263565891473" y="404.16279069767444"/>
      <point x="187.4263565891473" y="334.8565891472868" type="curve" smooth="yes"/>
      <point x="187.4263565891473" y="-49.51162790697674" type="line" smooth="yes"/>
      <point x="187.4263565891473" y="-264.0813953488372"/>
      <point x="311.99612403100775" y="-406.8565891472868"/>
    </contour>
  </outline>
</glyph>
<glyph name="braceright" format="2">
  <advance width="581.2790697674418"/>
  <unicode hex="007D"/>
  <note>
braceright
</note>
  <outline>
    <contour>
      <point x="39.0" y="-398.531007751938" type="line"/>
      <point x="269.2829457364341" y="-406.8565891472868"/>
      <point x="393.15891472868213" y="-264.0813953488372"/>
      <point x="393.15891472868213" y="-49.51162790697674" type="curve" smooth="yes"/>
      <point x="393.15891472868213" y="334.8565891472868" type="line" smooth="yes"/>
      <point x="393.15891472868213" y="404.16279069767444"/>
      <point x="448.30232558139534" y="438.98062015503876"/>
      <point x="515.3604651162791" y="480.7751937984496" type="curve"/>
      <point x="448.99612403100775" y="519.1007751937984"/>
      <point x="393.15891472868213" y="558.0813953488372"/>
      <point x="393.15891472868213" y="626.0" type="curve" smooth="yes"/>
      <point x="393.15891472868213" y="1113.6744186046512" type="line" smooth="yes"/>
      <point x="393.15891472868213" y="1326.8565891472867"/>
      <point x="267.2829457364341" y="1470.3255813953488"/>
      <point x="39.0" y="1462.0" type="curve"/>
      <point x="39.0" y="1369.6782945736434" type="line"/>
      <point x="212.75581395348837" y="1384.9418604651162"/>
      <point x="307.3682170542636" y="1253.9612403100775"/>
      <point x="307.3682170542636" y="1045.062015503876" type="curve" smooth="yes"/>
      <point x="307.3682170542636" y="626.0" type="line" smooth="yes"/>
      <point x="307.3682170542636" y="553.9186046511628"/>
      <point x="364.59302325581393" y="506.61240310077517"/>
      <point x="398.34883720930236" y="480.0813953488372" type="curve"/>
      <point x="364.59302325581393" y="455.5503875968992"/>
      <point x="307.3682170542636" y="406.24418604651163"/>
      <point x="307.3682170542636" y="334.8565891472868" type="curve" smooth="yes"/>
      <point x="307.3682170542636" y="18.406976744186046" type="line" smooth="yes"/>
      <point x="307.3682170542636" y="-184.24806201550388"/>
      <point x="207.20542635658916" y="-321.47286821705427"/>
      <point x="39.0" y="-306.9031007751938" type="curve"/>
    </contour>
  </outline>
</glyph>
<glyph name="asciitilde" format="2">
  <advance width="1161.9031007751937"/>
  <unicode hex="007E"/>
  <note>
asciitilde
</note>
  <outline>
    <contour>
      <point x="756.1744186046511" y="607.6782945736434" type="curve" smooth="yes"/>
      <point x="882.6821705426356" y="607.6782945736434"/>
      <point x="994.0852713178294" y="678.3488372093024"/>
      <point x="1047.984496124031" y="740.9651162790698" type="curve"/>
      <point x="990.2945736434109" y="821.7131782945736" type="line"/>
      <point x="929.562015503876" y="756.7131782945736"/>
      <point x="839.3372093023256" y="706.2635658914729"/>
      <point x="752.2558139534883" y="706.2635658914729" type="curve" smooth="yes"/>
      <point x="690.4806201550388" y="706.2635658914729"/>
      <point x="652.3992248062016" y="734.2635658914729"/>
      <point x="607.1550387596899" y="764.9573643410853" type="curve" smooth="yes"/>
      <point x="549.6666666666666" y="801.0387596899225"/>
      <point x="489.5658914728682" y="838.0387596899225"/>
      <point x="396.64728682170545" y="838.0387596899225" type="curve" smooth="yes"/>
      <point x="291.3410852713178" y="838.0387596899225"/>
      <point x="187.34496124031008" y="785.1007751937984"/>
      <point x="113.9186046511628" y="692.6511627906976" type="curve"/>
      <point x="169.44573643410854" y="616.3720930232558" type="line"/>
      <point x="244.74806201550388" y="693.8604651162791"/>
      <point x="326.7480620155039" y="737.453488372093"/>
      <point x="398.95348837209303" y="737.453488372093" type="curve" smooth="yes"/>
      <point x="457.2403100775194" y="737.453488372093"/>
      <point x="501.484496124031" y="707.0038759689922"/>
      <point x="563.7480620155038" y="668.453488372093" type="curve" smooth="yes"/>
      <point x="612.6860465116279" y="639.453488372093"/>
      <point x="666.9302325581396" y="607.6782945736434"/>
    </contour>
  </outline>
</glyph>
<glyph name=".notdef" format="2">
  <advance width="1348.0"/>
  <unicode hex="007F"/>
  <note>
.notdef
</note>
  <outline>
    <contour>
      <point x="148.32945736434107" y="-349.1434108527132" type="line"/>
      <point x="1199.6705426356589" y="-349.1434108527132" type="line"/>
      <point x="1199.6705426356589" y="1412.7751937984497" type="line"/>
      <point x="148.32945736434107" y="1412.7751937984497" type="line"/>
    </contour>
    <contour>
      <point x="312.36434108527135" y="-189.96511627906978" type="line"/>
      <point x="312.36434108527135" y="1253.5968992248063" type="line"/>
      <point x="1036.3294573643411" y="1253.5968992248063" type="line"/>
      <point x="1036.3294573643411" y="-189.96511627906978" type="line"/>
    </contour>
  </outline>
</glyph>
<glyph name="Euro" format="2">
  <advance width="1497.2713178294573"/>
  <unicode hex="0080"/>
  <note>
Euro
</note>
  <outline>
    <contour>
      <point x="893.0116279069767" y="-19.18217054263566" type="curve" smooth="yes"/>
      <point x="1131.84496124031" y="-19.18217054263566"/>
      <point x="1288.7403100775193" y="106.32558139534883"/>
      <point x="1390.046511627907" y="335.7519379844961" type="curve"/>
      <point x="1281.15503875969" y="335.7519379844961" type="line"/>
      <point x="1168.360465116279" y="87.9186046511628"/>
      <point x="1015.953488372093" y="44.12015503875969"/>
      <point x="900.3992248062016" y="44.12015503875969" type="curve" smooth="yes"/>
      <point x="608.1124031007752" y="44.12015503875969"/>
      <point x="427.7015503875969" y="340.9767441860465"/>
      <point x="427.7015503875969" y="712.4496124031008" type="curve" smooth="yes"/>
      <point x="427.7015503875969" y="1108.7984496124031"/>
      <point x="625.6007751937984" y="1380.1666666666667"/>
      <point x="890.2364341085272" y="1380.1666666666667" type="curve" smooth="yes"/>
      <point x="1006.2596899224807" y="1380.1666666666667"/>
      <point x="1182.8294573643411" y="1328.4302325581396"/>
      <point x="1277.6046511627908" y="1082.9031007751937" type="curve"/>
      <point x="1383.8837209302326" y="1082.9031007751937" type="line"/>
      <point x="1291.1899224806202" y="1331.9612403100775"/>
      <point x="1114.7635658914728" y="1442.7751937984497"/>
      <point x="894.0116279069767" y="1442.7751937984497" type="curve" smooth="yes"/>
      <point x="538.3604651162791" y="1442.7751937984497"/>
      <point x="283.6085271317829" y="1156.0813953488373"/>
      <point x="283.6085271317829" y="710.8372093023256" type="curve" smooth="yes"/>
      <point x="282.91472868217056" y="246.36821705426357"/>
      <point x="546.6666666666666" y="-19.18217054263566"/>
    </contour>
    <contour>
      <point x="91.91860465116278" y="520.7364341085271" type="line"/>
      <point x="932.9728682170543" y="520.7364341085271" type="line"/>
      <point x="948.6860465116279" y="581.4263565891473" type="line"/>
      <point x="109.01937984496124" y="581.4263565891473" type="line"/>
    </contour>
    <contour>
      <point x="140.6124031007752" y="816.4922480620155" type="line"/>
      <point x="981.6666666666666" y="816.4922480620155" type="line"/>
      <point x="995.9922480620155" y="876.4883720930233" type="line"/>
      <point x="156.32558139534882" y="876.4883720930233" type="line"/>
    </contour>
  </outline>
</glyph>
<glyph name="sterling" format="2">
  <advance width="1201.3178294573643"/>
  <unicode hex="00A3"/>
  <note>
sterling
</note>
  <outline>
    <contour>
      <point x="258.07751937984494" y="49.751937984496124" type="curve" smooth="yes"/>
      <point x="435.81007751937983" y="49.751937984496124"/>
      <point x="751.4031007751938" y="211.6705426356589"/>
      <point x="751.4031007751938" y="435.1007751937984" type="curve" smooth="yes"/>
      <point x="751.4031007751938" y="643.1860465116279"/>
      <point x="634.6666666666666" y="717.5930232558139"/>
      <point x="467.42248062015506" y="841.531007751938" type="curve" smooth="yes"/>
      <point x="414.62790697674416" y="883.3255813953489"/>
      <point x="314.13565891472865" y="969.7751937984497"/>
      <point x="314.13565891472865" y="1137.5116279069769" type="curve" smooth="yes"/>
      <point x="314.13565891472865" y="1302.2674418604652"/>
      <point x="434.7480620155039" y="1420.1666666666667"/>
      <point x="584.7519379844962" y="1420.1666666666667" type="curve" smooth="yes"/>
      <point x="758.4263565891473" y="1420.1666666666667"/>
      <point x="910.468992248062" y="1239.1705426356589"/>
      <point x="921.6124031007752" y="1060.0077519379845" type="curve"/>
      <point x="1047.2984496124031" y="1060.0077519379845" type="line"/>
      <point x="1017.8488372093024" y="1306.860465116279"/>
      <point x="837.6666666666666" y="1467.468992248062"/>
      <point x="593.8333333333334" y="1467.468992248062" type="curve" smooth="yes"/>
      <point x="342.4263565891473" y="1467.468992248062"/>
      <point x="157.20542635658916" y="1302.0426356589148"/>
      <point x="157.20542635658916" y="1099.391472868217" type="curve" smooth="yes"/>
      <point x="157.20542635658916" y="889.9612403100775"/>
      <point x="247.4922480620155" y="813.7364341085271"/>
      <point x="394.1240310077519" y="706.2674418604652" type="curve" smooth="yes"/>
      <point x="511.20542635658916" y="620.2674418604652"/>
      <point x="590.1666666666666" y="522.2480620155038"/>
      <point x="590.1666666666666" y="405.34496124031006" type="curve" smooth="yes"/>
      <point x="590.1666666666666" y="272.015503875969"/>
      <point x="395.6356589147287" y="83.05426356589147"/>
      <point x="146.69379844961242" y="86.52325581395348" type="curve"/>
      <point x="209.48837209302326" y="54.60852713178295"/>
      <point x="227.19767441860466" y="49.751937984496124"/>
    </contour>
    <contour>
      <point x="132.69379844961242" y="0.0" type="line"/>
      <point x="1093.0116279069766" y="0.0" type="line"/>
      <point x="1093.0116279069766" y="86.52325581395348" type="line"/>
      <point x="132.69379844961242" y="86.52325581395348" type="line"/>
    </contour>
    <contour>
      <point x="154.7751937984496" y="632.4728682170543" type="line"/>
      <point x="983.4651162790698" y="632.4728682170543" type="line"/>
      <point x="983.4651162790698" y="678.5503875968992" type="line"/>
      <point x="154.7751937984496" y="678.5503875968992" type="line"/>
    </contour>
  </outline>
</glyph>
<glyph name="currency" format="2">
  <advance width="1207.108527131783"/>
  <unicode hex="00A4"/>
  <note>
currency
</note>
  <outline>
    <contour>
      <point x="191.5891472868217" y="222.02713178294573" type="line"/>
      <point x="387.30232558139534" y="427.7403100775194" type="line"/>
      <point x="448.62790697674416" y="379.27131782945736"/>
      <point x="526.3410852713179" y="350.18992248062017"/>
      <point x="610.0542635658915" y="350.18992248062017" type="curve" smooth="yes"/>
      <point x="690.4612403100775" y="350.18992248062017"/>
      <point x="763.1744186046511" y="376.27131782945736"/>
      <point x="822.5" y="418.7403100775194" type="curve"/>
      <point x="1011.2131782945737" y="222.02713178294573" type="line"/>
      <point x="1067.1899224806202" y="279.69767441860466" type="line"/>
      <point x="881.1705426356589" y="474.4108527131783" type="line"/>
      <point x="936.6395348837209" y="537.4302325581396"/>
      <point x="969.7209302325582" y="619.4496124031008"/>
      <point x="969.7209302325582" y="709.8565891472869" type="curve" smooth="yes"/>
      <point x="969.7209302325582" y="801.5697674418604"/>
      <point x="934.6395348837209" y="885.2829457364342"/>
      <point x="878.1705426356589" y="948.6085271317829" type="curve"/>
      <point x="1067.8837209302326" y="1146.3217054263566" type="line"/>
      <point x="1009.2131782945737" y="1202.9922480620155" type="line"/>
      <point x="818.5" y="1003.2790697674419" type="line"/>
      <point x="760.1744186046511" y="1045.4418604651162"/>
      <point x="688.4612403100775" y="1069.5232558139535"/>
      <point x="610.0542635658915" y="1069.5232558139535" type="curve" smooth="yes"/>
      <point x="528.3410852713179" y="1069.5232558139535"/>
      <point x="451.62790697674416" y="1042.4418604651162"/>
      <point x="391.6085271317829" y="995.2790697674419" type="curve"/>
      <point x="192.8953488372093" y="1202.9922480620155" type="line"/>
      <point x="134.91860465116278" y="1146.3217054263566" type="line"/>
      <point x="333.6317829457364" y="938.6085271317829" type="line"/>
      <point x="281.468992248062" y="877.2829457364342"/>
      <point x="250.3875968992248" y="797.5697674418604"/>
      <point x="250.3875968992248" y="709.8565891472869" type="curve" smooth="yes"/>
      <point x="250.3875968992248" y="623.4496124031008"/>
      <point x="280.468992248062" y="545.4302325581396"/>
      <point x="330.6317829457364" y="484.4108527131783" type="curve"/>
      <point x="134.91860465116278" y="279.69767441860466" type="line"/>
    </contour>
    <contour>
      <point x="610.0542635658915" y="429.3488372093023" type="curve" smooth="yes"/>
      <point x="455.2596899224806" y="429.3488372093023"/>
      <point x="329.54651162790697" y="555.062015503876"/>
      <point x="329.54651162790697" y="709.8565891472869" type="curve" smooth="yes"/>
      <point x="329.54651162790697" y="864.6511627906976"/>
      <point x="455.2596899224806" y="990.3643410852713"/>
      <point x="610.0542635658915" y="990.3643410852713" type="curve" smooth="yes"/>
      <point x="764.8488372093024" y="990.3643410852713"/>
      <point x="890.562015503876" y="864.6511627906976"/>
      <point x="890.562015503876" y="709.8565891472869" type="curve" smooth="yes"/>
      <point x="890.562015503876" y="555.062015503876"/>
      <point x="764.8488372093024" y="429.3488372093023"/>
    </contour>
  </outline>
</glyph>
<glyph name="brokenbar" format="2">
  <advance width="528.8914728682171"/>
  <unicode hex="00A6"/>
  <note>
brokenbar
</note>
  <outline>
    <contour>
      <point x="214.6124031007752" y="-300.0" type="line"/>
      <point x="314.27906976744185" y="-300.0" type="line"/>
      <point x="314.27906976744185" y="542.9612403100775" type="line"/>
      <point x="214.6124031007752" y="542.9612403100775" type="line"/>
    </contour>
    <contour>
      <point x="214.6124031007752" y="849.0387596899225" type="line"/>
      <point x="314.27906976744185" y="849.0387596899225" type="line"/>
      <point x="314.27906976744185" y="1664.0" type="line"/>
      <point x="214.6124031007752" y="1664.0" type="line"/>
    </contour>
  </outline>
</glyph>
<glyph name="section" format="2">
  <advance width="1040.7325581395348"/>
  <unicode hex="00A7"/>
  <note>
section
</note>
  <outline>
    <contour>
      <point x="484.71317829457365" y="-387.51162790697674" type="curve" smooth="yes"/>
      <point x="668.7325581395348" y="-387.51162790697674"/>
      <point x="868.4263565891473" y="-295.43023255813955"/>
      <point x="865.4263565891473" y="-101.41085271317829" type="curve" smooth="yes"/>
      <point x="862.4263565891473" y="96.83333333333333"/>
      <point x="648.5077519379845" y="152.75193798449612"/>
      <point x="481.71317829457365" y="206.0581395348837" type="curve"/>
      <point x="475.5503875968992" y="166.75581395348837" type="line"/>
      <point x="699.3449612403101" y="142.4496124031008"/>
      <point x="934.1201550387597" y="295.83720930232556"/>
      <point x="930.1201550387597" y="536.8565891472869" type="curve" smooth="yes"/>
      <point x="928.1201550387597" y="696.2635658914729"/>
      <point x="791.1821705426357" y="854.6511627906976"/>
      <point x="569.1821705426357" y="918.4883720930233" type="curve" smooth="yes"/>
      <point x="389.51162790697674" y="971.7325581395348"/>
      <point x="285.48837209302326" y="1045.5697674418604"/>
      <point x="283.48837209302326" y="1149.4302325581396" type="curve" smooth="yes"/>
      <point x="281.48837209302326" y="1290.593023255814"/>
      <point x="381.7751937984496" y="1389.3720930232557"/>
      <point x="552.3255813953489" y="1389.3720930232557" type="curve" smooth="yes"/>
      <point x="721.0387596899225" y="1389.3720930232557"/>
      <point x="805.937984496124" y="1296.5116279069766"/>
      <point x="795.8565891472869" y="1142.0038759689924" type="curve"/>
      <point x="879.4263565891473" y="1142.0038759689924" type="line"/>
      <point x="879.4263565891473" y="1178.7364341085272" type="line" smooth="yes"/>
      <point x="879.4263565891473" y="1327.062015503876"/>
      <point x="760.3449612403101" y="1442.531007751938"/>
      <point x="556.0193798449612" y="1442.531007751938" type="curve" smooth="yes"/>
      <point x="371.3062015503876" y="1442.531007751938"/>
      <point x="171.6124031007752" y="1350.4496124031007"/>
      <point x="174.6124031007752" y="1156.4302325581396" type="curve" smooth="yes"/>
      <point x="177.6124031007752" y="957.4922480620155"/>
      <point x="387.3682170542636" y="903.6550387596899"/>
      <point x="575.6705426356589" y="845.4922480620155" type="curve"/>
      <point x="556.1627906976744" y="884.8759689922481" type="line"/>
      <point x="340.0" y="910.4883720930233"/>
      <point x="105.91860465116278" y="756.4069767441861"/>
      <point x="109.9186046511628" y="518.1627906976744" type="curve" smooth="yes"/>
      <point x="111.9186046511628" y="359.4496124031008"/>
      <point x="244.0" y="202.4496124031008"/>
      <point x="473.6317829457364" y="135.8372093023256" type="curve" smooth="yes"/>
      <point x="632.4883720930233" y="88.83720930232559"/>
      <point x="754.5503875968992" y="15.0"/>
      <point x="756.5503875968992" y="-94.41085271317829" type="curve" smooth="yes"/>
      <point x="758.5503875968992" y="-234.8798449612403"/>
      <point x="654.7945736434109" y="-334.35271317829455"/>
      <point x="487.71317829457365" y="-334.35271317829455" type="curve" smooth="yes"/>
      <point x="316.9186046511628" y="-334.35271317829455"/>
      <point x="232.71317829457365" y="-240.1046511627907"/>
      <point x="244.18217054263565" y="-86.98449612403101" type="curve"/>
      <point x="160.6124031007752" y="-86.98449612403101" type="line"/>
      <point x="160.6124031007752" y="-124.41085271317829" type="line" smooth="yes"/>
      <point x="160.6124031007752" y="-273.43023255813955"/>
      <point x="279.0" y="-387.51162790697674"/>
    </contour>
    <contour>
      <point x="525.0193798449612" y="201.8953488372093" type="curve" smooth="yes"/>
      <point x="362.79457364341084" y="201.8953488372093"/>
      <point x="227.79457364341084" y="373.34496124031006"/>
      <point x="224.79457364341084" y="522.1627906976744" type="curve" smooth="yes"/>
      <point x="221.79457364341084" y="670.6744186046511"/>
      <point x="342.1007751937984" y="850.1240310077519"/>
      <point x="515.0193798449612" y="850.1240310077519" type="curve" smooth="yes"/>
      <point x="677.937984496124" y="850.1240310077519"/>
      <point x="812.2441860465117" y="680.2868217054264"/>
      <point x="815.2441860465117" y="532.1627906976744" type="curve" smooth="yes"/>
      <point x="818.2441860465117" y="384.34496124031006"/>
      <point x="687.2441860465117" y="201.8953488372093"/>
    </contour>
  </outline>
</glyph>
<glyph name="copyright" format="2">
  <advance width="1687.9767441860465"/>
  <unicode hex="00A9"/>
  <note>
copyright
</note>
  <outline>
    <contour>
      <point x="842.4883720930233" y="-14.856589147286822" type="curve" smooth="yes"/>
      <point x="1030.4883720930234" y="-14.856589147286822"/>
      <point x="1215.9573643410852" y="56.286821705426355"/>
      <point x="1363.5077519379845" y="199.14341085271317" type="curve" smooth="yes"/>
      <point x="1499.2015503875969" y="331.1434108527132"/>
      <point x="1575.0581395348838" y="508.75581395348837"/>
      <point x="1575.0581395348838" y="706.6124031007752" type="curve" smooth="yes"/>
      <point x="1575.0581395348838" y="899.8372093023256"/>
      <point x="1496.8953488372092" y="1085.3875968992247"/>
      <point x="1364.2015503875969" y="1218.0813953488373" type="curve" smooth="yes"/>
      <point x="1224.7325581395348" y="1357.5503875968993"/>
      <point x="1040.5697674418604" y="1428.0813953488373"/>
      <point x="842.4883720930233" y="1428.0813953488373" type="curve" smooth="yes"/>
      <point x="640.5503875968992" y="1428.0813953488373"/>
      <point x="467.6317829457364" y="1359.937984496124"/>
      <point x="330.7751937984496" y="1220.0813953488373" type="curve" smooth="yes"/>
      <point x="193.7751937984496" y="1079.3875968992247"/>
      <point x="111.9186046511628" y="902.468992248062"/>
      <point x="111.9186046511628" y="706.6124031007752" type="curve" smooth="yes"/>
      <point x="111.9186046511628" y="515.0"/>
      <point x="189.69379844961242" y="334.531007751938"/>
      <point x="328.7751937984496" y="197.8372093023256" type="curve" smooth="yes"/>
      <point x="475.24418604651163" y="53.75581395348837"/>
      <point x="652.3255813953489" y="-14.856589147286822"/>
    </contour>
    <contour>
      <point x="850.7131782945736" y="293.67054263565893" type="curve" smooth="yes"/>
      <point x="1047.4263565891472" y="293.67054263565893"/>
      <point x="1166.875968992248" y="408.22093023255815"/>
      <point x="1191.8565891472867" y="548.6705426356589" type="curve"/>
      <point x="1100.1666666666667" y="548.6705426356589" type="line"/>
      <point x="1061.7170542635658" y="412.99612403100775"/>
      <point x="983.8372093023256" y="341.1782945736434"/>
      <point x="859.0193798449612" y="341.1782945736434" type="curve" smooth="yes"/>
      <point x="694.7519379844962" y="341.1782945736434"/>
      <point x="569.422480620155" y="463.12015503875966"/>
      <point x="569.422480620155" y="703.6124031007752" type="curve" smooth="yes"/>
      <point x="569.422480620155" y="937.3294573643411"/>
      <point x="685.5891472868217" y="1075.3527131782946"/>
      <point x="859.0193798449612" y="1075.3527131782946" type="curve" smooth="yes"/>
      <point x="973.1434108527131" y="1075.3527131782946"/>
      <point x="1049.6356589147288" y="1016.0038759689922"/>
      <point x="1090.2480620155038" y="888.4728682170543" type="curve"/>
      <point x="1182.5503875968993" y="888.4728682170543" type="line"/>
      <point x="1157.5697674418604" y="1014.922480620155"/>
      <point x="1048.1201550387598" y="1120.860465116279"/>
      <point x="860.0193798449612" y="1120.860465116279" type="curve" smooth="yes"/>
      <point x="629.1821705426356" y="1120.860465116279"/>
      <point x="458.1821705426357" y="959.3488372093024"/>
      <point x="458.1821705426357" y="703.3062015503876" type="curve" smooth="yes"/>
      <point x="458.1821705426357" y="455.26356589147287"/>
      <point x="617.7945736434109" y="293.67054263565893"/>
    </contour>
    <contour>
      <point x="842.4883720930233" y="53.751937984496124" type="curve" smooth="yes"/>
      <point x="669.3449612403101" y="53.751937984496124"/>
      <point x="501.5077519379845" y="121.97674418604652"/>
      <point x="373.5891472868217" y="249.5077519379845" type="curve" smooth="yes"/>
      <point x="246.0581395348837" y="376.6511627906977"/>
      <point x="177.83333333333331" y="538.2441860465116"/>
      <point x="177.83333333333331" y="706.6124031007752" type="curve" smooth="yes"/>
      <point x="177.83333333333331" y="879.2868217054264"/>
      <point x="247.0581395348837" y="1041.9612403100775"/>
      <point x="376.2829457364341" y="1171.7984496124031" type="curve" smooth="yes"/>
      <point x="499.5077519379845" y="1295.6356589147288"/>
      <point x="659.2635658914728" y="1362.1666666666667"/>
      <point x="842.4883720930233" y="1362.1666666666667" type="curve" smooth="yes"/>
      <point x="1025.406976744186" y="1362.1666666666667"/>
      <point x="1188.7751937984497" y="1297.0232558139535"/>
      <point x="1316.6937984496124" y="1169.7984496124031" type="curve" smooth="yes"/>
      <point x="1441.2248062015503" y="1045.9612403100775"/>
      <point x="1511.8372093023256" y="879.9806201550388"/>
      <point x="1511.8372093023256" y="706.6124031007752" type="curve" smooth="yes"/>
      <point x="1511.8372093023256" y="528.4069767441861"/>
      <point x="1440.6124031007753" y="368.34496124031006"/>
      <point x="1320.0813953488373" y="251.5077519379845" type="curve" smooth="yes"/>
      <point x="1193.1627906976744" y="128.97674418604652"/>
      <point x="1023.3255813953489" y="53.751937984496124"/>
    </contour>
  </outline>
</glyph>
<glyph name="ordfeminine" format="2">
  <advance width="808.4573643410853"/>
  <unicode hex="00AA"/>
  <note>
ordfeminine
</note>
  <outline>
    <contour>
      <point x="367.0348837209302" y="813.0852713178294" type="curve" smooth="yes"/>
      <point x="390.52713178294573" y="813.0852713178294"/>
      <point x="549.5891472868217" y="810.5968992248062"/>
      <point x="571.2209302325581" y="998.0891472868217" type="curve"/>
      <point x="571.2209302325581" y="826.922480620155" type="line"/>
      <point x="664.1744186046511" y="826.922480620155" type="line"/>
      <point x="664.1744186046511" y="1438.468992248062" type="line"/>
      <point x="569.9147286821706" y="1438.468992248062" type="line"/>
      <point x="569.9147286821706" y="1264.6899224806202" type="line"/>
      <point x="548.9767441860465" y="1454.5697674418604"/>
      <point x="386.91472868217056" y="1453.7751937984497"/>
      <point x="363.0348837209302" y="1453.7751937984497" type="curve" smooth="yes"/>
      <point x="193.91472868217053" y="1453.7751937984497"/>
      <point x="96.42635658914729" y="1319.2248062015503"/>
      <point x="96.42635658914729" y="1131.4302325581396" type="curve" smooth="yes"/>
      <point x="96.42635658914729" y="927.6356589147287"/>
      <point x="197.60852713178295" y="813.0852713178294"/>
    </contour>
    <contour>
      <point x="372.72868217054264" y="864.4069767441861" type="curve" smooth="yes"/>
      <point x="234.91085271317831" y="864.4069767441861"/>
      <point x="201.93023255813955" y="981.3875968992248"/>
      <point x="201.93023255813955" y="1135.593023255814" type="curve" smooth="yes"/>
      <point x="201.93023255813955" y="1271.9418604651162"/>
      <point x="221.91085271317831" y="1402.453488372093"/>
      <point x="369.72868217054264" y="1402.453488372093" type="curve" smooth="yes"/>
      <point x="484.07751937984494" y="1402.453488372093"/>
      <point x="559.5891472868217" y="1327.1666666666667"/>
      <point x="559.5891472868217" y="1130.7364341085272" type="curve" smooth="yes"/>
      <point x="559.5891472868217" y="957.6937984496124"/>
      <point x="493.07751937984494" y="864.4069767441861"/>
    </contour>
    <contour>
      <point x="119.42635658914729" y="690.1085271317829" type="line"/>
      <point x="678.1937984496124" y="690.1085271317829" type="line"/>
      <point x="678.1937984496124" y="735.7790697674419" type="line"/>
      <point x="119.42635658914729" y="735.7790697674419" type="line"/>
    </contour>
  </outline>
</glyph>
<glyph name="logicalnot" format="2">
  <advance width="967.9147286821706"/>
  <unicode hex="00AC"/>
  <note>
logicalnot
</note>
  <outline>
    <contour>
      <point x="1041.3410852713178" y="339.20542635658916" type="line"/>
      <point x="1144.4767441860465" y="339.20542635658916" type="line"/>
      <point x="1144.4767441860465" y="867.2441860465117" type="line"/>
      <point x="92.3875968992248" y="867.2441860465117" type="line"/>
      <point x="92.3875968992248" y="786.4341085271318" type="line"/>
      <point x="1041.3410852713178" y="786.4341085271318" type="line"/>
    </contour>
  </outline>
</glyph>
<glyph name="registered" format="2">
  <advance width="1687.9767441860465"/>
  <unicode hex="00AE"/>
  <note>
registered
</note>
  <outline>
    <contour>
      <point x="842.4883720930233" y="-14.856589147286822" type="curve" smooth="yes"/>
      <point x="1030.4883720930234" y="-14.856589147286822"/>
      <point x="1215.9573643410852" y="56.286821705426355"/>
      <point x="1363.5077519379845" y="199.14341085271317" type="curve" smooth="yes"/>
      <point x="1499.2015503875969" y="331.1434108527132"/>
      <point x="1575.0581395348838" y="508.75581395348837"/>
      <point x="1575.0581395348838" y="706.6124031007752" type="curve" smooth="yes"/>
      <point x="1575.0581395348838" y="899.8372093023256"/>
      <point x="1496.8953488372092" y="1085.3875968992247"/>
      <point x="1364.2015503875969" y="1218.0813953488373" type="curve" smooth="yes"/>
      <point x="1224.7325581395348" y="1357.5503875968993"/>
      <point x="1040.5697674418604" y="1428.0813953488373"/>
      <point x="842.4883720930233" y="1428.0813953488373" type="curve" smooth="yes"/>
      <point x="640.5503875968992" y="1428.0813953488373"/>
      <point x="467.6317829457364" y="1359.937984496124"/>
      <point x="330.7751937984496" y="1220.0813953488373" type="curve" smooth="yes"/>
      <point x="193.7751937984496" y="1079.3875968992247"/>
      <point x="111.9186046511628" y="902.468992248062"/>
      <point x="111.9186046511628" y="706.6124031007752" type="curve" smooth="yes"/>
      <point x="111.9186046511628" y="515.0"/>
      <point x="189.69379844961242" y="334.531007751938"/>
      <point x="328.7751937984496" y="197.8372093023256" type="curve" smooth="yes"/>
      <point x="475.24418604651163" y="53.75581395348837"/>
      <point x="652.3255813953489" y="-14.856589147286822"/>
    </contour>
    <contour>
      <point x="842.4883720930233" y="53.751937984496124" type="curve" smooth="yes"/>
      <point x="669.3449612403101" y="53.751937984496124"/>
      <point x="501.5077519379845" y="121.97674418604652"/>
      <point x="373.5891472868217" y="249.5077519379845" type="curve" smooth="yes"/>
      <point x="246.0581395348837" y="376.6511627906977"/>
      <point x="177.83333333333331" y="538.2441860465116"/>
      <point x="177.83333333333331" y="706.6124031007752" type="curve" smooth="yes"/>
      <point x="177.83333333333331" y="879.2868217054264"/>
      <point x="247.0581395348837" y="1041.9612403100775"/>
      <point x="376.2829457364341" y="1171.7984496124031" type="curve" smooth="yes"/>
      <point x="499.5077519379845" y="1295.6356589147288"/>
      <point x="658.2635658914728" y="1362.1666666666667"/>
      <point x="842.4883720930233" y="1362.1666666666667" type="curve" smooth="yes"/>
      <point x="1025.406976744186" y="1362.1666666666667"/>
      <point x="1188.7751937984497" y="1297.0232558139535"/>
      <point x="1316.6937984496124" y="1169.7984496124031" type="curve" smooth="yes"/>
      <point x="1441.2248062015503" y="1045.9612403100775"/>
      <point x="1511.8372093023256" y="879.9806201550388"/>
      <point x="1511.8372093023256" y="706.6124031007752" type="curve" smooth="yes"/>
      <point x="1511.8372093023256" y="531.4069767441861"/>
      <point x="1444.6124031007753" y="372.34496124031006"/>
      <point x="1320.0813953488373" y="251.5077519379845" type="curve" smooth="yes"/>
      <point x="1194.1627906976744" y="129.97674418604652"/>
      <point x="1026.3255813953488" y="53.751937984496124"/>
    </contour>
    <contour>
      <point x="596.4069767441861" y="328.0387596899225" type="line"/>
      <point x="667.484496124031" y="328.0387596899225" type="line"/>
      <point x="667.484496124031" y="661.5736434108527" type="line"/>
      <point x="882.9573643410853" y="661.5736434108527" type="line"/>
      <point x="1072.0813953488373" y="328.0387596899225" type="line"/>
      <point x="1149.0968992248063" y="328.0387596899225" type="line"/>
      <point x="947.3410852713179" y="675.5930232558139" type="line"/>
      <point x="1077.8720930232557" y="703.0813953488372"/>
      <point x="1128.139534883721" y="768.1434108527131"/>
      <point x="1128.139534883721" y="882.4922480620155" type="curve" smooth="yes"/>
      <point x="1128.139534883721" y="1039.3488372093022"/>
      <point x="1043.5077519379845" y="1110.5736434108528"/>
      <point x="815.6705426356589" y="1110.5736434108528" type="curve" smooth="yes"/>
      <point x="596.4069767441861" y="1110.5736434108528" type="line"/>
    </contour>
    <contour>
      <point x="667.484496124031" y="713.7751937984497" type="line"/>
      <point x="667.484496124031" y="1054.9031007751937" type="line"/>
      <point x="847.9573643410853" y="1054.9031007751937" type="line" smooth="yes"/>
      <point x="1001.6317829457364" y="1054.2093023255813"/>
      <point x="1058.8372093023256" y="1002.1472868217054"/>
      <point x="1058.8372093023256" y="879.4108527131783" type="curve" smooth="yes"/>
      <point x="1058.8372093023256" y="764.1434108527131"/>
      <point x="1002.6317829457364" y="713.7751937984497"/>
      <point x="852.6511627906976" y="713.7751937984497" type="curve" smooth="yes"/>
    </contour>
  </outline>
</glyph>
<glyph name="degree" format="2">
  <advance width="672.6472868217054"/>
  <unicode hex="00B0"/>
  <note>
degree
</note>
  <outline>
    <contour>
      <point x="334.67054263565893" y="1003.4147286821706" type="curve" smooth="yes"/>
      <point x="445.54651162790697" y="1003.4147286821706"/>
      <point x="546.0348837209302" y="1098.2093023255813"/>
      <point x="546.0348837209302" y="1214.4728682170542" type="curve" smooth="yes"/>
      <point x="546.0348837209302" y="1330.0426356589148"/>
      <point x="445.54651162790697" y="1424.8372093023256"/>
      <point x="335.9767441860465" y="1424.8372093023256" type="curve" smooth="yes"/>
      <point x="224.40697674418604" y="1424.8372093023256"/>
      <point x="125.9186046511628" y="1331.3488372093022"/>
      <point x="125.9186046511628" y="1214.4728682170542" type="curve" smooth="yes"/>
      <point x="125.9186046511628" y="1096.9031007751937"/>
      <point x="224.10077519379846" y="1003.4147286821706"/>
    </contour>
    <contour>
      <point x="335.9767441860465" y="1032.0658914728683" type="curve" smooth="yes"/>
      <point x="240.4263565891473" y="1032.0658914728683"/>
      <point x="164.26356589147287" y="1113.922480620155"/>
      <point x="164.26356589147287" y="1214.4728682170542" type="curve" smooth="yes"/>
      <point x="164.26356589147287" y="1314.0232558139535"/>
      <point x="240.4263565891473" y="1395.1860465116279"/>
      <point x="335.9767441860465" y="1395.1860465116279" type="curve" smooth="yes"/>
      <point x="431.52713178294573" y="1395.1860465116279"/>
      <point x="507.3837209302326" y="1314.0232558139535"/>
      <point x="507.3837209302326" y="1214.4728682170542" type="curve" smooth="yes"/>
      <point x="507.3837209302326" y="1113.922480620155"/>
      <point x="431.52713178294573" y="1032.0658914728683"/>
    </contour>
  </outline>
</glyph>
<glyph name="plusminus" format="2">
  <advance width="967.9147286821706"/>
  <unicode hex="00B1"/>
  <note>
plusminus
</note>
  <outline>
    <contour>
      <point x="417.4263565891473" y="391.1240310077519" type="line"/>
      <point x="487.37984496124034" y="391.1240310077519" type="line"/>
      <point x="487.37984496124034" y="617.0658914728682" type="line"/>
      <point x="782.031007751938" y="617.0658914728682" type="line"/>
      <point x="782.031007751938" y="718.2403100775193" type="line"/>
      <point x="487.37984496124034" y="718.2403100775193" type="line"/>
      <point x="487.37984496124034" y="943.4883720930233" type="line"/>
      <point x="417.4263565891473" y="943.4883720930233" type="line"/>
      <point x="417.4263565891473" y="718.2403100775193" type="line"/>
      <point x="123.46899224806202" y="718.2403100775193" type="line"/>
      <point x="123.46899224806202" y="617.0658914728682" type="line"/>
      <point x="417.4263565891473" y="617.0658914728682" type="line"/>
    </contour>
    <contour>
      <point x="122.46899224806202" y="188.06976744186045" type="line"/>
      <point x="780.3372093023256" y="188.06976744186045" type="line"/>
      <point x="780.3372093023256" y="288.5503875968992" type="line"/>
      <point x="122.46899224806202" y="288.5503875968992" type="line"/>
    </contour>
  </outline>
</glyph>
<glyph name="paragraph" format="2">
  <advance width="1116.1317829457364"/>
  <unicode hex="00B6"/>
  <note>
paragraph
</note>
  <outline>
    <contour>
      <point x="456.61240310077517" y="0.0" type="line"/>
      <point x="603.6666666666666" y="0.0" type="line"/>
      <point x="603.6666666666666" y="1391.6782945736434" type="line"/>
      <point x="743.4651162790698" y="1391.6782945736434" type="line"/>
      <point x="743.4651162790698" y="0.0" type="line"/>
      <point x="889.8255813953489" y="0.0" type="line"/>
      <point x="889.8255813953489" y="1391.6782945736434" type="line"/>
      <point x="985.8255813953489" y="1391.6782945736434" type="line"/>
      <point x="985.8255813953489" y="1446.0813953488373" type="line"/>
      <point x="500.9767441860465" y="1446.0813953488373" type="line" smooth="yes"/>
      <point x="256.48837209302326" y="1446.0813953488373"/>
      <point x="90.6124031007752" y="1294.124031007752"/>
      <point x="90.6124031007752" y="1075.5542635658915" type="curve" smooth="yes"/>
      <point x="90.6124031007752" y="869.8410852713179"/>
      <point x="237.5503875968992" y="716.4147286821706"/>
      <point x="456.61240310077517" y="706.4147286821706" type="curve"/>
    </contour>
  </outline>
</glyph>
<glyph name="ordmasculine" format="2">
  <advance width="800.3139534883721"/>
  <unicode hex="00BA"/>
  <note>
ordmasculine
</note>
  <outline>
    <contour>
      <point x="398.81007751937983" y="822.5348837209302" type="curve" smooth="yes"/>
      <point x="561.9496124031008" y="822.5348837209302"/>
      <point x="720.3565891472869" y="938.3294573643411"/>
      <point x="720.3565891472869" y="1132.4302325581396" type="curve" smooth="yes"/>
      <point x="720.3565891472869" y="1324.8372093023256"/>
      <point x="563.9496124031008" y="1445.6317829457364"/>
      <point x="398.81007751937983" y="1445.6317829457364" type="curve" smooth="yes"/>
      <point x="234.97674418604652" y="1445.6317829457364"/>
      <point x="78.56976744186046" y="1326.8372093023256"/>
      <point x="78.56976744186046" y="1132.4302325581396" type="curve" smooth="yes"/>
      <point x="78.56976744186046" y="938.3294573643411"/>
      <point x="234.97674418604652" y="822.5348837209302"/>
    </contour>
    <contour>
      <point x="399.1162790697674" y="872.1627906976744" type="curve" smooth="yes"/>
      <point x="282.6666666666667" y="872.1627906976744"/>
      <point x="183.3798449612403" y="974.6937984496124"/>
      <point x="183.3798449612403" y="1132.4302325581396" type="curve" smooth="yes"/>
      <point x="183.3798449612403" y="1290.1666666666667"/>
      <point x="283.6666666666667" y="1395.6976744186047"/>
      <point x="399.1162790697674" y="1395.6976744186047" type="curve" smooth="yes"/>
      <point x="514.5658914728682" y="1395.6976744186047"/>
      <point x="614.8527131782946" y="1290.1666666666667"/>
      <point x="614.8527131782946" y="1132.4302325581396" type="curve" smooth="yes"/>
      <point x="614.8527131782946" y="974.6937984496124"/>
      <point x="514.8720930232558" y="872.1627906976744"/>
    </contour>
    <contour>
      <point x="122.5077519379845" y="690.1085271317829" type="line"/>
      <point x="677.1124031007752" y="690.1085271317829" type="line"/>
      <point x="677.1124031007752" y="735.7790697674419" type="line"/>
      <point x="122.5077519379845" y="735.7790697674419" type="line"/>
    </contour>
  </outline>
</glyph>
<glyph name="AE" format="2">
  <advance width="1724.8217054263566"/>
  <unicode hex="00C6"/>
  <note>
AE
</note>
  <anchor x="903.9496124031008" y="0.8139534883720927" name="bottom"/>
  <anchor x="903.9496124031008" y="1450.0" name="top"/>
  <outline>
    <contour>
      <point x="32.918604651162795" y="0.0" type="line"/>
      <point x="116.09689922480621" y="0.0" type="line"/>
      <point x="990.4612403100775" y="1442.0813953488373" type="line"/>
      <point x="907.9767441860465" y="1442.0813953488373" type="line"/>
    </contour>
    <contour>
      <point x="376.7906976744186" y="447.20542635658916" type="line"/>
      <point x="1032.5" y="447.20542635658916" type="line"/>
      <point x="1032.5" y="508.8953488372093" type="line"/>
      <point x="376.7906976744186" y="508.8953488372093" type="line"/>
    </contour>
    <contour>
      <point x="925.2635658914728" y="0.0" type="line"/>
      <point x="1650.4341085271317" y="0.0" type="line"/>
      <point x="1650.4341085271317" y="60.99612403100775" type="line"/>
      <point x="959.7325581395348" y="60.99612403100775" type="line"/>
      <point x="1075.4573643410852" y="10.0" type="line"/>
      <point x="1075.4573643410852" y="761.6511627906976" type="line"/>
      <point x="993.3410852713179" y="698.3488372093024" type="line"/>
      <point x="1650.4341085271317" y="698.3488372093024" type="line"/>
      <point x="1650.4341085271317" y="759.3449612403101" type="line"/>
      <point x="1003.7480620155038" y="759.3449612403101" type="line"/>
      <point x="1075.4573643410852" y="703.9612403100775" type="line"/>
      <point x="1075.4573643410852" y="1440.0" type="line"/>
      <point x="989.5658914728682" y="1381.0852713178294" type="line"/>
      <point x="1650.4341085271317" y="1381.0852713178294" type="line"/>
      <point x="1650.4341085271317" y="1442.0813953488373" type="line"/>
      <point x="925.2635658914728" y="1442.0813953488373" type="line"/>
    </contour>
  </outline>
</glyph>
<glyph name="Thorn" format="2">
  <advance width="1164.8255813953488"/>
  <unicode hex="00DE"/>
  <note>
Thorn
</note>
  <anchor x="596.2596899224807" y="20.813953488372093" name="bottom"/>
  <anchor x="596.2596899224807" y="1430.0" name="top"/>
  <outline>
    <contour>
      <point x="288.52713178294573" y="294.20542635658916" type="line"/>
      <point x="641.2170542635658" y="294.20542635658916" type="line" smooth="yes"/>
      <point x="762.1550387596899" y="294.20542635658916"/>
      <point x="886.1124031007752" y="342.36821705426354"/>
      <point x="963.031007751938" y="415.28682170542635" type="curve" smooth="yes"/>
      <point x="1063.906976744186" y="507.6937984496124"/>
      <point x="1107.2131782945737" y="608.7558139534883"/>
      <point x="1107.2131782945737" y="730.0" type="curve" smooth="yes"/>
      <point x="1107.2131782945737" y="855.2441860465117"/>
      <point x="1059.906976744186" y="950.9186046511628"/>
      <point x="972.1124031007752" y="1036.3255813953488" type="curve" smooth="yes"/>
      <point x="891.1937984496124" y="1117.2441860465117"/>
      <point x="757.8488372093024" y="1171.7945736434108"/>
      <point x="625.2170542635658" y="1171.7945736434108" type="curve" smooth="yes"/>
      <point x="288.52713178294573" y="1171.7945736434108" type="line"/>
      <point x="288.52713178294573" y="1131.9612403100775" type="line"/>
      <point x="613.422480620155" y="1131.9612403100775" type="line" smooth="yes"/>
      <point x="800.3837209302326" y="1131.9612403100775"/>
      <point x="958.7325581395348" y="966.9186046511628"/>
      <point x="958.7325581395348" y="729.0" type="curve" smooth="yes"/>
      <point x="958.7325581395348" y="484.7751937984496"/>
      <point x="791.3837209302326" y="334.0387596899225"/>
      <point x="613.422480620155" y="334.0387596899225" type="curve" smooth="yes"/>
      <point x="288.52713178294573" y="334.0387596899225" type="line"/>
    </contour>
    <contour>
      <point x="172.6124031007752" y="0.0" type="line"/>
      <point x="346.031007751938" y="0.0" type="line"/>
      <point x="346.031007751938" y="1432.0813953488373" type="line"/>
      <point x="172.6124031007752" y="1432.0813953488373" type="line"/>
    </contour>
  </outline>
</glyph>
<glyph name="germandbls" format="2">
  <advance width="1081.7209302325582"/>
  <unicode hex="00DF"/>
  <note>
germandbls
</note>
  <anchor x="550.3604651162791" y="27.058139534883722" name="bottom"/>
  <anchor x="550.3604651162791" y="918.8565891472869" name="top"/>
  <outline>
    <contour>
      <point x="711.2751937984497" y="-18.08139534883721" type="curve" smooth="yes"/>
      <point x="923.6007751937984" y="-18.08139534883721"/>
      <point x="1055.108527131783" y="84.36821705426357"/>
      <point x="1055.108527131783" y="270.63178294573646" type="curve" smooth="yes"/>
      <point x="1055.108527131783" y="438.67054263565893"/>
      <point x="952.7209302325582" y="499.1007751937984"/>
      <point x="768.7209302325582" y="542.5697674418604" type="curve" smooth="yes"/>
      <point x="638.3914728682171" y="573.1007751937984"/>
      <point x="546.0852713178294" y="607.937984496124"/>
      <point x="546.0852713178294" y="727.5930232558139" type="curve" smooth="yes"/>
      <point x="546.0852713178294" y="822.7364341085271"/>
      <point x="602.7596899224807" y="858.5542635658915"/>
      <point x="686.4728682170543" y="913.1860465116279" type="curve" smooth="yes"/>
      <point x="777.8410852713179" y="974.4108527131783"/>
      <point x="886.9031007751938" y="1038.1860465116279"/>
      <point x="886.9031007751938" y="1210.7170542635658" type="curve" smooth="yes"/>
      <point x="886.9031007751938" y="1409.3062015503876"/>
      <point x="759.0077519379845" y="1541.0387596899225"/>
      <point x="513.6046511627907" y="1541.0387596899225" type="curve" smooth="yes"/>
      <point x="328.54651162790697" y="1541.0387596899225"/>
      <point x="170.24418604651163" y="1410.8992248062016"/>
      <point x="170.24418604651163" y="1143.2054263565892" type="curve" smooth="yes"/>
      <point x="170.24418604651163" y="0.0" type="line"/>
      <point x="323.4186046511628" y="0.0" type="line"/>
      <point x="323.4186046511628" y="1107.8217054263566" type="line" smooth="yes"/>
      <point x="323.4186046511628" y="1353.7209302325582"/>
      <point x="393.42248062015506" y="1491.2674418604652"/>
      <point x="521.9922480620155" y="1491.2674418604652" type="curve" smooth="yes"/>
      <point x="629.5038759689922" y="1491.2674418604652"/>
      <point x="750.8488372093024" y="1405.6317829457364"/>
      <point x="750.8488372093024" y="1195.5736434108528" type="curve" smooth="yes"/>
      <point x="750.8488372093024" y="1046.124031007752"/>
      <point x="688.9496124031008" y="970.4108527131783"/>
      <point x="612.4186046511628" y="924.1860465116279" type="curve" smooth="yes"/>
      <point x="525.7441860465117" y="870.7364341085272"/>
      <point x="422.1317829457364" y="842.6744186046511"/>
      <point x="422.1317829457364" y="687.9418604651163" type="curve" smooth="yes"/>
      <point x="422.1317829457364" y="548.8992248062016"/>
      <point x="484.35658914728685" y="475.65503875968994"/>
      <point x="669.4186046511628" y="411.5736434108527" type="curve" smooth="yes"/>
      <point x="790.5658914728682" y="365.8178294573643"/>
      <point x="915.6666666666666" y="372.79457364341084"/>
      <point x="915.6666666666666" y="245.40697674418604" type="curve" smooth="yes"/>
      <point x="915.6666666666666" y="107.58914728682171"/>
      <point x="843.7674418604652" y="35.85271317829457"/>
      <point x="713.0503875968992" y="35.85271317829457" type="curve" smooth="yes"/>
      <point x="607.9457364341085" y="35.85271317829457"/>
      <point x="526.1085271317829" y="90.75193798449612"/>
      <point x="440.98837209302326" y="171.60852713178295" type="curve"/>
      <point x="436.1317829457364" y="68.7751937984496" type="line"/>
      <point x="498.76356589147287" y="20.91860465116279"/>
      <point x="602.9263565891473" y="-18.08139534883721"/>
    </contour>
    <contour>
      <point x="24.0" y="870.8604651162791" type="line"/>
      <point x="253.4418604651163" y="870.8604651162791" type="line"/>
      <point x="253.4418604651163" y="918.3255813953489" type="line"/>
      <point x="24.0" y="918.3255813953489" type="line"/>
    </contour>
  </outline>
</glyph>
